<svg width="19062" height="18182" viewBox="0 0 19062 18182" fill="none" xmlns="http://www.w3.org/2000/svg">
<path d="M4982.5 609.242L4999.91 638.408C5019.17 670.951 5047.26 697.36 5080.93 714.563L5111.31 729.551L5082.15 746.97C5049.71 766.228 5023.43 794.331 5006.4 827.986L4991 858.772L4973.58 829.606C4954.33 797.064 4926.24 770.655 4892.57 753.451L4862.19 738.463L4891.35 720.64C4923.92 701.423 4950.34 673.319 4967.51 639.623L4982.5 609.242Z" fill="#E0E0E0"/>
<path d="M9279.6 2847.31L9297.02 2876.48C9316.27 2909.02 9344.36 2935.43 9378.03 2952.64L9408.41 2967.62L9379.25 2985.04C9346.8 3004.41 9320.42 3032.48 9303.09 3066.06L9288.1 3096.44L9270.69 3067.68C9251.43 3035.14 9223.34 3008.73 9189.67 2991.52L9159.29 2976.54L9188.45 2958.71C9221.01 2939.6 9247.32 2911.46 9264.2 2877.7L9279.6 2847.31Z" fill="#E0E0E0"/>
<path d="M1888.89 9065.71L1906.31 9094.88C1925.68 9127.33 1953.75 9153.71 1987.33 9171.04L2018.11 9186.02L1988.95 9203.44C1956.5 9222.81 1930.12 9250.88 1912.79 9284.46L1897.81 9315.24L1879.98 9286.08C1860.77 9253.51 1832.66 9227.09 1798.97 9209.92L1768.18 9194.94L1797.35 9177.11C1829.92 9157.9 1856.33 9129.79 1873.5 9096.1L1888.89 9065.71Z" fill="#E0E0E0"/>
<path d="M13475.4 16894.3L13493.3 16923.5C13512.5 16956.1 13540.6 16982.5 13574.3 16999.6L13605.1 17014.6L13575.9 17032.4C13543.3 17051.7 13516.9 17079.8 13499.7 17113.5L13484.7 17144.2L13467.3 17115.1C13448 17082.6 13419.9 17056.3 13386.3 17038.9L13355.9 17023.9L13385.1 17006.1C13417.4 16986.7 13443.6 16958.6 13460.8 16925.1L13475.4 16894.3Z" fill="#E0E0E0"/>
<path d="M16774 8210.59L16814.5 8274.19C16857.5 8345.72 16920.1 8403.48 16994.8 8440.68L17061.6 8473.49L16998 8514C16926.5 8557.01 16868.7 8619.54 16831.5 8694.26L16798.7 8761.09L16760.2 8697.5C16717.3 8625.88 16654.8 8568.1 16580 8531.01L16513.1 8498.2L16577.1 8459.71C16648.5 8416.68 16706.2 8354.14 16743.2 8279.45L16774 8210.59Z" fill="#E0E0E0"/>
<path d="M13106 72.915L13144.5 136.918C13187.4 208.426 13250 266.079 13324.7 303.001L13391.6 335.813L13327.6 376.321C13256.2 419.355 13198.5 481.897 13161.5 556.582L13128.7 623.42L13088.2 559.823C13045.1 488.18 12982.4 430.397 12907.5 393.334L12843.1 356.472L12906.7 317.989C12978.3 275.086 13036.1 212.519 13073.2 137.728L13106 72.915Z" fill="#E0E0E0"/>
<path d="M5252.28 15925.4L5290.36 15989.4C5333.43 16060.9 5396.14 16118.5 5471.03 16155.4L5537.46 16188.3L5473.86 16226.7C5402.25 16269.7 5344.58 16332.4 5307.78 16407.4L5274.56 16473.8L5236.48 16410.2C5193.43 16338.7 5130.72 16281.1 5055.82 16244.2L4989.38 16210.9L5052.98 16172.9C5124.42 16129.7 5182.04 16067 5219.07 15992.2L5252.28 15925.4Z" fill="#E0E0E0"/>
<path d="M15682.3 5458.06C15682.3 5458.06 15355.4 5620.1 14928 5872.46C14407.1 6181.94 13334.9 6789.97 12649.5 6309.54L12022 5077.69C12022 5077.69 12424.6 5262.41 13037.5 5182.61C13584.4 5111.72 14021.9 4823.71 14218.8 4691.24C14299.8 4637.37 14403.5 4564.86 14485.7 4515.44C14623.4 4434.42 14788.7 4312.9 15029.3 4194.62L15682.3 5458.06Z" fill="#EBEBEB"/>
<path d="M14013.3 6142.98C14286.7 6095.06 14471.5 5845.77 14426.1 5586.18C14380.6 5326.6 14122 5155.01 13848.5 5202.94C13575.1 5250.86 13390.2 5500.15 13435.7 5759.73C13481.2 6019.32 13739.8 6190.91 14013.3 6142.98Z" fill="#F5F5F5"/>
<path d="M13767.5 5478.72L13727 5416.34L13776.8 5383.93L13817.3 5445.1C13863.4 5417.93 13916.7 5405.62 13970 5409.86L13986.6 5495.74C13944.8 5491.55 13902.6 5499.42 13865.1 5518.42L13925.5 5611.59C13990.3 5590.93 14065.2 5571.08 14116.7 5652.1C14155.2 5711.24 14149.5 5786.99 14076.2 5847.75L14116.7 5909.73L14066.8 5941.73L14026.3 5880.97C13989.2 5901.58 13947.3 5912.18 13904.8 5911.75L13885.4 5827.09C13918.1 5827.5 13950.5 5820.58 13980.2 5806.84L13919 5712.05C13854.6 5733.11 13780.5 5752.56 13729.8 5671.54C13691.7 5614.43 13696.2 5541.51 13767.5 5478.72ZM13803.9 5614.02C13816.5 5633.87 13837.6 5635.08 13864.7 5629.41L13814.9 5552.45C13805.8 5559.58 13799.7 5569.8 13797.7 5581.15C13795.7 5592.5 13797.9 5604.2 13803.9 5614.02ZM13976.1 5695.04L14027.2 5776.05C14036.5 5768.41 14042.8 5757.59 14044.7 5745.65C14046.7 5733.7 14044.2 5721.46 14037.7 5711.24C14025.1 5688.15 14003.3 5687.34 13975.3 5693.42L13976.1 5695.04Z" fill="#EBEBEB"/>
<path d="M12719.5 6316.03L12727.6 6320.89C12747.9 6333.04 13236.8 6611.33 14108.6 6214.76C14434.3 6066.36 14747.3 5891.74 15044.7 5692.61C15233.5 5571.08 15368.8 5481.56 15519.5 5441.86L15560 5431.33L14995.7 4271.99L14963.7 4294.67C14954.4 4301.15 14034.4 4940.78 13624.5 5108.48C13300.4 5241.75 12683.5 5432.54 12219.3 5219.88L12130.2 5179.37L12719.5 6316.03ZM13648.8 5170.86C13944.9 5049.34 14483.3 4699.75 14783 4497.62C14810.8 4540.51 14853.1 4572 14902.1 4586.33C14956.5 4601.41 15014.6 4594.73 15064.2 4567.7L15373.2 5202.46C15348.4 5212.74 15326.3 5228.57 15308.5 5248.71C15290.8 5268.86 15277.8 5292.81 15270.7 5318.72C15258 5368.73 15260.9 5421.44 15278.9 5469.81C15197.8 5514.37 15109.9 5570.27 15008.3 5636.3C14713.9 5833.91 14403.8 6006.92 14081 6153.59C13643.1 6352.89 13307.7 6371.93 13103.6 6352.89C13050.2 6348.02 12997.3 6339.49 12945.2 6327.37C12929.7 6267.77 12896.5 6214.29 12849.9 6174.05C12803.3 6133.82 12745.5 6108.73 12684.3 6102.14L12355 5467.79C12388.6 5464.95 12432.8 5444.7 12441.3 5359.63C12876.3 5441.86 13367.7 5285.5 13646.8 5170.86H13648.8Z" fill="#F5F5F5"/>
<path d="M4567.29 1263.04C4567.29 1263.04 4240.39 1425.08 3813.03 1677.44C3292.09 1986.52 2219.84 2594.95 1534.45 2114.52L906.977 883.077C906.977 883.077 1309.63 1067.39 1922.51 987.993C2469.37 917.104 2906.86 629.091 3103.73 496.224C3184.75 442.754 3288.45 369.839 3370.68 320.419C3508.41 239.403 3673.68 117.879 3914.3 0L4567.29 1263.04Z" fill="#EBEBEB"/>
<path d="M2898.28 1947.11C3171.75 1899.19 3356.56 1649.9 3311.07 1390.31C3265.58 1130.73 3007.01 959.141 2733.54 1007.07C2460.07 1054.99 2275.26 1304.28 2320.75 1563.86C2366.24 1823.45 2624.81 1995.04 2898.28 1947.11Z" fill="#F5F5F5"/>
<path d="M2652.47 1283.7L2611.96 1220.91L2661.79 1188.91L2702.3 1250.08C2748.3 1222.73 2801.68 1210.41 2855.01 1214.84L2871.62 1300.72C2829.82 1296.58 2787.71 1304.3 2750.1 1322.99L2810.45 1416.57C2875.27 1395.91 2950.21 1376.06 3001.65 1457.08C3021.97 1488.4 3029.11 1526.47 3021.52 1563.03C3013.94 1599.58 2992.24 1631.67 2961.14 1652.33L3001.65 1714.3L2951.83 1746.71L2911.32 1685.54C2874.19 1706.27 2832.32 1717.02 2789.79 1716.73L2770.35 1632.07C2803.04 1632.29 2835.39 1625.38 2865.14 1611.82L2803.97 1517.03C2739.56 1538.09 2665.43 1557.54 2614.8 1476.52C2575.51 1419.4 2581.18 1344.46 2652.47 1283.7ZM2688.93 1419C2701.49 1438.44 2722.55 1440.06 2749.69 1434.39L2699.87 1357.43C2690.81 1364.56 2684.68 1374.78 2682.67 1386.13C2680.65 1397.48 2682.88 1409.18 2688.93 1419ZM2861.09 1500.02L2912.13 1581.03C2921.47 1573.27 2927.69 1562.39 2929.62 1550.4C2931.56 1538.41 2929.09 1526.12 2922.66 1515.81C2910.1 1493.13 2888.23 1490.7 2861.09 1498.4V1500.02Z" fill="#EBEBEB"/>
<path d="M1602.5 2121L1610.6 2125.87C1630.86 2138.02 2119.79 2416.31 2991.52 2019.73C3317.68 1871.26 3631.29 1696.64 3929.29 1497.58C4118.05 1376.06 4253.35 1286.54 4404.04 1246.84L4444.55 1236.31L3877.44 76.9648L3845.44 99.6494C3836.12 106.131 2916.58 745.349 2506.24 913.457C2182.17 1046.73 1565.23 1237.52 1101.01 1024.85L1011.89 984.347L1602.5 2121ZM2531.76 975.84C2827.87 854.316 3366.22 504.731 3665.98 302.595C3694.89 347.676 3739.9 380.029 3791.84 393.052C3843.78 406.075 3898.74 398.787 3945.49 372.674L4254.57 1007.44C4229.72 1017.67 4207.56 1033.47 4189.79 1053.63C4172.02 1073.79 4159.12 1097.76 4152.08 1123.69C4139.35 1173.58 4142.18 1226.16 4160.18 1274.38C4079.17 1319.35 3991.26 1375.25 3889.59 1441.28C3595.63 1638.83 3285.92 1811.84 2963.57 1958.57C2525.68 2157.87 2190.27 2176.91 1984.9 2157.46C1931.59 2152.71 1878.67 2144.32 1826.51 2132.35C1811.13 2072.67 1777.92 2019.1 1731.31 1978.79C1684.7 1938.48 1626.91 1913.33 1565.64 1906.72L1237.52 1272.36C1271.14 1269.93 1315.3 1249.67 1323.81 1164.2C1761.29 1247.65 2251.44 1090.48 2531.76 975.84Z" fill="#F5F5F5"/>
<path d="M16198 15229C16198 15229 15871.1 15391.1 15443.7 15643.4C14923.2 15952.1 13850.5 16559.7 13165.1 16080.5L12537.7 14848.7C12537.7 14848.7 12940.3 15033.4 13553.2 14954C14100.1 14882.7 14537.6 14594.7 14734.4 14462.2C14815.4 14408.3 14919.1 14335.8 15001.4 14286.4C15139.1 14205.4 15304.4 14083.9 15545 13965.6L16198 15229Z" fill="#EBEBEB"/>
<path d="M13951.4 15530.4C13906 15270.7 14090.7 15021.6 14364.2 14973.4C14637.6 14925.2 14896 15097.4 14941.4 15357C14986.8 15616.7 14802.1 15865.8 14528.6 15913.6C14255.2 15961.4 13996.8 15790.1 13951.4 15530.4Z" fill="#F5F5F5"/>
<path d="M14283.2 15249.7L14242.7 15187.3L14292.5 15155.3L14333 15216.1C14379.1 15188.9 14432.4 15176.6 14485.7 15180.8L14502.3 15266.7C14460.5 15262.7 14418.4 15270.6 14380.8 15289.4L14441.1 15382.6C14506 15361.9 14581.3 15342 14632.7 15423.1C14670.8 15482.6 14665.2 15558 14592.2 15618.7L14632.7 15680.7L14582.9 15712.7L14542.4 15651.9C14505.2 15672.5 14463.4 15683.1 14420.9 15682.7L14401.4 15598.1C14434.1 15598.5 14466.5 15591.7 14496.2 15578.2L14435.1 15483C14370.7 15504.1 14296.5 15523.5 14245.9 15442.5C14206.2 15385 14211.9 15310.9 14283.2 15249.7ZM14319.6 15385.4C14332.2 15404.8 14353.6 15406 14380.4 15400.8L14330.6 15323.4C14321.7 15330.7 14315.8 15340.9 14313.7 15352.2C14311.7 15363.5 14313.8 15375.1 14319.6 15385V15385.4ZM14491.8 15466.4L14543.2 15545.4C14552.5 15537.6 14558.6 15526.8 14560.5 15514.9C14562.3 15503 14559.8 15490.8 14553.3 15480.6C14542.4 15459.5 14518.9 15458.3 14491.8 15466V15466.4Z" fill="#EBEBEB"/>
<path d="M13233.2 16087L13241.3 16091.8C13262 16104 13750.5 16382.3 14622.2 15986.1C14947.9 15837.6 15261 15662.8 15558.4 15463.6C15747.1 15342 15882.4 15252.5 16033.1 15212.8L16073.6 15202.3L15509.3 14043.4L15476.9 14065.6C15467.6 14072.1 14548.1 14711.7 14137.7 14879.4C13813.7 15012.7 13196.7 15203.5 12732.5 14990.8L12643.8 14950.3L13233.2 16087ZM14162.4 14941.8C14458.6 14820.3 14996.9 14470.7 15296.7 14268.6C15325.6 14313.7 15370.6 14346 15422.5 14359C15474.5 14372.1 15529.4 14364.8 15576.2 14338.7L15885.3 14973.4C15860.5 14983.8 15838.4 14999.6 15820.6 15019.8C15802.9 15039.9 15789.9 15063.8 15782.8 15089.7C15770.2 15139.7 15773.1 15192.4 15791.3 15240.8C15710.3 15285.7 15622 15341.6 15520.7 15407.3C15226.1 15604.8 14915.8 15777.9 14593 15925C14155.2 16123.8 13819.7 16142.9 13615.6 16123.8C13562.4 16119 13509.6 16110.5 13457.6 16098.3C13442.1 16038.8 13408.8 15985.4 13362.2 15945.1C13315.6 15904.9 13257.9 15879.8 13196.7 15873.1L12867.4 15238.7C12901 15236.3 12944.8 15216.1 12953.3 15130.6C13392.4 15212.8 13882.1 15056.9 14162.4 14941.8Z" fill="#F5F5F5"/>
<path d="M3988.83 11423.3C3988.83 11423.3 3662.34 11585.3 3234.98 11837.7C2714.04 12146.8 1641.79 12755.2 956.396 12274.8L328.926 11042.9C328.926 11042.9 731.576 11227.6 1344.46 11147.8C1890.92 11076.9 2328.81 10788.9 2525.68 10656.1C2606.7 10602.6 2709.99 10529.7 2792.63 10480.7C2930.36 10399.6 3095.22 10278.1 3336.25 10159.8L3988.83 11423.3Z" fill="#EBEBEB"/>
<path d="M1741.85 11724.7C1696.48 11465 1881.2 11215.5 2154.63 11167.7C2428.06 11119.9 2686.5 11291.2 2732.27 11550.9C2778.05 11810.5 2592.52 12060.1 2319.9 12107.9C2047.28 12155.7 1788.03 11984.3 1741.85 11724.7Z" fill="#F5F5F5"/>
<path d="M2074.02 11443.9L2033.51 11381.2L2083.33 11349.2L2123.84 11410.3C2169.91 11383.2 2223.24 11370.8 2276.56 11375.1L2292.76 11461C2250.96 11456.8 2208.83 11464.5 2171.24 11483.2L2229.97 11577.2C2295.19 11556.6 2370.13 11536.7 2421.58 11617.7C2459.65 11676.9 2453.98 11752.6 2381.07 11813.4L2421.58 11875.4L2371.75 11907.4L2331.24 11846.2C2294.16 11867 2252.26 11877.8 2209.72 11877.4L2190.68 11792.7C2223.37 11792.9 2255.72 11786 2285.47 11772.5L2224.3 11677.7C2159.49 11698.7 2085.76 11718.2 2034.72 11637.2C1997.46 11579.7 2002.72 11504.7 2074.02 11443.9ZM2110.47 11579.2C2123.44 11598.7 2144.5 11600.3 2171.24 11594.6L2121.82 11517.7C2112.76 11524.8 2106.62 11535 2104.53 11546.3C2102.44 11557.7 2104.56 11569.4 2110.47 11579.2ZM2283.04 11660.3L2334.08 11741.3C2343.51 11733.6 2349.75 11722.6 2351.62 11710.6C2353.49 11698.6 2350.85 11686.3 2344.21 11676.1C2331.65 11653.4 2308.96 11652.6 2283.04 11658.2V11660.3Z" fill="#EBEBEB"/>
<path d="M1024.05 12281.3L1032.55 12286.1C1052.81 12298.3 1541.74 12576.6 2413.47 12180C2739.14 12031.7 3052.22 11857.2 3349.62 11658.2C3538.38 11536.7 3673.68 11447.2 3824.37 11407.5L3864.88 11397L3299.39 10237.2L3267.38 10259.9C3258.07 10266.4 2338.13 10905.6 1928.19 11073.7C1604.12 11207 987.183 11397.8 522.96 11185.1L433.842 11144.6L1024.05 12281.3ZM1953.71 11136.1C2249.82 11014.6 2788.17 10665 3087.93 10462.8C3116.91 10508 3162 10540.3 3214.01 10553.3C3266.01 10566.4 3321.03 10559.1 3367.84 10532.9L3676.52 11167.7C3651.73 11177.9 3629.63 11193.8 3611.93 11213.9C3594.23 11234.1 3581.4 11258 3574.44 11283.9C3561.51 11333.9 3564.34 11386.7 3582.54 11435C3501.52 11479.6 3413.62 11535.5 3311.94 11601.5C3017.6 11799.1 2707.47 11972.1 2384.71 12118.8C1946.82 12318.1 1611.41 12337.2 1406.85 12318.1C1353.67 12313.2 1300.88 12304.7 1248.87 12292.6C1233.38 12233 1200.14 12179.5 1153.55 12139.2C1106.96 12098.9 1049.22 12073.7 987.993 12067L658.662 11432.6C692.284 11430.2 736.032 11409.9 744.944 11324.4C1183.24 11407.1 1672.99 11250.7 1953.71 11136.1Z" fill="#F5F5F5"/>
<path d="M14069.7 11625.4C14069.7 11625.4 14695.5 10891.8 15925.8 11364.1C15972.4 11382.4 16020.7 11396 16070 11404.7C16210.2 11432.4 16355.2 11422 16490 11374.7C16729.4 11278.3 17070.5 11137.7 17070.5 11137.7L18123.7 11761.5C18123.7 11761.5 17681.8 12085.6 17254 12110.7C16826.3 12135.8 16322.3 11786.6 15829.8 11908.2C15580.3 11962.2 15353.8 12092.5 15181.6 12280.8L14069.7 11625.4Z" fill="#EBEBEB"/>
<path d="M16608.3 11787.1C16560.9 11827.6 16275.8 11790.3 15971.1 11700C15666.5 11609.6 15457.5 11501.9 15504.9 11459.3C15552.3 11416.8 15837.9 11455.7 16142.5 11546.4C16447.1 11637.2 16657.3 11744.5 16608.3 11787.1Z" fill="#F5F5F5"/>
<path d="M16185 11704.4L16204.5 11725.1L16140.5 11710.9L16121.4 11691C16062.7 11677.7 16004.9 11661.1 15948 11641.2L15962.2 11626.6C16006.9 11642.7 16052.5 11656.2 16098.7 11667.1L16070 11636.8C15994.2 11616.1 15907.9 11591.8 15883.6 11565.5C15865 11546.4 15898.6 11540.4 15996.7 11559.4L15977.6 11539.1L16041.6 11553.3L16060.7 11573.2C16109.7 11584.9 16159.9 11598.7 16201.2 11613.7L16190.3 11629.1C16152.6 11616.5 16116.6 11606.4 16083.3 11598.3L16112.9 11629.1C16188.3 11649.7 16274.9 11673.6 16297.6 11699.1C16315.5 11717.4 16284.3 11723 16185 11704.4ZM16044.5 11609.6L16019.7 11583.7C15988.1 11578.4 15979.2 11580.9 15985.3 11586.9C16003.5 11598 16023.5 11605.6 16044.5 11609.6ZM16196.4 11678.1C16178.6 11667.1 16158.9 11659.5 16138.4 11655.4L16162.3 11680.5C16192.3 11685.4 16203.2 11683.8 16196.4 11678.1Z" fill="#EBEBEB"/>
<path d="M17056.3 11212.6L17045 11218.3C16847.1 11315.7 16640.9 11395.1 16428.9 11455.7C16281.8 11493 16213 11481.2 16087.4 11459.3C16063.1 11455.3 16036.8 11450.4 16006.4 11446C15933 11430.7 15860.7 11410.5 15790.1 11385.6C15630.9 11334.2 15432.8 11270.6 15234.7 11264.1H15231.1C15225.4 11264.1 14679.7 11217.5 14237.4 11573.6L14210.7 11594.6L15157.7 12167.8L15170.7 12156.1C15176 12151.2 15683.9 11692.3 16370.5 11865.2C16451.6 11885.5 16527.3 11905.7 16598.2 11924.4C17154.8 12071.4 17433.9 12145.1 17992.9 11809.3L18027.3 11788.7L17056.3 11212.6ZM16610.8 11876.6C16539.9 11857.5 16464.1 11836.1 16382.7 11817C15915.6 11699.6 15528.8 11864 15316.1 11992.4C15268.9 11963.3 15213.5 11950.3 15158.3 11955.4C15103 11960.5 15050.9 11983.5 15009.9 12020.8L14456.1 11685.4C14563.1 11592.2 14500.7 11511.6 14464.2 11478.4C14699.8 11356 14963.4 11297.7 15228.6 11309.5C15423.1 11315.1 15619.5 11377.9 15777.1 11428.6C15850.1 11454.4 15924.8 11475.1 16000.7 11490.5L16081.7 11503.9C16209.3 11526.2 16286.3 11539.5 16443.1 11499.8C16601.3 11456.2 16756.1 11400.8 16906.1 11334.2C16946.6 11368.6 17049.9 11433.4 17205 11355.6L17770.1 11689.8C17729.6 11710.1 17664.4 11761.9 17765.2 11875.8C17349.2 12072.2 17081.1 12001.7 16608.3 11877.4L16610.8 11876.6Z" fill="#F5F5F5"/>
<path d="M4536.91 6387.72C4536.91 6387.72 4526.78 5423.23 5764.71 4969.94C5811.99 4953.25 5857.46 4931.81 5900.41 4905.94C6024.35 4835.76 6127.06 4733.47 6197.74 4609.82C6315.22 4379.74 6481.3 4050 6481.3 4050L7685.6 3827.61C7685.6 3827.61 7564.08 4361.1 7259.46 4662.48C6954.84 4963.86 6342.76 5031.51 6051.91 5444.29C5899.69 5649.08 5814.76 5896.06 5808.86 6151.16L4536.91 6387.72Z" fill="#EBEBEB"/>
<path d="M6559.07 4840.31C6551.38 4903.51 6310.35 5061.49 6021.13 5193.55C5731.9 5325.6 5504.24 5381.5 5511.94 5318.31C5519.64 5255.12 5760.66 5096.73 6049.89 4965.08C6339.12 4833.43 6566.77 4777.12 6559.07 4840.31Z" fill="#F5F5F5"/>
<path d="M6184.37 5057.44L6212.73 5060.27L6155.21 5091.46L6127.66 5089.03C6074.99 5117.29 6020.91 5142.85 5965.63 5165.59V5145.34C6009.71 5127.76 6052.85 5107.88 6094.85 5085.79L6054.34 5081.74C5983.45 5116.17 5902.84 5154.25 5867.19 5150.61C5840.46 5148.18 5861.93 5121.85 5948.21 5071.62L5920.26 5069.18L5977.78 5037.59L6004.92 5040.02C6049.89 5016.52 6096.88 4994.25 6137.38 4977.64V4996.27C6100.52 5011.66 6066.49 5027.87 6036.11 5043.26L6078.65 5047.31C6149.13 5013.28 6228.53 4975.61 6264.17 4978.85C6291.31 4981.69 6270.25 5007.61 6184.37 5057.44ZM6016.26 5078.1L5980.62 5074.86C5953.07 5091.87 5948.21 5099.16 5956.72 5099.97C5977.68 5096.15 5997.82 5088.75 6016.26 5078.1ZM6175.46 5029.89C6154.83 5033.52 6134.96 5040.65 6116.72 5050.96L6151.56 5054.2C6177.49 5038.4 6183.56 5030.7 6175.46 5029.89Z" fill="#EBEBEB"/>
<path d="M6518.97 4114.81L6514.11 4126.56C6428.25 4329.39 6324.55 4524.19 6204.22 4708.66C6117.94 4833.43 6057.99 4870.7 5949.02 4935.91L5879.75 4976.42C5814.49 5013.09 5746.82 5045.3 5677.21 5072.83C5523.28 5138.86 5332.49 5221.09 5178.96 5346.67L5175.32 5349.5C5170.86 5352.74 4729.73 5676.4 4629.27 6235.41L4623.19 6269.04L5711.64 6081.08L5713.67 6063.25C5713.67 6056.37 5794.69 5376.64 6427.02 5055.82C6501.96 5017.74 6572.04 4983.31 6637.66 4950.9C7155.35 4696.11 7412.99 4569.32 7615.53 3947.92L7628.08 3910.25L6518.97 4114.81ZM6618.22 4908.37C6552.59 4940.77 6482.11 4975.61 6407.57 5013.69C5978.19 5232.03 5794.28 5609.97 5718.94 5846.54C5664.19 5855.5 5613.86 5882.05 5575.56 5922.18C5537.26 5962.31 5513.08 6013.82 5506.67 6068.93L4868.67 6179.92C4888.11 6039.76 4787.65 6019.91 4739.04 6017.88C4835.99 5770.81 4996.4 5553.67 5204.08 5388.39C5354.36 5264.84 5543.54 5183.01 5695.85 5117.79C5767.89 5089.34 5837.87 5055.91 5905.27 5017.74C5930.39 5001.94 5953.07 4988.17 5974.14 4977.23C6084.72 4909.99 6151.56 4869.48 6243.52 4736.61C6335.26 4599.41 6416.51 4455.46 6486.56 4306.01C6538.82 4306.01 6660.34 4286.16 6725.97 4125.75L7372.48 4005.85C7353.84 4046.36 7340.07 4127.37 7490.76 4149.25C7303.61 4569.32 7055.3 4692.86 6618.22 4908.37Z" fill="#F5F5F5"/>
<path d="M13505 2193.51C13505 2193.51 14096.8 1430.75 15346.9 1843.93C15394.3 1859.93 15443.1 1871.33 15492.7 1877.96C15634 1899.15 15778.4 1881.94 15910.8 1828.13C16145.3 1720.38 16477.9 1563.61 16477.9 1563.61L17560.7 2136.4C17560.7 2136.4 17134.5 2479.1 16710 2526.9C16285.5 2574.7 15762.1 2247.8 15278 2390.79C15031.2 2457.25 14811 2598.8 14648.1 2795.87L13505 2193.51Z" fill="#EBEBEB"/>
<path d="M16050.5 2233.21C16005.2 2277.77 15718 2252.66 15409.3 2176.91C15100.6 2101.16 14887.1 2003.53 14932.5 1958.97C14977.9 1914.41 15264.7 1939.53 15573.3 2015.28C15882 2091.03 16095.9 2188.65 16050.5 2233.21Z" fill="#F5F5F5"/>
<path d="M15622 2171.24L15642.2 2190.68L15577.8 2179.34L15558 2160.3C15498.6 2150.22 15439.9 2136.7 15382.1 2119.79L15395.5 2104.8C15436 2116.55 15486.3 2129.11 15534.1 2138.42L15503.7 2109.26C15427.1 2092.24 15341.6 2072.4 15314.1 2047.28C15294.6 2029.05 15327.9 2021.35 15427.1 2035.94L15406.9 2016.49L15471.3 2027.43L15491.1 2046.47C15540.9 2055.79 15591.6 2067.13 15633.7 2079.28L15623.6 2095.48C15585.5 2084.55 15548.6 2076.04 15515.4 2069.56L15546.2 2099.13C15622.8 2115.74 15708.2 2135.59 15733.8 2160.3C15752.8 2179.34 15720 2185.41 15622 2171.24ZM15476.9 2083.33L15451 2058.62C15419 2054.98 15410.5 2058.62 15416.6 2063.48C15435.4 2073.44 15455.8 2080.15 15476.9 2083.33ZM15632.1 2144.09C15613.6 2134.22 15593.6 2127.51 15572.9 2124.25L15598.1 2148.15C15628.4 2151.79 15636.1 2149.77 15632.1 2144.09Z" fill="#EBEBEB"/>
<path d="M16468.6 1639.36L16457.6 1645.44C16264.5 1751.22 16062.4 1839.73 15853.7 1909.96C15708.2 1954.11 15639 1945.6 15512.6 1929.81L15431.6 1920.08C15357.5 1908.47 15284.3 1891.82 15212.4 1870.26C15050.4 1826.51 14849.9 1772.64 14651.8 1775.88H14646.9C14641.3 1775.88 14094.4 1755.62 13669.1 2132.35L13643.9 2154.63L14616.1 2681.23L14628.7 2668.67C14633.6 2663.81 15119.2 2182.58 15813.2 2320.71C15894.2 2337.32 15971.9 2353.52 16043.6 2368.91C16606.3 2490.44 16888.6 2549.58 17431 2187.44L17464.3 2165.16L16468.6 1639.36ZM16054.6 2323.55C15982.9 2308.15 15906.3 2291.54 15824.1 2274.94C15352.6 2179.34 14973 2362.84 14766.8 2503.4C14718.4 2476.02 14662.4 2465.15 14607.3 2472.46C14552.2 2479.77 14501 2504.86 14461.4 2543.91L13894.3 2235.24C13996.4 2137.21 13929.9 2059.84 13892.3 2028.24C14121.7 1894.72 14382.3 1823.89 14647.7 1822.86C14842.2 1819.22 15041.1 1872.28 15201.1 1915.63C15275.3 1937.9 15351 1955.09 15427.5 1967.07L15508.5 1976.39C15628.6 2000.17 15752.7 1992.78 15869.1 1954.92C16025.5 1904.19 16177.8 1841.63 16324.8 1767.77C16365.3 1799.78 16473.4 1859.73 16624.5 1775.07L17204.6 2081.71C17164.1 2103.59 17102.9 2158.68 17208.7 2267.64C16802 2483.15 16531.4 2425.22 16054.6 2323.55Z" fill="#F5F5F5"/>
<path d="M18261.1 18171.1C18261.1 18176.8 14437.5 18181.7 9722.35 18181.7C5007.21 18181.7 1182.84 18176.8 1182.84 18171.1C1182.84 18165.5 5005.59 18160.6 9722.35 18160.6C14439.1 18160.6 18261.1 18165.5 18261.1 18171.1Z" fill="#263238"/>
<path d="M17469.1 9528.72L17494.6 9571.26C17523.7 9619.15 17565.8 9657.68 17616.2 9682.25L17660.7 9704.12L17618.2 9729.64C17570.3 9758.66 17531.8 9800.84 17507.2 9851.17L17485.3 9895.73L17459.8 9855.22C17430.8 9807.32 17388.6 9768.79 17338.3 9744.23L17293.7 9722.35L17336.3 9696.83C17384.2 9667.82 17422.7 9625.63 17447.2 9575.31L17469.1 9528.72Z" fill="#377DE6"/>
<path d="M5122.66 17446.4L5147.37 17486.9C5175.2 17533.2 5215.67 17570.6 5264.03 17594.7L5307.37 17615.8L5266.87 17640.5C5220.66 17668.5 5183.42 17709.1 5159.52 17757.5L5138.05 17800.5L5113.34 17760C5085.45 17713.8 5044.98 17676.6 4996.68 17652.6L4953.33 17631.2L4993.84 17606.4C5039.99 17578.4 5077.34 17538 5101.59 17489.8L5122.66 17446.4Z" fill="#377DE6"/>
<path d="M2638.29 3956.83L2682.85 4030.96C2732.91 4114.09 2805.72 4181.14 2892.68 4224.19L2970.05 4264.69L2896.33 4309.25C2813.03 4359.09 2745.92 4431.96 2703.11 4519.08L2662.6 4596.46L2618.04 4522.33C2569.06 4438.35 2496.91 4370.28 2410.23 4326.27L2332.86 4285.76L2406.99 4241.2C2490 4191.18 2557.03 4118.53 2600.22 4031.77L2638.29 3956.83Z" fill="#377DE6"/>
<path d="M11585.3 1363.91L11629.9 1438.04C11679.8 1521.25 11752.7 1588.33 11839.7 1631.26L11917.1 1671.77L11843 1716.33C11759.7 1766.28 11692.7 1839.12 11649.7 1926.16L11611.7 2003.53L11567.1 1929.4C11517.3 1845.46 11444.5 1777.56 11357.3 1733.75L11279.5 1693.24L11353.6 1648.68C11436.8 1598.73 11503.9 1525.89 11546.8 1438.85L11585.3 1363.91Z" fill="#377DE6"/>
<path d="M18350.2 7867.89L18367.6 7896.65C18386.8 7929.19 18414.9 7955.6 18448.6 7972.81L18479 7987.79L18449.8 8005.62C18417.3 8024.83 18390.8 8052.94 18373.7 8086.63L18358.7 8117.42L18341.3 8088.25C18322 8055.71 18293.9 8029.3 18260.2 8012.1L18229.9 7997.11L18259 7979.69C18291.5 7960.32 18317.9 7932.26 18335.2 7898.68L18350.2 7867.89Z" fill="#377DE6"/>
<path d="M3430.63 7699.38L3448.86 7729.35C3468.96 7763.27 3498.53 7790.58 3533.93 7807.94L3565.52 7823.33L3535.14 7841.56C3501.49 7861.87 3474.36 7891.39 3456.96 7926.63L3441.16 7958.22L3423.34 7927.84C3403.03 7894.19 3373.51 7867.06 3338.27 7849.66L3306.68 7834.27L3336.65 7816.04C3370.57 7795.94 3397.88 7766.37 3415.24 7730.97L3430.63 7699.38Z" fill="#377DE6"/>
<path d="M6518.16 2432.92L6536.39 2462.89C6556.79 2496.56 6586.28 2523.8 6621.46 2541.48L6652.65 2556.87L6622.67 2575.1C6589.02 2595.41 6561.89 2624.93 6544.49 2660.17L6528.69 2691.36L6510.87 2661.38C6490.24 2628.15 6460.6 2601.47 6425.4 2584.42L6394.21 2568.62L6424.18 2550.8C6458.21 2529.57 6485.47 2499.08 6502.77 2462.89L6518.16 2432.92Z" fill="#377DE6"/>
<path d="M13545.5 11793.1C13545.5 11836.5 13806.8 12989.7 13806.8 12989.7C13806.8 12989.7 14350.8 12619.9 14557.4 12445.7C14764 12271.5 15764.9 11347.1 15764.9 11347.1L16365.3 11901.3C16365.3 11901.3 14380.4 14601.1 13677.6 14763.6C13316.6 14846.6 12916.4 14574 12838.6 14381.2C12663.2 13951 12395.5 12117.6 12395.5 12117.6L12784.8 11945.4L13545.5 11793.1Z" fill="#BA7E6D"/>
<path d="M13829.9 12992.2C13787.8 12999 13746.4 13009.9 13706.3 13024.6C13612.6 13067.1 13533.9 13136.8 13480.3 13224.7C13428.3 13314 13388.9 13410.1 13363.2 13510.3C13353.5 13552.4 13340.8 13593.9 13325.1 13634.2C13328.7 13590.9 13336.4 13548 13348.2 13506.2C13370 13403 13408.3 13303.9 13461.7 13212.9C13517.4 13121.4 13601.2 13050.4 13700.7 13010.4C13730.8 12999.1 13762.5 12992.4 13794.6 12990.5C13806.4 12988.9 13818.3 12989.5 13829.9 12992.2Z" fill="#875149"/>
<path d="M15606.2 11493.8C15606.2 11493.8 16153 10881.3 16373.8 10898.7C16594.6 10916.1 16911.7 10963.9 17000 10948.9C17111.6 10941.1 17223.5 10941.1 17335 10948.9C17335 10948.9 17908.2 10638.6 18014 10663C18014 10663 18112.4 10657.7 18146.4 10713.6C18146.4 10713.6 18364.4 10575.5 18521.5 10661.3L17950.4 11137.3L18124.5 11115.4C18124.5 11115.4 18637.8 10844 18800.2 11030.8L18412.6 11239C18412.6 11239 18734.6 11234.1 18783.2 11365L18061.8 11480.8C18061.8 11480.8 16691 11595.4 16618.5 11627C16545.9 11658.6 16255.9 12032.1 16255.9 12032.1L15606.2 11493.8Z" fill="#BA7E6D"/>
<path d="M18154.1 10716.4C18144.1 10729 18132.5 10740.3 18119.7 10750C18096.6 10770.3 18062.6 10799.1 18018.8 10831.1C17905.2 10919.1 17786 10999.6 17661.9 11072.1C17592.7 11112.6 17527.1 11149.5 17463 11179C17406 11209.5 17339.8 11218.4 17276.7 11204.1L17286.8 11198.5C17279.1 11222.5 17265.8 11244.4 17248.1 11262.4C17230.4 11280.4 17208.7 11294 17184.8 11302.2C17171.7 11306.6 17158 11309.1 17144.2 11309.5C17134.9 11309.5 17130.5 11309.5 17130.5 11309.5C17147.5 11305.8 17164.3 11301 17180.7 11295.3C17202 11286.3 17221.1 11272.7 17236.6 11255.4C17252.1 11238.2 17263.5 11217.8 17270.2 11195.6L17272.7 11187.5L17280.4 11190C17339.6 11201.3 17401 11191.4 17453.7 11162C17515.3 11132.4 17581.7 11094.4 17649.8 11054.7C17794.4 10970.4 17919.6 10884.5 18008.7 10820.1L18113.6 10743.2C18126 10732.7 18139.6 10723.8 18154.1 10716.4Z" fill="#875149"/>
<path d="M17950.4 11148.2C17928.7 11172.6 17902.7 11192.7 17873.8 11207.8C17806.8 11248.6 17732.9 11277.2 17655.9 11292C17610.5 11301 17566.7 11302.6 17529.1 11309.5C17495.8 11315.9 17463.7 11327.4 17433.9 11343.5C17406.2 11361.5 17373.7 11370.8 17340.7 11370.2C17370.2 11358.6 17398.9 11345.1 17426.6 11329.7C17457 11310.8 17490.4 11297.1 17525.4 11289.2C17565.9 11280.7 17606.4 11278.7 17651.4 11269.8C17757 11245.6 17857.9 11204.6 17950.4 11148.2Z" fill="#875149"/>
<path d="M18442.5 11198.1C18419.8 11221.8 18393.5 11242.1 18364.8 11258C18229.7 11342.2 18074.6 11389 17915.5 11393.7C17882.7 11396.4 17849.6 11394.1 17817.5 11386.8C17927 11380.2 18035.5 11362.7 18141.6 11334.6C18317.8 11282.7 18438.5 11191.6 18442.5 11198.1Z" fill="#875149"/>
<path d="M7405.69 15060.9C6813.87 15982.1 6126.85 17134.5 5708.4 18172.8H12837.8L11987.2 15060.9H7405.69Z" fill="#263238"/>
<path d="M2991.12 11691C2991.12 11691 3494.64 12429.5 3665.58 12622.7C3836.52 12816 4556.76 13848.9 4931.46 14262.5C5306.16 14676.1 5714.88 14903.7 5979.4 14903.7C6250.81 14903.7 6525.45 14811 6740.96 14305C7052.06 13575.9 7314.15 11429 7314.15 11429L6098.9 10983.4L5657.36 13206.5C5538.67 13088.2 3665.98 11343.1 3665.98 11343.1L3236.6 11521.3L2991.12 11691Z" fill="#BA7E6D"/>
<path d="M1429.13 10781.2C1429.13 10781.2 1457.89 10729.8 1617.89 10752.9C1777.9 10776 2058.62 10941.6 2121.41 10941.6C2184.2 10941.6 2887.82 10964.3 3025.15 10998.8C3162.47 11033.2 3375.95 11053.9 3501.52 11185.1L3704.06 11365.8L3024.74 11739.3C2999.35 11705.4 2966.63 11677.7 2929.03 11658.3C2891.43 11638.8 2849.93 11628.2 2807.62 11627C2653.28 11617.7 1944.39 11582.1 1944.39 11582.1L1395.1 11455.7L697.145 11118.3C713.007 11080.2 741.772 11049 778.376 11030.2C814.98 11011.3 857.077 11005.9 897.255 11015C1040.25 11049.4 1309.22 11146.6 1309.22 11146.6L1543.76 11218.3L926.015 10923.4C966.007 10882.6 1016.78 10853.9 1072.44 10840.8C1128.09 10827.6 1186.32 10830.6 1240.36 10849.3C1434.8 10912.1 1766.96 11060.7 1766.96 11060.7L1812.74 11043.7L1429.13 10781.2Z" fill="#BA7E6D"/>
<path d="M2201.21 11187.5C2129.82 11193.1 2058.14 11181.4 1992.19 11153.5C1923.78 11132 1861.55 11094.3 1810.71 11043.7C1814.36 11038.5 1891.73 11094.8 1999.08 11134.1C2106.42 11173.4 2201.62 11181.5 2201.21 11187.5Z" fill="#875149"/>
<path d="M2071.99 11364.6C2042.19 11371.8 2011.4 11374.2 1980.85 11371.4C1832.24 11367.8 1687.54 11323.1 1562.8 11242.2C1536.1 11227 1511.91 11207.7 1491.1 11185.1C1578.83 11238.5 1671.98 11282.3 1768.99 11315.9C1867.97 11342.9 1969.55 11359.2 2071.99 11364.6Z" fill="#875149"/>
<path d="M847.43 11192.4C823.238 11204 802.972 11222.4 789.146 11245.3C775.32 11268.3 768.543 11294.8 769.655 11321.6C1001.65 11397.5 1239.98 11452.4 1481.79 11485.7" fill="#875149"/>
<path d="M6085.94 14144.2C6081.48 14144.2 6089.99 14082.6 6083.51 13982.2C6079.72 13924.6 6071.18 13867.4 6057.99 13811.2C6041.16 13742.7 6018.11 13675.9 5989.12 13611.5C5959.24 13547.6 5923.44 13486.5 5882.18 13429.3C5848.17 13382.6 5810.37 13338.8 5769.16 13298.4C5698.28 13229.5 5647.64 13195.9 5647.64 13192.7C5661.11 13198.3 5673.78 13205.6 5685.31 13214.6C5699.58 13223.5 5713.13 13233.5 5725.82 13244.5C5741.21 13257.1 5759.85 13270.5 5777.67 13287.9C5820.99 13327.5 5860.58 13371 5895.96 13417.9C5982.94 13533.3 6044.01 13666.1 6075 13807.2C6087.47 13864.6 6094.66 13923.1 6096.47 13981.8C6097.7 14004.2 6097.7 14026.6 6096.47 14049C6096.27 14066 6094.78 14082.9 6092.01 14099.7C6091.84 14114.7 6089.8 14129.7 6085.94 14144.2Z" fill="#875149"/>
<path d="M7247.71 8830.36C7079.6 8934.07 6691.13 9248.81 6289.29 10099.5C5754.18 11230.9 5615.23 11936.9 5615.23 11936.9L7037.47 12444.9L7468.48 8723.83C7468.48 8723.83 7303.21 8796.34 7247.71 8830.36Z" fill="#455A64"/>
<path d="M6939.04 10015.6C6939.04 10015.6 6972.66 11216.3 6972.66 11542.4C6972.66 11868.5 7118.49 14320.8 7118.49 14320.8C7118.49 14320.8 7118.49 15127.8 7619.58 15115.2C8120.66 15102.6 8977.41 15199.9 9316.46 15199.9C9566.4 15199.9 10987 15216.5 11734.8 15149.6C12089.2 15118 12225.8 14945.1 12335.1 14663.5C12349.7 14625.5 12340.8 14647.7 12349.7 14625.5C12564 14098.8 12398.3 11845.4 12398.3 11845.4L12133 9808.23L11528.6 8606.35L8105.27 8595.42C7007.9 8670.76 7007.9 9121.21 6939.04 10015.6Z" fill="#455A64"/>
<path d="M12959.8 9592.32C12395.9 8656.58 11528.6 8607.97 11528.6 8607.97L12040.6 12827.7L12445.7 12715.1C12475.7 12705 13964.8 12111.1 13964.8 12111.1C13964.8 12111.1 13306.5 10166.7 12959.8 9592.32Z" fill="#455A64"/>
<path d="M11955.2 9893.7C11955.2 9893.7 11957.2 9896.13 11960.4 9901.81C11963.7 9907.48 11968.1 9916.79 11973 9926.92C11983.5 9948.79 12000.5 9981.2 12019.6 10024.1C12060.1 10109.2 12110.3 10235.2 12164.2 10394C12300.3 10809.6 12388.1 11239.5 12425.9 11675.3C12463.5 12110.3 12477 12547.1 12466.4 12983.7C12463.5 13151 12459.5 13286.3 12456.2 13379.8C12456.2 13425.2 12453 13460.8 12452.2 13487.6C12452.2 13498.9 12452.2 13508.2 12452.2 13515.9C12452.6 13519 12452.6 13522.2 12452.2 13525.3C12451.8 13522 12451.8 13518.8 12452.2 13515.5V13487.6C12452.2 13461.3 12452.2 13425.2 12452.2 13379.8C12452.2 13284.2 12452.2 13149.3 12455.4 12983.3C12462 12547.4 12446.8 12111.6 12409.7 11677.3C12371.8 11242.9 12286.4 10814.1 12154.9 10398.4C12103 10239.6 12053.6 10114.9 12016.7 10027.4C11999.3 9984.04 11983.5 9951.22 11976.2 9928.54L11965.3 9902.61C11961.6 9900 11958.2 9897.01 11955.2 9893.7Z" fill="#263238"/>
<g opacity="0.3">
<path d="M9465.12 12680.7C9645.23 12500.2 9864.93 12364.3 10106.8 12283.7C10426.8 12180.4 11374.7 11982.7 11626.2 11890.3C11903.6 11788 12156.3 11628.5 12367.9 11422.1L13480.7 12335.9C13287.4 12509.2 13075.2 12660.1 12848 12785.6C12489.9 12978 11607.2 12978.8 11132 13264C10824.2 13448.7 10425.6 13989.5 10425.6 13989.5L9465.12 12680.7Z" fill="black"/>
</g>
<g opacity="0.3">
<path d="M10996.7 17625.9C10742.6 17605.5 10496.7 17526.2 10278.5 17394.2C9992.14 17217.6 9227.75 16624.5 8994.42 16492.1C8732.53 16345.3 8449.77 16239.5 8155.9 16178.1L8132 14790.7C8389.14 14825.5 8641.5 14889.4 8884.24 14981.1C9262.99 15129.4 9835.37 15801 10360.8 15978.4C10700.6 16093.1 11371 16046.1 11371 16046.1L10996.7 17625.9Z" fill="black"/>
</g>
<g opacity="0.3">
<path d="M6021.53 10668.2C6305.09 10763.8 6663.99 10601.4 6845.87 10363.6C7027.75 10125.8 7205.58 9821.19 7248.93 9525.08C7041.12 9525.08 6758.78 9540.47 6550.97 9540.07L6021.53 10668.2Z" fill="black"/>
</g>
<path d="M7007.9 10994.7C7009.76 11005.7 7010.57 11016.8 7010.33 11027.9L7013.98 11123.5C7016.41 11208.6 7019.65 11328.5 7023.7 11475.5C7031.8 11774.1 7042.74 12183.6 7054.49 12636.1C7066.23 13088.6 7082.03 13499.3 7095 13796.3C7102.29 13943.3 7107.96 14062.8 7112.01 14147.9C7112.01 14188.4 7115.25 14219.6 7116.46 14243.5C7117.09 14254.5 7117.09 14265.6 7116.46 14276.7C7113.87 14265.8 7112.38 14254.7 7112.01 14243.5C7109.58 14220 7106.74 14188 7103.5 14148.3C7095.81 14067.3 7088.51 13945.7 7079.6 13797.1C7062.59 13500.1 7045.98 13089.8 7032.61 12636.5C7019.25 12183.2 7011.95 11772.9 7007.9 11475.5C7007.9 11328.5 7005.88 11209 7005.07 11123.5C7005.07 11083 7005.07 11051.8 7005.07 11027.9C7005.04 11016.8 7005.99 11005.7 7007.9 10994.7Z" fill="#263238"/>
<g opacity="0.3">
<path d="M7045.17 13505.4C6674.93 12670.9 6730.02 11739.3 7007.9 10868.3C7048.41 11717 7067.04 12656 7046.38 13505.4" fill="black"/>
</g>
<path d="M11463.8 4597.27C11416.8 4446.03 11340.3 4305.64 11238.6 4184.22C11137 4062.81 11012.2 3962.8 10871.6 3889.99C10562.5 3732.42 10193.9 3719.05 9855.62 3796.83C9517.38 3874.6 9205.06 4037.85 8909.76 4220.14C8744.08 4322.22 8579.21 4434.02 8464.17 4589.97C8251.1 4873.53 8045.72 5337.35 8034.38 5692.61C8025.47 5979.81 8155.9 6694.37 8284.31 6951.19C8330.09 7042.74 8437.43 7123.35 8567.87 7191.41C8706.15 7445.84 8888.74 7673.56 9107.03 7863.84C9167.79 7669.4 9228.69 7474.96 9289.72 7280.52L11463.8 4597.27Z" fill="#263238"/>
<path d="M11286.4 4248.49L10719.3 4163.42C11049 4890.14 11181.1 6570.01 11379.9 7342.91C11579.7 7034.64 12037 6100.52 12000.5 5735.14C11964.1 5369.76 11956 4166.66 11286.4 4248.49Z" fill="#263238"/>
<path d="M8642.41 5549.21C8660.63 5118.6 8928.8 4758.08 9343.2 4639.8L10635 4270.77C11195.6 4193.8 11590.6 4875.15 11643.7 5438.21C11702.4 6064.06 11746.5 6725.16 11686.6 7195.46C11565.1 8140.91 10848.9 8283.1 10848.9 8283.1C10848.9 8283.1 10861.4 8728.69 10868.7 9005.36L10102.3 10605L8911.78 8688.18L8640.78 5560.95C8638.35 5544.75 8641.6 5570.67 8642.41 5549.21Z" fill="#BA7E6D"/>
<path d="M11283.5 6129.28C11284.7 6160.72 11273.6 6191.37 11252.6 6214.79C11231.6 6238.21 11202.3 6252.57 11170.9 6254.86C11155.6 6256.54 11140.1 6255.14 11125.3 6250.75C11110.5 6246.36 11096.8 6239.07 11084.9 6229.3C11073 6219.53 11063.1 6207.47 11055.9 6193.85C11048.7 6180.22 11044.3 6165.3 11042.9 6149.94C11041.8 6118.51 11052.9 6087.86 11073.9 6064.44C11094.9 6041.02 11124.2 6026.65 11155.5 6024.37C11170.9 6022.69 11186.4 6024.09 11201.1 6028.48C11215.9 6032.87 11229.7 6040.16 11241.6 6049.93C11253.5 6059.7 11263.3 6071.75 11270.6 6085.38C11277.8 6099 11282.2 6113.93 11283.5 6129.28Z" fill="#263238"/>
<path d="M11512.8 5810.89C11498.6 5827.09 11405.1 5762.28 11275 5766.73C11145 5771.19 11052.2 5838.84 11037.7 5823.45C11030.4 5816.56 11044.9 5787.8 11085.5 5756.2C11140.4 5715.51 11206.7 5692.86 11275 5691.39C11342.5 5688.98 11408.9 5708.29 11464.6 5746.48C11504.3 5775.65 11520.1 5803.6 11512.8 5810.89Z" fill="#263238"/>
<path d="M10162.3 6129.69C10163.3 6161.06 10152.1 6191.6 10131.2 6214.94C10110.2 6238.27 10081 6252.57 10049.7 6254.86C10034.3 6256.54 10018.8 6255.14 10004.1 6250.75C9989.28 6246.36 9975.53 6239.07 9963.61 6229.3C9951.69 6219.53 9941.84 6207.47 9934.64 6193.85C9927.43 6180.22 9923.02 6165.3 9921.65 6149.94C9920.52 6118.51 9931.62 6087.86 9952.63 6064.44C9973.63 6041.02 10002.9 6026.65 10034.3 6024.37C10049.6 6022.69 10065.2 6024.1 10080 6028.52C10094.8 6032.93 10108.5 6040.26 10120.4 6050.07C10132.4 6059.89 10142.2 6071.98 10149.4 6085.66C10156.6 6099.33 10161 6114.3 10162.3 6129.69Z" fill="#263238"/>
<path d="M10279.7 5846.13C10265.2 5862.33 10171.6 5797.52 10042 5801.98C9912.33 5806.43 9818.76 5874.08 9804.18 5858.69C9797.29 5851.8 9811.47 5823.04 9851.98 5791.44C9906.98 5750.82 9973.19 5728.18 10041.6 5726.63C10109.1 5724.3 10175.6 5743.44 10231.5 5781.32C10272.5 5810.89 10286.6 5838.84 10279.7 5846.13Z" fill="#263238"/>
<path d="M10714.8 6854.38C10714.8 6847.09 10795.8 6830.88 10924.6 6809.82C10957.4 6805.36 10988.6 6798.07 10993.5 6775.39C10995.5 6741.03 10986.7 6706.91 10968.4 6677.76L10862.7 6428.23C10715.6 6072.98 10607.9 5780.1 10622 5774.43C10636.2 5768.76 10767.5 6051.91 10914.5 6407.17L11016.6 6658.32C11038.5 6697.77 11045.9 6743.6 11037.7 6787.94C11033.2 6799.79 11026.1 6810.47 11016.9 6819.18C11007.7 6827.88 10996.7 6834.38 10984.6 6838.17C10966.5 6843.84 10947.7 6846.98 10928.7 6847.49C10797 6858.83 10715.6 6862.07 10714.8 6854.38Z" fill="#263238"/>
<path d="M9591.11 7983.74C9591.11 7983.74 9915.17 8621.34 10855 8504.27L10848.9 8283.1C10410 8301.68 9974.57 8198.04 9591.11 7983.74Z" fill="#875149"/>
<path d="M10225.5 5379.48C10213.7 5415.12 10083.7 5402.16 9931.78 5425.25C9779.87 5448.34 9658.35 5493.71 9636.88 5462.52C9627.56 5447.94 9647.82 5413.91 9696.43 5378.26C9761.48 5334.4 9835.64 5305.88 9913.32 5294.87C9991 5283.85 10070.2 5290.62 10144.9 5314.66C10201.6 5334.51 10230.3 5361.25 10225.5 5379.48Z" fill="#263238"/>
<path d="M11459.3 5415.13C11437.5 5445.1 11346.7 5417.56 11239.4 5419.18C11132 5420.8 11041.3 5445.1 11019.4 5415.13C11009.7 5400.14 11023.1 5370.16 11062 5341C11114.2 5305.33 11176.1 5286.52 11239.4 5287.12C11302.6 5286.43 11364.4 5305.4 11416.4 5341.4C11455.3 5370.16 11469.1 5400.14 11459.3 5415.13Z" fill="#263238"/>
<path d="M11363.3 4586.33C11301.8 4446.17 11144.2 4365.56 10991.5 4362.32C10838.8 4359.08 10690.9 4421.06 10560.9 4501.26C10009.6 4841.13 9743.82 5631.84 9199.8 5982.64C9066.12 6068.93 8886.67 5998.44 8773.65 6111.05C8660.63 6223.67 8590.96 6400.28 8659.01 6544.09C8576.63 6447.73 8508.43 6340.11 8456.47 6224.48C8431.24 6166.44 8418.66 6103.69 8419.56 6040.41C8420.47 5977.13 8434.85 5914.76 8461.74 5857.47C8507.11 5773.22 8590.15 5707.19 8610.4 5614.43C8628.63 5533.41 8593.8 5447.53 8595.01 5362.87C8602.42 5276.59 8630.19 5193.29 8676.03 5119.82C8881.81 4729.73 9170.63 4374.47 9548.57 4147.63C9795.76 3995.39 10079.8 3913.46 10370.1 3910.65C10660.9 3909.21 10942.6 4011.8 11164.4 4199.88C11291.6 4312.09 11425.3 4427.54 11367 4586.33" fill="#263238"/>
<path d="M8790.26 6227.31C8779.73 6200.58 8283.91 6037.33 8292.01 6559.48C8300.11 7066.64 8808.89 6952 8809.3 6937.42C8809.7 6922.84 8790.26 6227.31 8790.26 6227.31Z" fill="#BA7E6D"/>
<path d="M8649.7 6748.25C8647.67 6748.25 8641.19 6754.73 8626.2 6762.02C8605.32 6771.26 8581.68 6772.13 8560.17 6764.45C8506.3 6745.82 8459.71 6661.56 8455.26 6570.41C8453.31 6527.03 8460.91 6483.75 8477.54 6443.62C8482 6427.67 8490.26 6413.03 8501.62 6400.96C8512.98 6388.9 8527.09 6379.77 8542.75 6374.36C8552.85 6371.53 8563.61 6372.28 8573.21 6376.49C8582.81 6380.7 8590.66 6388.11 8595.42 6397.45C8602.3 6411.62 8599.47 6421.75 8602.3 6422.56C8605.14 6423.37 8612.83 6414.05 8608.38 6392.99C8605.28 6380.53 8597.98 6369.51 8587.72 6361.8C8573.64 6351.41 8556.01 6347.04 8538.7 6349.65C8517.91 6354.25 8498.64 6364.12 8482.75 6378.3C8466.86 6392.49 8454.89 6410.52 8447.97 6430.66C8427.16 6474.91 8417.56 6523.6 8420.02 6572.44C8425.28 6674.52 8479.56 6769.31 8553.29 6788.75C8567.03 6792.73 8581.5 6793.44 8595.57 6790.84C8609.63 6788.24 8622.89 6782.39 8634.3 6773.77C8648.89 6760.8 8651.72 6749.46 8649.7 6748.25Z" fill="#875149"/>
<path d="M8581.64 5972.52C8592.27 5967.71 8602.32 5961.73 8611.62 5954.69C8630.66 5941.73 8660.23 5924.31 8695.07 5898.39C8792.82 5822.38 8882.17 5736.15 8961.61 5641.16C9078.06 5498.94 9186.26 5350.17 9285.68 5195.57C9405.39 5006.74 9540.9 4828.41 9690.76 4662.48C9770.36 4579.52 9858.79 4505.49 9954.46 4441.71C10044.2 4383.27 10140.8 4336.07 10242.1 4301.15C10413.8 4240.7 10595.3 4213.21 10777.2 4220.13C10899.9 4224.08 11021.6 4244.37 11138.9 4280.49C11179.4 4291.83 11212.2 4305.2 11233.7 4312.49C11244.6 4317.04 11255.8 4320.69 11267.3 4323.43C11257.4 4317.33 11246.8 4312.31 11235.7 4308.44C11205.2 4294.25 11173.8 4282.07 11141.8 4271.98C11024.1 4232.13 10901.3 4209.21 10777.2 4203.93C10592.9 4194.42 10408.6 4220.7 10234.4 4281.3C10131.2 4316.17 10032.8 4363.8 9941.5 4423.08C9844.04 4487.69 9753.98 4562.81 9672.93 4647.09C9522.75 4814.04 9387.22 4993.62 9267.85 5183.82C9169.97 5337.78 9064.1 5486.52 8950.67 5629.41C8873 5724.52 8786.16 5811.76 8691.42 5889.88C8657.39 5917.02 8629.04 5935.65 8610.4 5949.43C8600.21 5956.33 8590.59 5964.05 8581.64 5972.52Z" fill="#455A64"/>
<path d="M8594.61 6839.8C8569.56 6835.87 8543.96 6841.64 8523.02 6855.93C8502.08 6870.21 8487.37 6891.94 8481.89 6916.69C8476.41 6941.44 8480.56 6967.35 8493.51 6989.15C8506.46 7010.94 8527.23 7026.98 8551.59 7034C8575.95 7041.02 8602.07 7038.49 8624.63 7026.93C8647.19 7015.36 8664.5 6995.64 8673.02 6971.77C8681.55 6947.89 8680.66 6921.67 8670.53 6898.43C8660.4 6875.19 8641.8 6856.69 8618.51 6846.68" fill="white"/>
<path d="M8618.51 6846.68C8640.9 6863.38 8657.59 6886.58 8666.31 6913.12C8670.42 6927.03 8670.94 6941.75 8667.83 6955.92C8664.71 6970.09 8658.05 6983.23 8648.48 6994.13C8637.64 7007.91 8622.94 7018.15 8606.25 7023.54C8589.57 7028.94 8571.66 7029.24 8554.8 7024.42C8537.94 7019.59 8522.9 7009.86 8511.6 6996.46C8500.29 6983.06 8493.23 6966.6 8491.31 6949.17C8489.15 6935 8490.53 6920.52 8495.34 6907.01C8500.15 6893.51 8508.23 6881.41 8518.86 6871.8C8540.22 6853.73 8566.72 6842.82 8594.61 6840.61C8594.61 6840.61 8586.91 6835.34 8570.71 6835.74C8556.34 6836.39 8542.25 6839.96 8529.31 6846.23C8516.37 6852.51 8504.84 6861.36 8495.44 6872.24C8486.04 6883.12 8478.95 6895.81 8474.62 6909.52C8470.29 6923.24 8468.8 6937.69 8470.25 6952C8472.25 6973.78 8480.77 6994.44 8494.71 7011.28C8508.65 7028.13 8527.35 7040.38 8548.36 7046.42C8569.37 7052.46 8591.72 7052.01 8612.48 7045.14C8633.23 7038.27 8651.43 7025.29 8664.69 7007.9C8675.93 6994.45 8683.43 6978.26 8686.42 6960.97C8689.41 6943.69 8687.78 6925.92 8681.7 6909.47C8674.55 6887.62 8660.29 6868.8 8641.19 6856C8628.23 6846.28 8618.91 6845.47 8618.51 6846.68Z" fill="#263238"/>
<path d="M8713.3 6112.27C8709.24 6251.21 8706.81 6395.83 8774.46 6517.35C8842.11 6638.88 9005.76 6717.46 9124.05 6645.36C9220.46 6586.62 9245.57 6459.83 9259.75 6347.62C9300.26 6023.56 9311.6 5696.25 9352.92 5372.59L8713.3 6112.27Z" fill="#263238"/>
<path d="M11231.7 4348.55C11231.7 4351.79 11186.7 4341.66 11105.7 4341.25C10990.8 4342.44 10877.4 4366.54 10771.9 4412.14C10699 4442.63 10629.6 4480.93 10564.9 4526.38C10490.9 4579.42 10420 4636.77 10352.7 4698.13C10197.3 4837.55 10059.2 4995.18 9941.5 5167.62C9879.52 5259.98 9825.24 5354.36 9765.7 5442.27C9709.76 5527.97 9643.8 5606.71 9569.23 5676.81C9440.99 5791.94 9300.06 5892.1 9149.16 5975.35C9021.16 6047.46 8914.22 6096.88 8840.49 6134.14L8755.02 6174.65C8745.25 6179.86 8734.92 6183.93 8724.23 6186.8C8732.77 6179.83 8742.16 6173.98 8752.18 6169.39L8835.63 6125.23C8907.73 6087.15 9013.06 6033.28 9139.04 5959.15C9287.05 5874.31 9425.34 5773.52 9551.41 5658.58C9623.9 5589.46 9688.07 5512.1 9742.61 5428.09C9800.94 5340.99 9855.22 5246.21 9917.6 5153.04C10036.6 4978.6 10176.9 4819.66 10335.2 4679.9C10403.6 4618.06 10475.8 4560.69 10551.6 4508.15C10618 4462.6 10689.4 4424.56 10764.2 4394.73C10872.3 4349.83 10988.7 4328.29 11105.7 4331.53C11137.3 4332.36 11168.7 4335.75 11199.7 4341.66C11210.6 4342.77 11221.3 4345.08 11231.7 4348.55Z" fill="#455A64"/>
<path d="M8690.21 5799.55C8676.98 5811.84 8662.29 5822.45 8646.46 5831.14L8520.07 5910.13L8477.54 5936.46C8460.76 5946.85 8441.99 5953.61 8422.45 5956.31C8410.47 5957.97 8398.29 5955.39 8388.02 5949.02C8382.39 5945.47 8377.67 5940.65 8374.22 5934.96C8370.78 5929.26 8368.71 5922.84 8368.17 5916.21C8368.65 5892.81 8376.44 5870.15 8390.45 5851.4C8433.79 5776.86 8481.59 5695.44 8532.63 5608.35L8553.29 5626.58C8504.59 5664.27 8449.79 5693.32 8391.26 5712.45C8333.03 5731.68 8271.89 5740.59 8210.59 5738.78C8194.96 5738.99 8179.38 5736.81 8164.41 5732.3C8155.69 5729.96 8147.56 5725.79 8140.58 5720.06C8133.59 5714.33 8127.91 5707.18 8123.9 5699.09C8120.72 5690.59 8119.72 5681.42 8120.99 5672.44C8122.27 5663.45 8125.77 5654.92 8131.19 5647.64C8139.37 5635.9 8148.73 5625.04 8159.14 5615.24C8223.93 5548.48 8279.76 5473.59 8325.23 5392.44C8365.44 5316.24 8399.97 5237.17 8428.52 5155.87C8426.84 5179.35 8422.08 5202.51 8414.35 5224.74C8396.71 5286.16 8372.82 5345.61 8343.05 5402.16C8298.95 5486.55 8243.32 5564.4 8177.78 5633.46C8159.55 5651.69 8141.32 5673.97 8149.02 5688.56C8156.71 5703.14 8184.66 5711.64 8211.4 5710.83C8328.46 5713.64 8442.91 5676.01 8535.46 5604.3L8594.61 5558.52L8554.1 5622.53L8408.67 5865.58C8397.45 5880.11 8390.56 5897.52 8388.82 5915.81C8388.82 5929.98 8402.19 5938.08 8418.4 5936.46C8450.65 5928.73 8481.16 5914.99 8508.32 5895.96L8638.76 5823.85C8654.94 5813.85 8672.2 5805.7 8690.21 5799.55Z" fill="#455A64"/>
<path d="M10227.5 7107.96C10236.1 7069.16 10257.9 7034.57 10289.3 7010.16C10320.6 6985.75 10359.5 6973.06 10399.2 6974.28C10428.2 6977.29 10456.1 6987.36 10480.3 7003.6C10504.5 7019.84 10524.4 7041.76 10538.2 7067.45C10551.4 7093.43 10559.3 7121.78 10561.5 7150.85C10563.7 7179.92 10560 7209.13 10550.7 7236.77L10548.3 7248.93C10522.1 7278.89 10487.3 7300 10448.7 7309.36C10410 7318.72 10369.4 7315.86 10332.4 7301.18C10296.1 7285.06 10266.1 7257.37 10247.1 7222.42C10228.1 7187.47 10221.2 7147.23 10227.5 7107.96Z" fill="#875149"/>
<path d="M10451.1 7292.27C10451.1 7292.27 10445.8 7306.04 10425.2 7318.2C10395 7335.16 10359.7 7340.5 10325.9 7333.18C10300.7 7327.27 10277.1 7315.75 10256.9 7299.48C10236.7 7283.21 10220.4 7262.61 10209.3 7239.21C10190 7195.23 10184.5 7146.44 10193.6 7099.29C10202.6 7052.13 10225.7 7008.83 10259.9 6975.09C10272.3 6963.75 10287.2 6955.43 10303.3 6950.8C10319.5 6946.16 10336.5 6945.32 10353.1 6948.36C10400.5 6962.61 10444.3 6987.24 10481.1 7020.46C10544.7 7068.67 10582.3 7101.48 10579.1 7105.53C10575.9 7109.58 10532.1 7086.9 10464.1 7045.17C10429 7018.68 10389.3 6998.91 10347 6986.84C10336.3 6985.12 10325.3 6985.95 10314.9 6989.26C10304.6 6992.57 10295.2 6998.26 10287.4 7005.88C10269.6 7024.92 10255.8 7047.38 10246.9 7071.91C10236.7 7095.64 10231.4 7121.21 10231.4 7147.05C10231.4 7172.89 10236.7 7198.46 10246.9 7222.19C10255.1 7241.25 10267.2 7258.34 10282.5 7272.32C10297.8 7286.29 10315.9 7296.83 10335.6 7303.21C10363.5 7311.92 10393.3 7311.92 10421.1 7303.21C10438.1 7297.13 10448.7 7289.84 10451.1 7292.27Z" fill="#263238"/>
<path d="M13562.9 6338.3C13806.1 6440.85 14022.1 6598.69 14193.6 6799.29C14417.6 7066.24 14976.3 7898.68 15163 8104.05C15369.2 8330.32 15620.6 8510.7 15901.1 8633.49L15457.9 10056.9C15216.4 9939.11 14989 9794.24 14780.2 9625.13C14456.1 9356.56 14111.4 8509.94 13652.4 8164.82C13355.5 7941.62 12680.3 7769.86 12680.3 7769.86L13562.9 6338.3Z" fill="#377DE6"/>
<g opacity="0.2">
<path d="M15814.8 8676.03C15810.7 8673.19 15369.2 8423.26 15182 8215.45C15049.6 8069.22 14845.4 7791.33 14647.7 7522.36C14498.3 7319.82 14356.9 7126.19 14250.3 6995.75C13910.1 6578.52 13639.1 6494.26 13627.7 6491.02L13601.4 6482.92L12831.8 7684.39L12880 7697.35C12884.8 7697.35 13381.9 7833.05 13616.4 8004.4C13928.7 8232.46 14109 8535.87 14283.6 8829.15C14408.3 9038.98 14526.6 9237.07 14688.6 9410.44C14832.7 9564.73 14993.9 9702.13 15169.1 9819.98C15238.9 9867.52 15311.8 9910.29 15387.4 9947.98L15425.5 9965.4L15814.8 8676.03ZM13657.7 7946.88C13518 7844.8 13298.4 7757.71 13131.1 7700.59C13159.2 7665.24 13173.6 7620.94 13171.6 7575.83C13152.2 7502.51 13090.6 7487.52 13027 7517.09L13528.5 6736.9L13532.5 6742.98C13609.9 6851.54 13761.4 6757.97 13771.5 6646.17C13774.1 6648.15 13776.8 6649.91 13779.6 6651.43C13936.2 6759.83 14075.7 6890.88 14193.6 7040.31C14299 7169.53 14439.9 7361.13 14589 7564.48C14606.4 7587.57 14623.4 7611.07 14640.4 7634.16C14526.2 7581.5 14375.5 7606.61 14233.3 7805.91C14102.1 7990.63 14083.5 8239.75 14117.9 8430.14C13993 8243.66 13837.4 8079.71 13657.7 7945.26V7946.88ZM14739.7 9361.83C14582.9 9194.13 14467.1 8999.28 14344.3 8794.72L14309.5 8735.98C14391.8 8760.68 14480 8757.69 14560.5 8727.47C14641 8697.25 14709.3 8641.47 14755.1 8568.68C14849.9 8409.48 14940.6 8181.42 14876.6 7952.15C14973 8078.94 15061.3 8190.74 15130.6 8267.71C15263.1 8413.53 15491.1 8586.91 15628 8686.15C15617.5 8689.11 15607.7 8694.17 15599.1 8701.02C15590.6 8707.87 15583.6 8716.38 15578.4 8726.04C15573.3 8735.69 15570.1 8746.28 15569.2 8757.18C15568.3 8768.08 15569.5 8779.06 15572.9 8789.45C15581.9 8834.41 15624 8889.91 15675 8878.97L15681.9 8876.14L15418.6 9742.61C15378.1 9621.08 15244 9677.79 15265.1 9797.29C15072.1 9674.46 14895.6 9527.58 14739.7 9360.21V9361.83Z" fill="white"/>
</g>
<path d="M14395 8454.85L14348.4 8528.98L14289.2 8492.12L14334.6 8419.61C14282.4 8384.13 14242.5 8333.32 14220.4 8274.19L14303.4 8213.43C14320.2 8260.35 14349.8 8301.62 14388.9 8332.52L14458.2 8221.53C14403.9 8162.79 14345.9 8092.31 14405.1 7997.11C14449.2 7926.63 14532.7 7894.63 14633.6 7941.21L14679.7 7867.49L14738.9 7904.35L14693.5 7976.86C14734.8 8006.49 14767.6 8046.44 14788.7 8092.71L14707.7 8155.9C14691.8 8120.66 14668.3 8089.39 14638.8 8064.36L14568.3 8177.37C14623 8236.11 14680.1 8305.78 14621.4 8399.36C14578.5 8468.63 14495.8 8498.6 14395 8454.85ZM14521.3 8347.91C14535.9 8324.42 14526.6 8301.33 14507.2 8275.4L14450.1 8366.95C14462.2 8372.98 14476.2 8374.37 14489.3 8370.87C14502.4 8367.36 14513.8 8359.2 14521.3 8347.91ZM14519.3 8123.9L14578.5 8029.52C14565.5 8023.47 14550.8 8022.35 14537.1 8026.38C14523.3 8030.4 14511.6 8039.3 14503.9 8051.39C14489.3 8074.48 14499.1 8098.38 14519.3 8123.9Z" fill="#377DE6"/>
<path d="M9519.41 12077.1C9705.92 11890.4 9933.38 11749.8 10183.7 11666.3C10515.1 11559 11496.6 11354.4 11757.1 11258.8C12044.9 11152.7 12307.2 10987.1 12526.7 10772.7L13678.8 11719C13478.3 11898.6 13258.2 12054.8 13022.5 12184.8C12651.5 12384.1 11737.6 12385 11245.5 12680.3C10926.7 12871.5 10513.9 13431.7 10513.9 13431.7L9519.41 12077.1Z" fill="#377DE6"/>
<g opacity="0.2">
<path d="M12532.4 10869.9C12528.4 10872.8 12131 11186.7 11867.3 11283.1C11682.1 11350.8 11347.9 11435.4 11024.3 11517.3C10781.2 11579.2 10547.5 11638.8 10386.7 11687.4C9872.23 11845.8 9691.97 12064.9 9684.68 12074.3L9667.26 12095.3L10491.6 13262.8L10521.6 13222.3C10524.8 13217.8 10836.3 12807.9 11083.4 12655.1C11411.9 12452.6 11760.7 12398.7 12098.2 12347.3C12341.2 12310.4 12567.2 12275.6 12789.2 12190.9C12986.4 12115.3 13174.4 12017.4 13349.4 11899.3C13420.5 11852.8 13488.2 11801.4 13552 11745.3L13582.8 11716.6L12532.4 10869.9ZM11043.7 12594C10896.7 12684.7 10733.4 12855.7 10617.2 12989.3C10594.4 12950.9 10558.4 12922.1 10515.9 12908.3C10441 12898.6 10403.7 12948.8 10407.3 13020.1L9873.04 12261.8H9880.33C10010 12230.6 9980.39 12055.2 9880.33 12003.8L9888.03 11998.1C10048.5 11893.2 10223.6 11812.8 10407.7 11759.5C10566.9 11710.5 10797.8 11652.2 11042.1 11590.2L11126 11569.1C11034.4 11655 11000.8 11804.5 11132 12011.1C11253.6 12201.9 11477.6 12312.8 11667.1 12352.5C11447.2 12397.2 11236.4 12478.8 11043.7 12594ZM12760.1 12123.3C12545.8 12204.3 12321.8 12239.5 12084.4 12276L12017.1 12286.1C12070.5 12219.1 12100.5 12136.6 12102.7 12051C12104.9 11965.4 12079.1 11881.4 12029.3 11811.8C11917.1 11664.3 11740.1 11494.2 11502.7 11468.7C11657 11428.2 11793.5 11387.6 11890.8 11351.6C12075.9 11283.9 12322.2 11138.1 12466 11048.2C12464.7 11059.1 12465.7 11070.1 12468.9 11080.5C12472 11091 12477.2 11100.8 12484.2 11109.2C12491.2 11117.6 12499.9 11124.5 12509.6 11129.4C12519.3 11134.4 12530 11137.4 12540.9 11138.1C12585.9 11147 12652.7 11128.8 12662.4 11077.4C12662.6 11074.9 12662.6 11072.5 12662.4 11070.1L13367.7 11639.6C13239.3 11633.1 13241.7 11776.9 13360.4 11801.6C13174.9 11934.1 12973.1 12042.2 12760.1 12123.3Z" fill="white"/>
</g>
<path d="M11793.9 12103.8L11845.4 12174.7L11789.1 12215.2L11738.8 12146C11686.2 12180.8 11624.2 12198.8 11561 12197.4L11536.3 12097.3C11586 12099.5 11635.3 12087.5 11678.5 12062.9L11601.9 11956.8C11526.6 11985.1 11439.9 12012.7 11373.9 11921.9C11325.3 11854.3 11326.9 11765.2 11407.9 11689L11356.9 11618.5L11413.6 11578L11463.8 11647.3C11506.6 11620.2 11555.8 11604.9 11606.4 11602.7L11634.7 11701.2C11596.2 11702.9 11558.4 11713 11524.2 11730.7L11602.3 11838.9C11677.3 11809.7 11764.4 11783.4 11828 11872.9C11875.8 11941.8 11874.1 12028.9 11793.9 12103.8ZM11534.3 11864L11469.1 11773.7C11458.6 11783.4 11452 11796.7 11450.6 11810.9C11449.2 11825.2 11453 11839.4 11461.4 11851.1C11477.2 11875 11504.3 11874.5 11534.3 11865.6V11864ZM11742.5 11945C11726.3 11922.8 11702 11922.3 11670 11930.5L11733.2 12018.4C11742.6 12009.5 11748.6 11997.7 11750.3 11985C11752 11972.2 11749.3 11959.2 11742.5 11948.3V11945Z" fill="#377DE6"/>
<path d="M9624.73 405.486L8247.45 220.364L8101.62 234.947C7852.09 268.974 7652.79 329.331 7355.87 643.674C7067.05 949.51 6945.52 1730.91 6945.52 1730.91C6945.52 1730.91 7288.22 1554.7 7816.04 1566.45C8343.86 1578.2 8535.87 1670.55 8535.87 1670.55C8535.87 1670.55 8539.52 1143.95 8765.15 879.836C9047.08 552.126 9624.73 405.486 9624.73 405.486Z" fill="#377DE6"/>
<g opacity="0.2">
<path d="M9624.73 405.486L8247.45 220.364L8101.62 234.947C7852.09 268.974 7652.79 329.331 7355.87 643.674C7067.05 949.51 6945.52 1730.91 6945.52 1730.91C6945.52 1730.91 7288.22 1554.7 7816.04 1566.45C8343.86 1578.2 8535.87 1670.55 8535.87 1670.55C8535.87 1670.55 8539.52 1143.95 8765.15 879.836C9047.08 552.126 9624.73 405.486 9624.73 405.486Z" fill="black"/>
</g>
<path d="M8101.62 234.947C8101.62 234.947 8425.69 189.173 8938.52 629.901C9266.64 911.027 9829.7 1773.45 9829.7 1773.45C9946.75 1612.99 10095 1477.82 10265.6 1376.06C10722.9 1105.06 10985 1036.6 10985 1036.6C10985 1036.6 10694.1 599.52 10257.1 427.36C9202.23 9.72179 8101.62 234.947 8101.62 234.947Z" fill="#377DE6"/>
<g opacity="0.2">
<path d="M8529.39 182.287C8601.09 220.364 9024.4 370.244 9317.27 344.319C9610.15 318.394 9681.84 271 9563.56 240.213C9399.2 197.409 9230.28 174.56 9060.45 172.16C8883.39 164.752 8706.04 168.134 8529.39 182.287Z" fill="white"/>
</g>
<g opacity="0.2">
<path d="M10831.9 943.839C10636.7 738.202 10412.9 561.674 10167.5 419.664C10115.7 391.309 10060.6 364.168 10005.5 338.648C9817.12 281.449 9624.51 239.189 9429.48 212.263C9614.2 252.771 9853.6 272.215 10161.5 483.667C10315.7 591.015 10462.7 708.476 10601.4 835.278C10553.2 863.228 10552.4 959.637 10586.8 997.31C10460.1 1046.13 10338.6 1107.61 10224.2 1180.81C10119.1 1250.31 10017.8 1325.49 9920.84 1406.04C9929.32 1387.98 9932.69 1367.94 9930.56 1348.11C9919.22 1284.11 9828.89 1242.38 9768.53 1260.21C9756.4 1262.31 9745.09 1267.73 9735.86 1275.89C9726.63 1284.04 9719.85 1294.6 9716.28 1306.39C9542.9 1054.02 9254.89 652.586 9088.81 513.238C8921.22 377.224 8734.84 266.163 8535.47 183.502H8531.01C8459.72 187.958 8403.41 195.654 8347.51 201.731C8597.73 284.934 8830.98 412.397 9036.15 578.051C9270.69 774.92 9786.36 1558.75 9791.62 1566.85L9818.36 1607.36L9854 1574.96C9985.83 1457.9 10125.2 1349.65 10271.2 1250.89C10438.4 1143.72 10621.3 1063.35 10813.2 1012.7L10883.3 996.905L10831.9 943.839Z" fill="white"/>
</g>
<path d="M4606.99 10186.2L5853.42 10398.8L5984.26 10389.9C6211.92 10367.2 6394.61 10319 6672.9 10043.2C6945.12 9774.61 7080.41 9070.98 7080.41 9070.98C7080.41 9070.98 6763.64 9220.05 6284.83 9192.51C5806.03 9164.96 5634.68 9074.63 5634.68 9074.63C5634.68 9074.63 5614.43 9553.84 5400.95 9785.14C5136.43 10071.5 4606.99 10186.2 4606.99 10186.2Z" fill="#377DE6"/>
<g opacity="0.2">
<path d="M4606.99 10186.2L5853.42 10398.8L5984.26 10389.9C6211.92 10367.2 6394.61 10319 6672.9 10043.2C6945.12 9774.61 7080.41 9070.98 7080.41 9070.98C7080.41 9070.98 6763.64 9220.05 6284.83 9192.51C5806.03 9164.96 5634.68 9074.63 5634.68 9074.63C5634.68 9074.63 5614.43 9553.84 5400.95 9785.14C5136.43 10071.5 4606.99 10186.2 4606.99 10186.2Z" fill="black"/>
</g>
<path d="M5984.26 10389.9C5984.26 10389.9 5689.36 10421.1 5236.89 10004.7C4948.07 9738.96 4467.23 8937.3 4467.23 8937.3C4355.91 9079.35 4217.02 9197.44 4058.91 9284.46C3635.2 9515.76 3394.58 9568.02 3394.58 9568.02C3394.58 9568.02 3642.89 9973.1 4034.2 10144.9C4977.64 10559.3 5984.26 10389.9 5984.26 10389.9Z" fill="#377DE6"/>
<g opacity="0.2">
<path d="M5594.17 10424.4C5530.17 10387.1 5151.01 10237.6 4884.06 10253C4617.12 10268.4 4552.3 10307.7 4657.22 10339.7C4805.07 10383.7 4957.65 10410 5111.72 10417.9C5272.26 10429.7 5433.37 10431.9 5594.17 10424.4Z" fill="white"/>
</g>
<g opacity="0.2">
<path d="M3528.26 9658.76C3698.88 9851.44 3896.12 10018.8 4114 10155.8C4160.18 10183.3 4209.2 10209.7 4259.83 10234.4C4428.96 10292.7 4602.48 10337.4 4778.74 10368.1C4612.25 10323.9 4395.54 10299.6 4122.51 10097.9C3986.13 9995.18 3856.51 9883.82 3734.44 9764.48C3779 9740.58 3783.05 9653.08 3753.08 9617.84C3869.75 9577.71 3982.01 9525.72 4088.08 9462.69C4186.15 9403.22 4280.82 9338.3 4371.64 9268.26C4363.35 9284.36 4359.7 9302.45 4361.1 9320.51C4369.21 9378.84 4449.82 9419.76 4506.12 9405.58C4517.26 9403.95 4527.75 9399.32 4536.46 9392.19C4545.16 9385.05 4551.76 9375.68 4555.54 9365.07C4704.61 9599.61 4952.93 9972.69 5099.57 10105.6C5246.9 10234.4 5412.13 10341.3 5590.12 10422.7H5593.77C5658.98 10420.7 5710.43 10415.4 5761.06 10411.8C5536.67 10328 5329.2 10204.5 5148.58 10047.2C4941.99 9861.3 4500.45 9132.55 4494.78 9125.26L4471.69 9087.59L4438.07 9115.95C4314.89 9217.77 4184.97 9311.16 4049.19 9395.45C3894.02 9487.54 3725.34 9554.66 3549.32 9594.35L3485.32 9606.5L3528.26 9658.76Z" fill="white"/>
</g>
<path d="M13537 2839.62C13537 2839.62 13828.3 2602.65 14198.9 2249.01C14651 1818 15588.3 959.232 16386.3 1284.11L17301.4 2377.83C17301.4 2377.83 16855.8 2285.06 16256.3 2506.64C15725.2 2703.11 15352.6 3093.6 15184.5 3273.06C15116.8 3345.57 15028.1 3442.78 14956.8 3511.24C14835.3 3626.29 14699.6 3785.89 14484.5 3959.26L13537 2839.62Z" fill="#377DE6"/>
<g opacity="0.2">
<path d="M15711.9 2042.82C15817.6 2293.57 15689.6 2586.44 15425.9 2697.84C15162.2 2809.24 14862.8 2697.84 14757.1 2445.88C14651.4 2193.92 14779.8 1902.26 15043.5 1791.27C15307.2 1680.28 15606.6 1792.48 15711.9 2042.82Z" fill="white"/>
</g>
<path d="M15459.9 2377.83L15514.6 2431.3L15474.1 2475.05L15419 2422.38C15378.9 2460.29 15328.2 2485.03 15273.6 2493.27L15237.1 2412.26C15280.3 2406.76 15321 2389.21 15354.6 2361.62L15273.6 2280.61C15212.8 2316.25 15141.9 2352.71 15071 2284.25C15018.8 2233.62 15007 2156.65 15065.4 2078.88L15011.1 2025.81L15053.6 1982.06L15107.1 2034.32C15140.2 2004.62 15180.4 1983.97 15223.8 1974.37L15264.3 2055.38C15231.5 2062.42 15200.6 2076.22 15173.5 2095.89L15257 2176.91C15317.3 2140.85 15387.4 2105.21 15456.7 2172.85C15506.1 2223.89 15517.8 2300.86 15459.9 2377.83ZM15200.7 2210.12L15131 2142.07C15123.3 2151.94 15119.5 2164.27 15120.4 2176.74C15121.2 2189.21 15126.6 2200.94 15135.5 2209.72C15152.9 2226.73 15174.7 2222.68 15200.7 2210.12ZM15392.3 2250.63C15374.9 2233.62 15351.8 2237.26 15327.5 2250.63L15395.1 2316.66C15403.3 2307.4 15407.6 2295.38 15407.2 2283.04C15406.8 2270.7 15401.8 2258.97 15393.1 2250.23L15392.3 2250.63Z" fill="#377DE6"/>
<g opacity="0.2">
<path d="M16318.3 1293.02L16309 1290.18C16285.5 1282.49 15730.1 1116 14945.9 1715.11C14652.8 1939.44 14378.5 2187.23 14125.6 2456.01C13963.6 2622.9 13847.3 2743.21 13706.3 2817.74L13669.1 2837.19L14501.9 3871.77L14529 3841.79C14537.1 3833.28 15313.7 2978.56 15687.2 2714.85C15983.3 2505.83 16557.7 2171.23 17073.4 2278.99L17175.4 2300.86L16318.3 1293.02ZM15648.7 2658.55C15378.9 2848.53 14919.5 3324.5 14663.1 3596.72C14623.6 3558.03 14570.9 3535.89 14515.6 3534.83C14460.3 3533.78 14406.7 3553.89 14365.8 3591.04L13909.3 3023.93C13931.7 3007.83 13950.1 2986.84 13963.3 2962.57C13976.4 2938.29 13983.8 2911.34 13985 2883.77C13986.3 2830.48 13971.3 2778.06 13942.1 2733.49C14014.6 2669.48 14088.7 2593.33 14175.4 2503.81C14425.7 2237.42 14697.5 1992.06 14988 1770.2C15382.1 1469.23 15714.7 1372.82 15924.1 1344.87C15978.8 1337.35 16033.9 1333.56 16089 1333.53C16118.2 1389.97 16164 1436.15 16220.2 1465.9C16276.3 1495.64 16340.2 1507.55 16403.4 1500.02L16880.5 2061.46C16847.3 2071.99 16808 2101.97 16819 2189.87C16360 2208.1 15903.9 2478.29 15648.7 2658.55Z" fill="white"/>
</g>
<path d="M1925.35 13304.1C1925.35 13304.1 2216.2 13541.5 2637.48 13832.7C3151.53 14188.4 4182.06 14932.5 4026.1 15781.2L3140.59 16898.4C3140.59 16898.4 3140.59 16441.4 2803.16 15901.1C2501.78 15419.4 2044.04 15131.4 1835.02 15005C1750.36 14953.6 1637.34 14886.3 1555.51 14830.4C1419 14736.9 1234.69 14634 1021.62 14458.6L1925.35 13304.1Z" fill="#377DE6"/>
<g opacity="0.2">
<path d="M3145.32 15273.7C3369.2 15119.6 3419.14 14803.6 3256.86 14567.9C3094.59 14332.2 2781.54 14266.1 2557.66 14420.3C2333.79 14574.4 2283.85 14890.5 2446.12 15126.1C2608.4 15361.8 2921.44 15427.9 3145.32 15273.7Z" fill="white"/>
</g>
<path d="M2762.25 15090.9L2721.74 15155.7L2670.29 15122.9L2710.8 15059.7C2665.69 15028.1 2631.34 14983.4 2612.37 14931.7L2685.69 14879.4C2700.04 14920.6 2725.57 14956.9 2759.41 14984.4L2820.98 14887.5C2773.59 14835.7 2723.76 14773.3 2776.43 14691.1C2816.93 14629.5 2888.63 14602.4 2976.94 14644.1L3017.45 14580.1L3068.89 14612.9L3028.39 14675.7C3063.76 14702.1 3091.67 14737.3 3109.4 14777.8L3038.11 14832.5C3024.37 14801.4 3004.05 14773.8 2978.56 14751.4L2916.58 14850.3C2963.98 14901.7 3013.4 14963.3 2961.14 15044.7C2922.25 15104.7 2850.15 15131.8 2762.25 15090.9ZM2873.64 14998.5C2886.61 14978.3 2878.51 14958 2861.9 14934.9L2810.86 15016C2821.64 15021.2 2833.99 15022.4 2845.56 15019.2C2857.14 15016 2867.13 15008.6 2873.64 14998.5ZM2873.64 14802.9L2925.9 14721.9C2914.6 14716.6 2901.8 14715.6 2889.82 14719C2877.85 14722.5 2867.5 14730.1 2860.68 14740.5C2848.12 14759.5 2856.63 14780.2 2876.08 14802.9H2873.64Z" fill="#377DE6"/>
<g opacity="0.2">
<path d="M4003.01 15714.7V15704.6C4005.85 15680.3 4056.48 15102.6 3310.73 14456.1C3031.84 14214.6 2733.8 13996.1 2419.55 13802.7C2223.49 13678.4 2082.12 13588.4 1980.85 13465.3L1953.71 13432.9L1109.92 14459.8L1144.76 14480C1154.89 14486.1 2149.36 15073.5 2481.53 15385.8C2746.04 15633.7 3190.01 16128.3 3189.2 16655.3V16756.2L4003.01 15714.7ZM2530.14 15335.2C2289.52 15109.9 1730.51 14755.5 1411.71 14560.2C1441.56 14513.8 1452.57 14457.7 1442.48 14403.4C1432.39 14349.2 1401.97 14300.8 1357.43 14268.2L1819.62 13705.9C1839.93 13724.6 1864.24 13738.5 1890.7 13746.4C1917.16 13754.4 1945.08 13756.2 1972.34 13751.7C2024.8 13742.5 2073.08 13717.1 2110.47 13679.2C2187.84 13737.5 2277.77 13794.6 2383.09 13861.5C2694.63 14053.1 2989.97 14269.8 3266.17 14509.6C3640.87 14833.7 3802.9 15140.7 3873.79 15340.4C3892.16 15392.4 3906.91 15445.6 3917.94 15499.6C3868.71 15539.7 3832.84 15593.7 3815.11 15654.7C3797.38 15715.6 3798.63 15780.5 3818.7 15840.7L3364.2 16420.8C3347.59 16390.4 3309.51 16358 3226.07 16386.3C3115.07 15940.8 2758.6 15549 2530.14 15335.2Z" fill="white"/>
</g>
<path d="M0 6596.75C0 6596.75 648.13 5840.46 1914.41 6327.37C1962.54 6345.64 2012.33 6359.2 2063.08 6367.88C2207.58 6396.51 2357.11 6385.88 2496.11 6337.09C2743.21 6237.84 3094.41 6094.04 3094.41 6094.04L4181.25 6737.31C4181.25 6737.31 3725.53 7069.48 3284.4 7097.43C2843.26 7125.38 2321.93 6763.24 1815.98 6886.79C1558.71 6942.51 1325.13 7076.85 1147.59 7271.21L0 6596.75Z" fill="#377DE6"/>
<g opacity="0.2">
<path d="M2620.07 6763.24C2571.05 6806.98 2276.96 6766.88 1962.62 6673.71C1648.28 6580.54 1433.18 6471.17 1482.19 6425.4C1531.21 6379.62 1825.3 6421.75 2139.64 6515.33C2453.98 6608.9 2668.68 6719.49 2620.07 6763.24Z" fill="white"/>
</g>
<path d="M2181.77 6678.57L2201.62 6699.64L2135.59 6685.05L2116.14 6664.39C2055.72 6650.6 1996.09 6633.56 1937.5 6613.35L1952.09 6598.37C1992.59 6612.54 2044.04 6627.94 2092.65 6638.87L2063.08 6607.68C1984.9 6586.21 1896.19 6561.5 1870.67 6534.36C1852.03 6514.51 1886.46 6508.44 1987.73 6527.88L1967.88 6507.22L2033.91 6521.4L2053.36 6542.06C2103.99 6554.21 2155.84 6568.39 2198.38 6582.57L2187.03 6598.77C2148.55 6585.81 2110.88 6574.87 2076.85 6566.77L2107.23 6598.77C2185.01 6619.84 2272.51 6644.55 2297.62 6670.88C2316.25 6691.94 2282.23 6697.61 2181.77 6678.57ZM2036.75 6580.54L2011.23 6553.81C1978.42 6548.54 1970.72 6550.97 1975.58 6557.05C1994.52 6568.23 2015.19 6576.18 2036.75 6580.54ZM2193.52 6651.03C2175.01 6639.85 2154.74 6631.9 2133.56 6627.53L2158.27 6653.46C2187.44 6658.72 2199.19 6657.1 2193.52 6651.03Z" fill="#377DE6"/>
<g opacity="0.2">
<path d="M3078.62 6172.22L3066.46 6177.89C2862.57 6277.74 2650.14 6359.08 2431.7 6420.94C2279.8 6461.45 2208.91 6447.27 2079.69 6424.59L1998.67 6410.82C1922.91 6395.23 1848.33 6374.38 1775.47 6348.43C1613.44 6295.77 1407.25 6230.15 1203.09 6223.67H1197.82C1192.15 6223.67 630.711 6175.06 173.375 6542.47L146.234 6564.34L1122.48 7155.35L1135.85 7142.8C1141.11 7137.94 1664.88 6664.8 2372.97 6843.04C2456.82 6864.1 2535 6883.54 2607.91 6904.2C3181.51 7055.7 3469.11 7131.86 4045.95 6785.52L4080.79 6764.45L3078.62 6172.22ZM2620.06 6856.4C2546.75 6836.96 2468.56 6815.9 2384.71 6795.24C1903.07 6673.71 1504.07 6843.85 1284.92 6976.31C1122.89 6891.24 1010.68 6967.8 969.359 7005.07L398.195 6659.54C508.377 6563.53 443.969 6480.49 406.702 6446.06C649.413 6319.54 921.122 6259.05 1194.58 6270.66C1395.1 6276.33 1597.64 6341.14 1761.7 6392.18C1836.97 6418.76 1913.98 6440.15 1992.19 6456.18L2073.21 6469.96C2204.45 6493.05 2283.85 6506.41 2445.48 6465.5C2609.43 6420.88 2769.77 6363.87 2925.09 6294.96C2965.6 6330.2 3073.76 6397.04 3233.76 6317.24L3816.27 6661.56C3772.52 6682.22 3707.3 6736.1 3811.41 6853.57C3381.62 7057.73 3105.76 6984.82 2620.06 6856.4Z" fill="white"/>
</g>
<path d="M14826 16802.8C14826 16802.8 14749.4 15811.5 15992.2 15263.5C16039.6 15242.7 16084.9 15217.5 16127.5 15188.1C16249.5 15106.4 16347.4 14993.5 16411.1 14861.2C16516 14618.2 16663 14265.7 16663 14265.7L17886.8 13954.6C17886.8 13954.6 17798.5 14511.6 17505.6 14842.6C17212.7 15173.5 16587.7 15284.9 16316.3 15729.7C16173.3 15950.6 16102.6 16210.5 16113.7 16473.4L14826 16802.8Z" fill="#377DE6"/>
<g opacity="0.2">
<path d="M16800.3 15074.3C16796.7 15139.9 16559.7 15317.3 16271.3 15474.5C15982.9 15631.7 15752 15703.4 15755.6 15636.5C15759.3 15569.7 15996.3 15393.5 16284.7 15236.3C16573.1 15079.1 16804 15008.7 16800.3 15074.3Z" fill="white"/>
</g>
<path d="M16429.7 15323.4H16458.9L16401.7 15359.9H16373.4C16321.1 15392.7 16267 15422.5 16211.3 15449.4V15428.7C16255.6 15407.7 16298.8 15384.3 16340.6 15358.7H16296.8C16226.7 15399.2 16146.5 15443.3 16109.3 15442.5C16081.7 15442.5 16102 15412.9 16187.4 15355.4H16158.7L16215.8 15319H16244.2C16288.3 15291.8 16335.3 15265.5 16375.8 15246L16379.1 15265.1C16342.6 15283.3 16308.6 15301.9 16278.2 15320.2H16322.3C16392.4 15279.7 16471.8 15235.9 16508.3 15239.2C16534.6 15237.9 16514.3 15266.3 16429.7 15323.4ZM16257.9 15356.2H16221.1C16193.9 15375.3 16189.5 15383.4 16198.4 15383.4C16219.6 15377.8 16239.8 15368.6 16257.9 15356.2ZM16420 15295.9C16399 15301 16379 15309.6 16360.8 15321.4H16396.9C16421.2 15304 16427.3 15295.9 16418.7 15295.9H16420Z" fill="#377DE6"/>
<g opacity="0.2">
<path d="M16709.2 14331.8L16705.1 14344.3C16630.7 14558.9 16537.2 14766.5 16426 14964.5C16345 15098.6 16286.7 15140.3 16179.3 15215.7C16158.3 15230.2 16135.6 15246 16110.9 15263.9C16046 15306.2 15978.4 15344.1 15908.3 15377.3C15754.8 15455.9 15563.6 15553.1 15414.6 15692.8L15410.9 15696.5C15406.5 15700.1 14974.2 16061.1 14909.8 16645.2L14905.8 16680L16014.9 16409.8V16391.6C16014.9 16384.3 16052.6 15679.5 16679.6 15306C16754.2 15261.8 16823.8 15221.7 16889 15184.5C17402.7 14887.5 17658.7 14738.9 17824.4 14085.9L17834.5 14045.4L16709.2 14331.8ZM16866 15141.9C16800.3 15180 16730.3 15220.1 16656.1 15263.5C16229.6 15517.4 16066.3 15918.9 16004.4 16167.6C15948.9 16180.8 15899.2 16211.6 15862.7 16255.4C15826.2 16299.3 15804.8 16353.7 15801.8 16410.6L15153.7 16568.2C15163.8 16422.4 15059.7 16409 15009.1 16411.1C15091.9 16150.3 15242.1 15915.9 15444.5 15731.7C15590.4 15594.4 15779.5 15497.2 15930.6 15419.8C16002.7 15385.4 16072.4 15346.2 16139.2 15302.3C16163.5 15284.5 16186.2 15268.7 16206.9 15254.1C16316.3 15177.6 16381.9 15132.6 16467.8 14988.4C16553.1 14841.1 16627.2 14687.6 16689.3 14529C16743.2 14525 16866.8 14496.6 16923.5 14326.5L17579.3 14160C17563.1 14205 17554.6 14289.2 17711 14299.4C17547.7 14745.4 17300.6 14888.8 16866 15141.9Z" fill="white"/>
</g>
<path d="M16639.5 6992.11C16639.5 6992.11 16364.1 6036.52 17469.5 5246.61C17512 5216.99 17551.3 5183.2 17587 5145.75C17690.5 5041.15 17764 4910.6 17799.7 4767.8C17853.1 4506.93 17926.1 4133.85 17926.1 4133.85L19060.3 3581.32C19060.3 3581.32 19086.2 4144.38 18866.7 4528C18647.1 4911.61 18056.5 5146.96 17881.5 5637.51C17786.3 5882.96 17769.8 6151.9 17834.1 6407.17L16639.5 6992.11Z" fill="#377DE6"/>
<g opacity="0.2">
<path d="M18222.2 4898.24C18231.9 4963.05 18036.2 5186.66 17785.1 5397.3C17533.9 5607.94 17322.9 5726.23 17313.2 5661.42C17303.4 5596.6 17499.5 5373 17750.3 5162.35C18001 4951.71 18212.4 4833.02 18222.2 4898.24Z" fill="white"/>
</g>
<path d="M17909.9 5217.44L17938.6 5212.18L17890 5259.57L17862.1 5264.43C17817.3 5307.66 17770.1 5348.24 17720.7 5385.96L17716.2 5365.7C17755.2 5336.18 17792.7 5304.68 17828.4 5271.32L17785.9 5278.61C17725.1 5332.08 17655.5 5392.44 17619 5400.14C17591.9 5404.59 17606 5372.59 17678.1 5298.87L17649.4 5304.13L17698 5256.74L17725.9 5251.88C17764 5216.23 17804.5 5180.99 17840.2 5153.44L17847.1 5171.67C17815.1 5196.79 17785.5 5222.31 17759.6 5245.8L17803.3 5238.1C17863.7 5184.63 17932.5 5125.49 17968.6 5119.42C17994.9 5112.12 17981.1 5143.72 17909.9 5217.44ZM17747.8 5284.69L17711.4 5290.76C17689.1 5315.47 17686.2 5323.98 17694.8 5322.36C17714.6 5312.77 17732.7 5299.9 17748.2 5284.28L17747.8 5284.69ZM17892.8 5192.73C17873.3 5201.88 17855.5 5214.35 17840.2 5229.6L17875.8 5223.52C17897.7 5200.03 17901.3 5190.71 17893.2 5192.33L17892.8 5192.73Z" fill="#377DE6"/>
<g opacity="0.2">
<path d="M17982.4 4188.54V4201.5C17952.9 4426.59 17903.5 4648.63 17834.9 4865.02C17783.5 5012.88 17734 5065.54 17644.1 5160.73C17626.3 5179.77 17607.3 5201.24 17586.6 5222.31C17532 5276.89 17473.6 5327.65 17412 5374.21C17277.1 5482.37 17109.8 5617.26 16992.3 5783.34L16989.1 5787.39C16985.9 5791.85 16635.9 6235.01 16690.6 6817.92L16693.8 6852.76L17725.1 6363.83L17722.3 6345.6C17722.3 6338.71 17615 5640.75 18153.7 5148.18C18217.3 5089.84 18277.7 5036.37 18334 4986.14C18776.7 4591.19 18998.7 4393.11 19027.5 3721.08V3680.57L17982.4 4188.54ZM18299.9 4949.28C18243.2 4999.92 18182.9 5053.79 18119.3 5111.31C17752.7 5446.32 17673.7 5872.87 17664 6128.47C17612.1 6152.51 17569.4 6192.79 17542.5 6243.21C17515.5 6293.64 17505.7 6351.48 17514.5 6407.98L16911.3 6693.97C16891.9 6549.35 16787 6557.05 16738 6569.2C16766.1 6296.99 16865.8 6037.06 17026.8 5815.75C17141.8 5653.72 17307.5 5518.42 17440.8 5410.67C17504.6 5362.61 17565 5310.09 17621.4 5253.5C17641.7 5231.22 17661.9 5212.99 17677.7 5192.74C17769.3 5095.92 17824.4 5037.18 17880.3 4879.61C17933.1 4718.14 17973.7 4552.94 18001.8 4385.41C18054.1 4370.42 18169.1 4317.76 18190.2 4139.93L18797.8 3843.82C18791.3 3891.61 18800.2 3975.47 18955.4 3954C18887.7 4424.7 18674.2 4615.09 18299.9 4949.28Z" fill="white"/>
</g>
<path d="M4896.62 3750.65C4633.44 3729.59 4378.8 3647.48 4152.89 3510.84C3856.78 3327.74 3064.84 2712.83 2823.41 2576.32C2552.1 2424.71 2259.23 2315.43 1954.92 2252.25L1930.21 815.429C2196.45 851.743 2457.75 917.917 2709.18 1012.7C3101.3 1166.23 3694.34 1863.37 4237.96 2045.26C4590.38 2164.35 5284.28 2115.33 5284.28 2115.33L4896.62 3750.65Z" fill="#377DE6"/>
<g opacity="0.2">
<path d="M2025.41 2193.92L2051.33 2201.62C2056.19 2201.62 2528.11 2338.13 2771.97 2476.67C2943.72 2573.89 3224.85 2773.59 3496.66 2966.81C3702.85 3113.45 3897.69 3250.37 4039.47 3342.32C4493.56 3631.55 4777.12 3625.88 4789.27 3625.88H4816.41L5172.48 2242.53L5122.66 2245.36C5117.39 2245.36 4602.94 2274.13 4326.67 2185.01C3958.86 2066.72 3692.31 1835.42 3435.49 1611.41C3251.18 1451.81 3077.4 1300.72 2868.38 1186.89C2682.18 1085.34 2484.97 1005.43 2280.61 948.7C2199.47 925.254 2116.76 907.656 2033.1 896.04L1992.59 891.179L2025.41 2193.92ZM4304.39 2254.68C4468.45 2307.34 4704.61 2321.12 4881.63 2323.14C4866.9 2365.55 4867.91 2411.85 4884.47 2453.58C4924.98 2516.77 4988.98 2511.91 5040.02 2463.7L4809.12 3362.17L4803.45 3357.31C4695.7 3278.73 4581.06 3415.24 4606.58 3524.21L4597.27 3521.78C4413.27 3467.09 4238.5 3385.17 4078.76 3278.73C3938.2 3189.2 3744.16 3051.48 3538.79 2905.24L3468.3 2855.01C3593.07 2869.19 3728.77 2797.9 3800.88 2564.16C3867.71 2347.85 3806.95 2105.61 3714.59 1935.48C3891.12 2074.26 4089.84 2182.19 4302.37 2254.68H4304.39ZM2830.71 1250.89C3033.25 1361.07 3203.38 1509.33 3384.45 1666.91C3401.87 1681.49 3418.88 1696.48 3435.9 1711.47C3350.32 1714.22 3267.98 1744.83 3201.38 1798.64C3134.77 1852.45 3087.55 1926.52 3066.87 2009.61C3026.36 2190.27 3012.59 2435.75 3147.89 2633.03C3015.02 2543.91 2896.33 2462.89 2806 2413.07C2634.65 2315.85 2363.65 2222.68 2202.43 2170.02C2219.84 2157.7 2231.69 2139 2235.41 2118C2239.13 2096.99 2234.41 2075.36 2222.27 2057.81C2199.59 2017.3 2141.26 1976.8 2097.51 2004.75L2091.84 2009.2L2069.56 1104.25C2147.74 1205.93 2255.9 1111.14 2198.37 1004.2C2418.8 1059.17 2631.29 1142.07 2830.71 1250.89Z" fill="white"/>
</g>
<path d="M3443.19 2002.72L3463.85 1917.25L3531.9 1933.86L3511.65 2014.87C3572.2 2032.34 3625.93 2067.97 3665.58 2116.95L3605.22 2202.83C3574.62 2163.59 3533.65 2133.7 3486.94 2116.55L3455.75 2243.74C3526.23 2284.25 3603.2 2331.24 3577.27 2440.21C3557.42 2521.23 3488.15 2577.53 3377.57 2564.97L3357.31 2649.64L3289.26 2633.03L3309.51 2552.01C3261.04 2536.48 3217.48 2508.55 3183.13 2470.99L3240.65 2384.71C3267.09 2412.85 3299.28 2434.96 3335.03 2449.53L3366.63 2319.9C3296.14 2281.82 3219.99 2233.62 3245.1 2126.27C3264.14 2046.88 3332.2 1990.97 3443.19 2002.72ZM3356.91 2143.69C3350.43 2170.42 3366.63 2189.46 3392.96 2208.1L3418.48 2103.18C3404.91 2101.01 3391.02 2103.95 3379.5 2111.44C3367.97 2118.92 3359.64 2130.41 3356.1 2143.69H3356.91ZM3429.01 2355.55L3402.68 2462.89C3416.9 2464.6 3431.25 2461.05 3443.03 2452.92C3454.82 2444.79 3463.23 2432.64 3466.68 2418.74C3471.95 2393.22 3455.34 2373.78 3428.2 2355.55H3429.01Z" fill="#377DE6"/>
<path d="M11002.4 17096C10739.3 17075 10484.8 16992.7 10259.1 16855.8C9962.57 16673.1 9170.63 16058.2 8929.2 15921.7C8658.02 15770.1 8365.28 15660.9 8061.11 15597.7L8036 14160.8C8302.29 14196.9 8563.63 14263 8814.97 14358.1C9207.09 14511.6 9800.13 15206.7 10344.2 15390.7C10696.2 15509.3 11390.1 15460.7 11390.1 15460.7L11002.4 17096Z" fill="#377DE6"/>
<g opacity="0.2">
<path d="M8129.17 15539.3L8155.09 15546.6C8159.96 15546.6 8632.28 15683.5 8876.14 15822.1C9047.49 15919.3 9328.61 16119 9600.42 16312.2C9806.61 16458.9 10001.5 16595.8 10143.6 16687.7C10597.3 16977 10881.3 16971.3 10893 16971.3H10920.6L11276.2 15587.5L11226.4 15590.4C11221.2 15590.4 10707.1 15619.1 10430.4 15530C10062.6 15411.7 9796.08 15180.4 9539.26 14956.4C9354.95 14796.8 9180.76 14645.7 8972.14 14531.9C8786.21 14430.5 8589.27 14350.7 8385.18 14294.1C8304.04 14270.7 8221.33 14253.1 8137.68 14241.4L8097.17 14236.6L8129.17 15539.3ZM10408.2 15600.1C10572.6 15652.7 10808.4 15666.5 10985.8 15668.5C10971.1 15711 10972.1 15757.2 10988.6 15799C11029.1 15862.2 11093.1 15857.3 11144.2 15809.1L10912.9 16707.6L10907.2 16702.7C10799.9 16624.1 10685.2 16760.6 10710.8 16869.6L10701.4 16867.2C10517.5 16813.3 10342.7 16732 10182.9 16626.2C10042.4 16536.6 9848.33 16398.9 9642.96 16252.7L9572.07 16202.4C9697.24 16216.6 9832.54 16145.3 9904.64 15911.6C9971.48 15695.3 9911.12 15453 9818.36 15282.9C9995.64 15421.2 10195.1 15528.4 10408.2 15600.1ZM8936.5 14596.3C9139.04 14706.1 9309.17 14854.7 9490.65 15011.9C9507.66 15026.9 9524.67 15041.9 9542.09 15056.5C9456.45 15059.4 9374.07 15090.1 9307.42 15143.9C9240.76 15197.8 9193.46 15271.9 9172.66 15355C9132.15 15535.7 9118.38 15781.2 9253.67 15978C9122.43 15887.7 9003.33 15809.5 8913.41 15758.5C8741.65 15661.2 8471.06 15568.1 8309.43 15515.4C8318.54 15509.3 8326.33 15501.5 8332.32 15492.3C8338.3 15483.1 8342.37 15472.8 8344.26 15462C8346.15 15451.2 8345.84 15440.2 8343.33 15429.5C8340.83 15418.8 8336.18 15408.8 8329.68 15400C8307 15359.5 8248.67 15319 8204.51 15347.3L8198.84 15351.8L8176.97 14446.4C8255.15 14548.5 8362.9 14453.7 8305.38 14346.8C8525.56 14402.6 8737.67 14486.5 8936.5 14596.3Z" fill="white"/>
</g>
<path d="M9548.17 15347.7L9569.23 15262.6L9636.88 15279.3L9616.63 15362.3C9677.38 15379.6 9731.29 15415.2 9770.96 15464.4L9711.01 15547C9680.38 15507.6 9639.23 15477.7 9592.32 15460.7L9559.92 15587.5C9630.4 15628 9707.77 15675 9681.44 15784C9662 15865 9592.73 15921.3 9482.14 15908.8L9461.48 15993.4L9393.83 15976.8L9414.09 15895.8C9365.44 15880.4 9321.71 15852.4 9287.3 15814.8L9344.41 15729.7C9370.71 15757.8 9402.76 15779.9 9438.39 15794.5L9469.99 15664.9C9399.5 15626.8 9323.75 15578.6 9348.46 15471.3C9369.93 15392.3 9438.39 15336.4 9548.17 15347.7ZM9461.89 15489.1C9455.41 15515.8 9471.61 15534.9 9497.94 15553.5L9523.86 15448.6C9510.37 15446.6 9496.62 15449.6 9485.21 15457.1C9473.79 15464.6 9465.5 15475.9 9461.89 15489.1ZM9533.99 15700.9L9507.66 15809.1C9521.86 15810.7 9536.17 15807.1 9547.94 15799C9559.7 15790.9 9568.13 15778.8 9571.66 15764.9C9578.14 15738.2 9559.92 15718.8 9533.99 15700.9Z" fill="#377DE6"/>
<path d="M8086.64 5357.6C7827.79 5364.08 7352.22 5353.96 6902.58 5147.77C6345.6 4892.16 6104.57 4525.57 6104.57 4525.57L5983.05 5890.28C6307.11 6654.27 7594.87 6706.93 8195.2 6721.11C8036.41 6060.01 7995.09 5749.32 8086.64 5357.6Z" fill="#377DE6"/>
<g opacity="0.2">
<path d="M7882.68 6208.5C7980.99 5966.39 7854 5686.2 7599.04 5582.67C7344.08 5479.14 7057.7 5591.48 6959.39 5833.59C6861.08 6075.7 6988.07 6355.89 7243.03 6459.42C7497.99 6562.95 7784.37 6450.61 7882.68 6208.5Z" fill="white"/>
</g>
<path d="M7358.3 5778.48V5704.76H7417.04V5776.86C7470.08 5778.27 7521.41 5795.95 7564.08 5827.5L7532.89 5908.51C7499.82 5882.71 7460.02 5866.96 7418.25 5863.14V5972.92C7483.47 5989.93 7556.79 6013.43 7558 6107.81C7558 6177.49 7514.26 6237.84 7421.9 6251.21V6324.13H7363.16V6252.43C7319.81 6249.77 7277.91 6235.8 7241.64 6211.92L7269.99 6130.9C7297.39 6148.21 7328.2 6159.4 7360.32 6163.71V6051.91C7295.11 6035.71 7223 6011.4 7221.79 5919.05C7222.6 5852.21 7266.35 5792.26 7358.3 5778.48ZM7317.79 5911.75C7317.79 5934.84 7335.21 5947 7360.73 5956.72V5865.58C7331.97 5873.27 7317.79 5890.69 7317.79 5911.75ZM7421.09 6068.12V6161.28C7432.93 6159.7 7443.79 6153.85 7451.63 6144.82C7459.46 6135.8 7463.73 6124.22 7463.62 6112.27C7464.84 6090.39 7447.01 6077.84 7421.09 6068.12Z" fill="#377DE6"/>
<g opacity="0.2">
<path d="M8159.55 6566.77C7859.74 6576.83 7559.64 6559.07 7263.1 6513.71C6790.38 6450.51 6498.72 6290.1 6337.09 6166.55C6294.97 6134.56 6255.05 6099.78 6217.59 6062.45C6236.02 6004.26 6236.28 5941.85 6218.33 5883.51C6200.39 5825.18 6165.08 5773.71 6117.13 5735.95L6173.84 5029.89C6203.41 5045.29 6250.81 5051.36 6303.06 4984.12C6627.13 5283.47 7120.92 5409.86 7417.04 5460.5C7629.68 5489.24 7844.11 5502.77 8058.68 5501L8071.24 5429.3C7857.45 5432.02 7643.72 5419.84 7431.62 5392.85C7088.11 5333.7 6470.36 5171.27 6192.88 4747.96L6139.41 4666.94L6037.73 5932.41L6042.19 5940.92C6052.72 5961.99 6317.24 6452.54 7257.43 6578.11C7559.6 6624.29 7865.36 6642.73 8170.89 6633.2L8159.55 6566.77Z" fill="white"/>
</g>
</svg>
