<svg width="9472" height="9083" viewBox="0 0 9472 9083" fill="none" xmlns="http://www.w3.org/2000/svg">
<path d="M5345.76 9038.83C4975.95 8863.79 4828.58 8447.64 4776.46 8060.03C4767.66 7995.67 4749.21 7928.75 4770.24 7866.97C4791.26 7805.19 4856.04 7754.78 4918.25 7772.16C4969.94 7786.53 5000.19 7838.44 5034.73 7879.41C5080.66 7934.68 5141.37 7975.75 5209.76 7997.82C5254.38 8012.19 5307.37 8016.7 5344.05 7987.52C5394.24 7947.41 5386.95 7869.76 5376.65 7805.83C5355.63 7687.28 5335.04 7568.73 5314.87 7450.18C5300.34 7386.92 5296.07 7321.74 5302.22 7257.12C5311.66 7192.77 5346.19 7128.42 5404.11 7101.82C5462.03 7075.22 5543.32 7096.88 5566.71 7157.38C5573.6 7183.39 5578.76 7209.83 5582.15 7236.53C5588.37 7262.91 5605.75 7290.16 5632.13 7293.37C5658.52 7296.59 5681.47 7274.07 5697.56 7251.97C5752.47 7176.25 5783.36 7085.51 5811.25 6995.64C5839.13 6905.76 5865.3 6814.16 5913.35 6733.51C5961.4 6652.85 6034.76 6583.35 6125.5 6561.9C6216.24 6540.45 6323.49 6581.21 6361.46 6667.22C6399.43 6753.24 6362.75 6853.85 6318.56 6936.65C6251.45 7059.25 6166.99 7171.53 6067.8 7269.99C6048.02 7285.75 6033.75 7307.38 6027.04 7331.77C6020.39 7376.82 6068.01 7412.43 6112.84 7419.29C6163.04 7427.01 6214.09 7413.28 6264.93 7410.71C6315.77 7408.14 6373.47 7421.01 6400.5 7464.98C6437.61 7525.9 6394.49 7603.77 6348.37 7658.04C6255.74 7766.16 6145.24 7857.58 6021.68 7928.32C5977.49 7953.42 5930.51 7977.01 5898.12 8016.48C5865.73 8055.95 5852.65 8117.3 5883.11 8158.49C5913.57 8199.67 5975.13 8204.18 6022.75 8186.59C6070.37 8169 6110.06 8134.89 6154.03 8109.36C6236.4 8061.31 6350.95 8048.01 6420.23 8114.51C6441.84 8137.76 6457.76 8165.71 6466.73 8196.16C6475.7 8226.61 6477.48 8258.73 6471.93 8289.98C6460.52 8352.24 6436.66 8411.55 6401.79 8464.37C6290.7 8655.34 6130.97 8813.44 5938.88 8922.56C5746.89 9027.67 5561.13 9078.94 5345.98 9039.04" fill="#F5F5F5"/>
<path d="M5404.32 8780.13C5432.77 8559.37 5473.88 8340.42 5527.45 8124.38L5568.64 7954.27C5582.15 7898.29 5595.67 7842.94 5611.54 7789.75C5643.61 7687.65 5681.28 7587.39 5724.37 7489.43C5764.91 7395.48 5806.74 7307.53 5846.43 7225.8C5886.11 7144.08 5924.94 7068.57 5963.12 7001.43C6022.72 6894.93 6090.72 6793.36 6166.47 6697.68C6193.29 6663.79 6214.95 6638.26 6229.75 6621.1C6236.83 6612.95 6242.62 6606.52 6246.7 6601.58C6250.77 6596.65 6252.7 6595.15 6252.92 6595.36C6251.37 6597.84 6249.65 6600.2 6247.77 6602.44L6231.47 6622.61C6217.31 6640.2 6196.29 6665.51 6170.12 6700.47C6096.02 6797.09 6029.27 6899.13 5970.41 7005.72C5932.87 7073.07 5894.69 7148.58 5855.22 7230.31C5815.75 7312.04 5774.57 7399.98 5734.45 7493.94C5691.74 7591.9 5654.5 7692.16 5622.91 7794.25C5606.39 7847.23 5593.09 7901.5 5580.01 7958.13L5538.82 8128.45C5485.37 8344.05 5444.05 8562.48 5415.05 8782.71" fill="#E0E0E0"/>
<path d="M5615.19 7788.89C5610.54 7780.54 5606.87 7771.69 5604.25 7762.5C5597.81 7745.56 5589.44 7719.6 5579.58 7689.36C5559.84 7627.15 5535.39 7540.27 5508.79 7444.6C5482.19 7348.93 5456.66 7262.48 5435.86 7200.92C5425.56 7170.03 5416.98 7144.93 5410.97 7127.99C5407.37 7119.18 5404.57 7110.06 5402.61 7100.74C5407.78 7108.74 5412.03 7117.31 5415.26 7126.27C5422.77 7142.79 5432.42 7167.46 5443.79 7197.92C5466.75 7259.27 5493.56 7345.28 5520.37 7441.38C5547.19 7537.48 5569.71 7621.57 5587.73 7686.78C5596.09 7716.38 5602.96 7741.27 5609.18 7761.22C5611.99 7770.25 5614 7779.51 5615.19 7788.89Z" fill="#E0E0E0"/>
<path d="M6412.08 7495.87C6401.72 7500.19 6390.94 7503.43 6379.91 7505.52C6358.46 7510.88 6329.07 7518.61 6292.17 7529.33C6218.17 7550.78 6117.13 7582.53 6007.09 7623.29C5897.05 7664.04 5799.02 7705.44 5728.23 7737.19C5693.05 7752.85 5664.95 7766.36 5645.43 7775.59C5635.62 7780.93 5625.36 7785.38 5614.76 7788.89C5623.63 7782.05 5633.19 7776.15 5643.29 7771.3C5662.16 7760.79 5689.83 7746.2 5724.58 7728.4C5793.87 7694.5 5891.69 7651.82 6001.94 7610.85C6096.05 7575.64 6191.92 7545.35 6289.17 7520.11C6326.49 7510.24 6356.95 7503.81 6378.19 7499.73C6389.34 7497.39 6400.69 7496.1 6412.08 7495.87Z" fill="#E0E0E0"/>
<path d="M5411.83 8763.61C5409.08 8760.8 5406.64 8757.71 5404.54 8754.39L5385.45 8727.15C5368.93 8703.12 5345.98 8668.16 5318.31 8624.4C5262.53 8536.88 5189.6 8413.54 5110.88 8276.25C5032.15 8138.97 4960.72 8015.19 4906.45 7926.82L4842.1 7821.92L4824.94 7793.39C4822.67 7790.23 4820.86 7786.77 4819.57 7783.1C4819.57 7783.1 4822.36 7785.89 4826.87 7792.11C4831.37 7798.33 4838.45 7808.41 4845.96 7819.56C4862.48 7843.37 4885.43 7878.34 4913.31 7922.31C4968.87 8009.83 5042.02 8132.96 5120.74 8270.25C5199.47 8407.53 5270.9 8531.3 5324.96 8619.89L5389.31 8724.57C5396.17 8735.94 5401.96 8746.02 5406.47 8753.1C5408.77 8756.32 5410.58 8759.86 5411.83 8763.61Z" fill="#E0E0E0"/>
<path d="M6445.33 8226.27C6442.31 8228.91 6438.92 8231.08 6435.25 8232.71L6405.43 8248.58L6294.75 8306.28C6201.22 8355.19 6072.95 8424.05 5931.37 8499.34C5789.79 8574.63 5660.87 8643.49 5566.71 8690.25C5519.51 8713.63 5480.9 8733.15 5454.3 8744.52L5422.13 8758.68C5418.59 8760.55 5414.85 8761.99 5410.97 8762.97C5414.04 8760.4 5417.43 8758.23 5421.05 8756.54L5451.09 8740.66L5561.77 8682.74C5655.08 8634.05 5783.36 8565.19 5924.93 8489.69C6066.51 8414.18 6195.64 8345.75 6289.6 8298.99C6336.79 8275.61 6375.4 8256.09 6402 8244.72L6432.89 8230.56C6436.79 8228.5 6440.99 8227.05 6445.33 8226.27Z" fill="#E0E0E0"/>
<path d="M2663.55 4434.41C2663.55 4434.41 2408.71 4469.8 2551.79 5027.95C2694.87 5586.1 2816.28 5873.97 2816.28 5873.97C2816.28 5873.97 2835.37 6000.32 2733.48 5996.46C2631.59 5992.59 2423.73 5910.65 2353.16 6019.84C2280.22 6133.96 2344.15 6271.24 2503.31 6415.18C2662.48 6559.11 3001.83 6887.1 3032.29 6916.91C3062.75 6946.73 3085.06 7008.08 3015.13 7016.44C2945.2 7024.81 2449.26 6966.68 2435.96 7203.71C2422.66 7440.74 2933.83 7768.51 2988.96 7805.41C3044.09 7842.3 3053.31 7871.04 3040.44 7903.22C3027.57 7935.4 2863.26 7900 2721.47 7889.06C2579.68 7878.12 2413.22 7890.78 2416.86 8028.06C2420.51 8165.35 2689.08 8512.85 3472.03 8771.12L3842.92 8867.01L4116.84 8597.16C4668.13 7983.88 4728.41 7549.07 4663.41 7428.08C4598.42 7307.1 4448.9 7378.96 4330.07 7458.76C4211.23 7538.56 4086.81 7651.82 4060.21 7630.37C4033.61 7608.92 4026.75 7579.31 4056.35 7519.89C4085.95 7460.48 4366.75 6922.06 4237.18 6723C4107.62 6523.93 3706.06 6820.38 3641.71 6847.63C3577.36 6874.87 3565.77 6810.09 3577.36 6769.76C3588.94 6729.43 3719.79 6276.39 3787.14 6071.53C3854.5 5866.68 3841.63 5716.09 3721.5 5653.46C3605.67 5593.18 3466.45 5768.22 3379.79 5822.27C3293.13 5876.33 3247.23 5757.92 3247.23 5757.92C3247.23 5757.92 3209.47 5447.96 3056.31 4892.38C2903.16 4336.8 2658.83 4436.34 2658.83 4436.34" fill="#EBEBEB"/>
<path d="M3842.7 8959.25C3731.8 8551.68 3546.68 7822.35 3384.73 7196.2C3222.77 6570.05 3075.62 6005.47 2966.65 5596.61C2912.16 5392.4 2867.98 5227.23 2837.94 5112.47C2822.93 5055.62 2811.13 5011.22 2802.98 4980.76L2793.97 4946.44C2792.04 4938.72 2791.4 4934.64 2791.4 4934.64C2791.4 4934.64 2792.9 4938.29 2795.26 4946.01C2797.62 4953.73 2800.83 4965.53 2805.13 4980.12C2813.92 5010.58 2826.58 5054.55 2842.45 5111.18C2874.63 5225.08 2920.1 5390.04 2975.44 5594.25C3086.35 6001.82 3235 6568.34 3396.95 7193.2C3558.91 7818.06 3742.53 8548.03 3851.5 8956.89" fill="#E0E0E0"/>
<path d="M2639.31 6147.26C2647.88 6150.79 2656.07 6155.17 2663.76 6160.34C2678.99 6169.35 2700.87 6183.08 2728.12 6200.24C2781.53 6234.77 2854.25 6284.33 2933.4 6340.31L3135.47 6484.46L3197.03 6527.36C3204.8 6532.19 3211.99 6537.87 3218.48 6544.31C3209.83 6540.81 3201.56 6536.43 3193.81 6531.23C3178.58 6522.22 3156.7 6508.49 3129.46 6491.11C3076.48 6456.15 3004.4 6405.31 2925.25 6349.54L2722.11 6206.89L2660.33 6163.99C2652.75 6159.18 2645.7 6153.57 2639.31 6147.26Z" fill="#E0E0E0"/>
<path d="M3249.59 6526.51C3246.8 6524.79 3342.25 6370.56 3462.59 6182.01C3582.93 5993.45 3683.11 5842.01 3685.9 5843.73C3688.69 5845.44 3593.23 5999.89 3472.68 6188.44C3352.12 6376.99 3252.38 6527.79 3249.59 6526.51Z" fill="#E0E0E0"/>
<path d="M3455.09 7497.8C3461.02 7490.39 3467.87 7483.76 3475.46 7478.06L3533.17 7427.44C3581.86 7384.54 3649 7325.34 3720.65 7257.12C3792.29 7188.91 3855.36 7125.2 3900.41 7078.65C3921.86 7057.2 3939.45 7038.11 3953.82 7023.52C3960.31 7016.33 3967.5 7009.79 3975.27 7004C3970.52 7012.2 3964.75 7019.77 3958.11 7026.53C3946.52 7040.47 3929.15 7060.2 3907.27 7084.23C3864.37 7132.49 3801.73 7197.49 3729.66 7265.7C3657.58 7333.92 3589.8 7392.69 3539.6 7433.88C3514.29 7455.33 3493.7 7470.77 3479.11 7481.71C3471.72 7487.94 3463.66 7493.34 3455.09 7497.8Z" fill="#E0E0E0"/>
<path d="M2827.65 7276.21C2836.31 7277.25 2844.81 7279.34 2852.96 7282.43L2920.96 7303.88C2978.02 7322.12 3056.74 7348.07 3143.4 7377.25C3230.07 7406.42 3308.36 7433.88 3364.78 7454.26L3431.49 7478.71C3439.8 7481.31 3447.78 7484.83 3455.3 7489.22C3446.63 7488.34 3438.12 7486.32 3429.99 7483.21L3361.99 7461.76C3304.93 7443.53 3226.2 7417.57 3139.54 7388.19C3052.88 7358.8 2974.59 7331.56 2918.17 7311.39L2851.46 7286.72C2843.09 7284.3 2835.08 7280.77 2827.65 7276.21Z" fill="#E0E0E0"/>
<path d="M2900.15 8156.77C2911.19 8158.42 2922.04 8161.15 2932.54 8164.92L3019.63 8191.52C3093 8214.47 3194.03 8246.86 3305.57 8283.54C3417.12 8320.23 3517.72 8353.69 3590.44 8378.79L3676.24 8408.82C3686.92 8412.23 3697.32 8416.47 3707.35 8421.47C3696.24 8419.84 3685.31 8417.11 3674.74 8413.32L3587.65 8386.72C3514.29 8363.77 3413.26 8331.38 3301.71 8294.7C3190.17 8258.02 3089.56 8224.34 3017.06 8199.46L2931.26 8169.21C2920.53 8166.01 2910.12 8161.85 2900.15 8156.77Z" fill="#E0E0E0"/>
<path d="M3689.76 8409.68C3697.31 8400.4 3705.71 8391.86 3714.86 8384.15L3785.86 8317.44C3845.71 8261.02 3928.08 8182.73 4016.67 8093.7C4105.26 8004.68 4183.56 7922.1 4239.76 7862.04L4306.25 7790.82C4314.08 7781.72 4322.62 7773.26 4331.78 7765.51C4325.53 7775.59 4318.35 7785.07 4310.33 7793.82C4295.74 7811.63 4273.86 7836.72 4245.98 7867.61C4191.28 7929.39 4114.06 8013.05 4025.03 8102.07C3936.01 8191.09 3853.43 8268.74 3791.65 8323.66C3760.76 8350.9 3735.66 8372.99 3717.86 8388.01C3709.11 8396 3699.71 8403.25 3689.76 8409.68Z" fill="#E0E0E0"/>
<path d="M1556.69 1105.88L1347.33 1041.53C1347.33 1041.53 1292.41 1217.42 1108.79 1163.58C1073.24 1153.79 1041.62 1133.2 1018.29 1104.64C994.962 1076.09 981.088 1040.99 978.586 1004.2C975.837 973.18 980.534 941.951 992.287 913.11C1004.04 884.27 1022.51 858.652 1046.16 838.387C1100 790.766 1194.38 761.808 1327.59 830.665L1474.96 358.746L1267.96 294.394L1182.15 570.895C1182.15 570.895 868.114 555.236 768.368 875.068C672.911 1181.17 925.173 1337.98 1042.72 1374.66C1131.96 1402.54 1445.36 1476.33 1556.69 1105.88Z" fill="#F5F5F5"/>
<path d="M1296 196.17L1506.09 261.728L1567.31 65.558L1357.21 8.29595e-06L1296 196.17Z" fill="#F5F5F5"/>
<path d="M2134.36 573.04L2218.23 551.589C2215.67 542.064 2215.05 532.121 2216.41 522.352C2217.77 512.583 2221.08 503.187 2226.14 494.722C2231.2 486.257 2237.92 478.897 2245.88 473.078C2253.85 467.26 2262.9 463.102 2272.5 460.852C2286.48 456.634 2301.42 456.866 2315.25 461.516C2329.09 466.167 2341.14 475.005 2349.72 486.808C2357.02 496.608 2361.89 507.994 2363.94 520.035C2365.99 532.077 2365.16 544.433 2361.52 556.094C2353.59 583.337 2328.06 612.939 2268.86 617.872L2318.84 806.854L2401.64 785.404L2372.46 674.717C2403.86 655.779 2428.16 627.038 2441.61 592.925C2455.06 558.812 2456.92 521.222 2446.9 485.95C2414.72 363.251 2296.74 363.894 2250.19 376.121C2214.16 384.487 2093.82 425.458 2134.36 573.04Z" fill="#EBEBEB"/>
<path d="M2430.85 812.963L2346.37 835.607L2367.51 914.467L2451.99 891.823L2430.85 812.963Z" fill="#EBEBEB"/>
<path d="M9058.9 2744.08L9140.42 2773.47C9143.84 2764.24 9149.07 2755.78 9155.81 2748.61C9162.54 2741.43 9170.65 2735.67 9179.64 2731.68C9188.64 2727.68 9198.34 2725.52 9208.18 2725.33C9218.02 2725.14 9227.8 2726.92 9236.95 2730.57C9250.68 2734.98 9262.7 2743.54 9271.38 2755.06C9280.06 2766.58 9284.97 2780.5 9285.42 2794.92C9285.93 2807.22 9283.51 2819.47 9278.36 2830.66C9273.22 2841.84 9265.49 2851.65 9255.82 2859.27C9234.37 2877.07 9195.97 2886.73 9144.49 2857.13L9077.78 3040.96L9158.43 3070.13L9197.48 2962.88C9234.09 2965.15 9270.43 2955.34 9300.93 2934.95C9331.42 2914.57 9354.39 2884.74 9366.29 2850.05C9409.2 2730.78 9312.45 2664.5 9266.76 2647.98C9231.8 2634.25 9109.53 2599.72 9058.9 2744.08Z" fill="#EBEBEB"/>
<path d="M9146.37 3107.4L9064.49 3077.74L9036.8 3154.18L9118.69 3183.84L9146.37 3107.4Z" fill="#EBEBEB"/>
<path d="M408.208 3677.62L579.815 3611.12C579.815 3611.12 524.043 3466.33 673.555 3405.62C702.17 3393.52 733.836 3390.58 764.188 3397.23C794.539 3403.88 822.081 3419.78 843.017 3442.73C860.829 3461.82 873.882 3484.85 881.113 3509.93C888.344 3535.02 889.55 3561.46 884.632 3587.1C873.906 3646.73 826.714 3715.8 702.514 3739.61L852.67 4128.52L1024.28 4062.88L936.328 3835.07C936.328 3835.07 1150.84 3681.05 1050.23 3417.21C952.631 3164.95 702.943 3193.69 607.058 3230.8C533.052 3259.33 287.655 3374.52 408.208 3677.62Z" fill="#F5F5F5"/>
<path d="M1056.79 4142.04L883.643 4208.74L945.953 4370.48L1119.1 4303.77L1056.79 4142.04Z" fill="#F5F5F5"/>
<path d="M9126.04 4332.09L9003.77 4379.06C9003.77 4379.06 9043.24 4481.81 8937.28 4524.71C8916.99 4533.19 8894.58 4535.23 8873.09 4530.55C8851.61 4525.87 8832.08 4514.69 8817.15 4498.54C8804.53 4485.01 8795.29 4468.69 8790.19 4450.91C8785.08 4433.13 8784.25 4414.39 8787.76 4396.22C8795.49 4353.32 8828.95 4305.27 8916.47 4288.97L8811.36 4012.47L8690.38 4059.02L8752.59 4220.54C8708.56 4254.22 8676.81 4301.44 8662.24 4354.92C8647.67 4408.41 8651.07 4465.2 8671.93 4516.56C8740.79 4695.25 8917.11 4675.08 8985.76 4648.7C9037.67 4628.32 9211.42 4546.81 9126.04 4332.09Z" fill="#F5F5F5"/>
<path d="M8666.44 4002.98L8789.14 3955.71L8745.03 3841.21L8622.33 3888.49L8666.44 4002.98Z" fill="#F5F5F5"/>
<path d="M9471.4 9075.51C9471.4 9078.73 7350.99 9081.09 4735.92 9081.09C2120.84 9081.09 0 9078.73 0 9075.51C0 9072.29 2119.99 9069.93 4735.92 9069.93C7351.85 9069.93 9471.4 9072.51 9471.4 9075.51Z" fill="#263238"/>
<path d="M1360.2 8518.43C1381.65 8439.49 1328.66 8360.34 1270.75 8303.92C1212.83 8247.51 1143.54 8195.6 1113.3 8119.87C1064.39 7997.18 1130.03 7838.44 1046.8 7736.12C997.678 7676.06 909.729 7655.89 866.184 7591.54C846.05 7556.07 832.736 7517.15 826.929 7476.78C780.643 7272.98 680.399 7085.39 536.699 6933.64C527.012 7115.17 566.356 7295.96 650.603 7457.04C684.281 7521.4 725.896 7584.03 736.406 7655.89C754.64 7772.37 689.429 7891.85 718.173 8006.83C750.993 8137.68 897.931 8225.41 904.796 8360.12C910.802 8474.03 811.484 8574.63 818.992 8687.89C825.008 8736.4 842.591 8782.74 870.26 8823.03C958.208 8969.54 1087.77 9070.36 1283.83 9067.14L1524.08 9075.51L1360.2 8518.43Z" fill="#377DE6"/>
<g opacity="0.3">
<path d="M1360.2 8518.43C1381.65 8439.49 1328.66 8360.34 1270.75 8303.92C1212.83 8247.51 1143.54 8195.6 1113.3 8119.87C1064.39 7997.18 1130.03 7838.44 1046.8 7736.12C997.678 7676.06 909.729 7655.89 866.184 7591.54C846.05 7556.07 832.736 7517.15 826.929 7476.78C780.643 7272.98 680.399 7085.39 536.699 6933.64C527.012 7115.17 566.356 7295.96 650.603 7457.04C684.281 7521.4 725.896 7584.03 736.406 7655.89C754.64 7772.37 689.429 7891.85 718.173 8006.83C750.993 8137.68 897.931 8225.41 904.796 8360.12C910.802 8474.03 811.484 8574.63 818.992 8687.89C825.008 8736.4 842.591 8782.74 870.26 8823.03C958.208 8969.54 1087.77 9070.36 1283.83 9067.14L1524.08 9075.51L1360.2 8518.43Z" fill="black"/>
</g>
<path d="M1572.56 9080.44C1594.56 9083.84 1616.99 9083.4 1638.84 9079.16C1665.38 9075.12 1691.46 9068.51 1716.71 9059.42C1751.59 9047.3 1784.21 9029.46 1813.24 9006.65C1830.71 8992.61 1844.36 8974.38 1852.92 8953.67C1860.1 8930.45 1863.86 8906.32 1864.08 8882.02C1864.56 8856.05 1866.49 8830.13 1869.87 8804.37C1874.39 8776.95 1884.31 8750.71 1899.04 8727.15C1927.36 8677.38 1974.55 8630.19 1989.57 8562.62C2004.58 8495.05 1994.28 8424.26 1983.13 8352.19C1971.98 8280.11 1961.68 8202.03 1988.71 8126.52C2015.74 8051.02 2067.22 7983.45 2093.6 7898.93C2119.99 7814.42 2107.54 7721.32 2113.12 7630.58C2114.77 7584.49 2125.41 7539.17 2144.44 7497.16C2163.75 7454.26 2190.77 7414.57 2211.8 7369.95C2254.7 7279.43 2261.99 7176.9 2273.57 7076.29C2279.37 7025.67 2284.94 6974.4 2290.74 6922.92C2294.39 6870.87 2303.37 6819.33 2317.55 6769.12C2333.82 6718.5 2353.02 6668.86 2375.04 6620.46C2386.38 6595.43 2395.7 6569.54 2402.92 6543.02C2406.96 6515.58 2409.54 6487.94 2410.65 6460.22C2413.2 6404.73 2411.05 6349.11 2404.21 6293.98C2397.77 6238.64 2387.69 6183.72 2381.69 6128.16C2381.69 6124.73 2381.69 6121.52 2381.69 6118.51L2380.4 6107.57L2370.75 6112.29C2320.03 6138.32 2275.99 6175.68 2242.04 6221.48C2208.75 6266.32 2181.96 6315.64 2162.46 6367.98C2122.35 6471.16 2107.97 6579.28 2087.81 6682.45C2067.65 6785.63 2041.91 6887.1 1989.14 6972.9C1962.75 7015.8 1930.79 7054.84 1903.33 7096.46C1873.52 7137.07 1853.14 7183.82 1843.7 7233.31C1829.33 7334.99 1885.31 7424.22 1873.73 7514.32C1868.5 7558.45 1853.87 7600.95 1830.83 7638.95C1809.38 7677.34 1783.42 7712.95 1758.97 7748.56C1734.18 7783.49 1712.64 7820.61 1694.62 7859.46C1677.65 7897.49 1667.62 7938.24 1665.01 7979.8C1659.22 8060.89 1670.59 8137.68 1665.01 8210.18C1658.32 8279.29 1638.13 8346.41 1605.6 8407.75C1576.64 8466.74 1544.25 8520.15 1517.22 8572.06C1503.7 8597.8 1491.05 8623.11 1480.75 8648.64C1471.01 8673.14 1463.82 8698.59 1459.3 8724.57C1452.12 8769.94 1451.54 8816.11 1457.58 8861.64C1463.89 8925.14 1487.65 8985.65 1526.23 9036.47C1532.13 9044.15 1538.65 9051.33 1545.75 9057.92C1550.48 9062.89 1555.73 9067.35 1561.41 9071.22C1570.42 9077.87 1575.14 9080.87 1575.14 9080.87C1557.99 9067.32 1542.38 9051.93 1528.59 9034.97C1491.76 8983.97 1469.51 8923.9 1464.23 8861.22C1458.77 8816.26 1459.78 8770.75 1467.24 8726.08C1471.75 8700.72 1478.94 8675.91 1488.69 8652.07C1499.56 8626.26 1511.8 8601.06 1525.37 8576.56C1552.61 8525.08 1585.22 8471.88 1614.82 8412.46C1648.32 8350.17 1669.17 8281.86 1676.17 8211.47C1682.6 8137.46 1671.45 8060.24 1677.46 7981.3C1680.22 7941.08 1690.02 7901.66 1706.41 7864.82C1724.55 7826.78 1746.09 7790.45 1770.77 7756.28C1795.22 7720.67 1821.18 7685.07 1843.49 7645.81C1867.97 7606.37 1883.63 7562.1 1889.39 7516.03C1900.97 7420.15 1845.42 7330.48 1859.79 7235.89C1869.19 7188.56 1888.89 7143.89 1917.49 7105.04C1944.73 7064.06 1976.91 7025.02 2003.29 6981.05C2057.99 6892.89 2084.38 6789.49 2104.33 6685.89C2124.28 6582.28 2139.08 6475.02 2178.55 6373.78C2197.53 6322.89 2223.6 6274.94 2255.98 6231.34C2288.64 6187.39 2331 6151.57 2379.76 6126.66L2368.82 6120.44C2368.82 6123.66 2368.82 6126.88 2369.89 6130.31C2375.9 6186.51 2385.98 6241.42 2391.34 6296.34C2398.11 6350.62 2400.19 6405.37 2397.56 6460.01C2396.48 6486.86 2394.04 6513.63 2390.27 6540.23C2383.33 6565.89 2374.29 6590.93 2363.24 6615.1C2341.1 6664.01 2321.77 6714.15 2305.32 6765.25C2291.02 6816.25 2281.97 6868.58 2278.29 6921.42C2272.72 6973.11 2266.92 7024.38 2261.35 7075C2249.76 7176.04 2242.26 7276.86 2201.29 7364.16C2179.83 7407.06 2154.09 7448.03 2134.14 7491.79C2114.51 7535.38 2103.58 7582.38 2101.97 7630.15C2096.61 7722.82 2108.62 7813.56 2083.52 7895.5C2058.42 7977.44 2006.3 8045.65 1979.91 8123.09C1953.53 8200.53 1963.18 8282.47 1974.76 8354.33C1986.35 8426.19 1997.93 8496.98 1982.49 8560.69C1967.04 8624.4 1922.85 8672.02 1894.11 8723.07C1878.95 8747.65 1868.82 8774.99 1864.29 8803.51C1861.05 8829.56 1859.33 8855.78 1859.14 8882.02C1859.18 8905.71 1855.71 8929.28 1848.85 8951.95C1840.9 8971.6 1828.14 8988.94 1811.74 9002.36C1783.48 9025.14 1751.67 9043.12 1717.57 9055.56C1692.65 9065.17 1666.86 9072.35 1640.56 9077.01C1624.49 9079.93 1608.2 9081.51 1591.87 9081.73C1578.35 9080.44 1572.56 9080.44 1572.56 9080.44Z" fill="#263238"/>
<path d="M2331.49 6251.08C2330.35 6253.38 2329.55 6255.84 2329.13 6258.37L2323.98 6279.82C2319.26 6298.91 2313.47 6327.44 2304.46 6363.05C2295.45 6398.66 2273.36 6438.99 2254.7 6488.54C2232.84 6544.32 2213.8 6601.17 2197.64 6658.86C2179.19 6723.21 2163.1 6794 2145.94 6870.36C2131.36 6951.7 2105.51 7030.61 2069.15 7104.82C2049.41 7143.86 2026.25 7183.33 2009.73 7226.66C1992.41 7270.91 1980.8 7317.19 1975.19 7364.38C1962.99 7462.1 1945.66 7559.12 1923.28 7655.03C1875.23 7851.74 1829.33 8039.22 1787.5 8209.97C1745.67 8380.72 1706.2 8533.45 1673.59 8662.58C1640.99 8791.71 1616.32 8894.68 1598.3 8968.25C1589.94 9003.43 1583.29 9031.11 1578.57 9051.48C1576.64 9060.28 1574.92 9067.36 1573.63 9072.94C1573.4 9075.43 1573.4 9077.95 1573.63 9080.44C1574.88 9078.22 1575.82 9075.84 1576.42 9073.36C1577.92 9067.57 1580.07 9060.71 1582.64 9051.91C1588.01 9031.96 1595.51 9004.29 1605.17 8969.33C1624.47 8896.4 1651.71 8792.79 1685.39 8665.16C1719.07 8537.52 1758.32 8383.08 1802.3 8213.4C1846.27 8043.72 1890.89 7854.96 1939.37 7658.04C1961.61 7561.87 1978.51 7464.55 1989.99 7366.52C1995.48 7320.47 2006.72 7275.28 2023.46 7232.02C2040.4 7189.12 2062.07 7150.73 2081.8 7111.26C2124.71 7032.96 2141.65 6948.87 2158.6 6873.15C2175.54 6797.43 2190.56 6725.78 2208.15 6661.86C2225.74 6597.94 2244.19 6540.88 2262.63 6491.54C2281.08 6442.2 2301.46 6401.45 2310.25 6364.55C2319.05 6327.66 2323.13 6300.2 2326.99 6280.47C2328.42 6271.6 2329.7 6264.45 2330.85 6259.01C2331.49 6253.65 2331.92 6251.08 2331.49 6251.08Z" fill="#263238"/>
<path d="M1615.03 9081.52C1771.84 8988.2 1816.88 8705.05 1751.46 8534.73C1686.03 8364.41 1571.49 8208.68 1553.9 8026.99C1540.17 7887.35 1586.07 7744.06 1553.9 7607.63C1509.92 7423.37 1330.17 7280.72 1332.31 7091.31C1333.38 6985.12 1393.87 6885.16 1388.94 6778.98C1383.15 6648.99 1283.19 6545.6 1221.41 6431.05C1126.6 6255.37 1120.38 6047.94 1087.99 5851.88C1055.59 5655.82 980.731 5444.31 806.121 5347.57C780.38 5514.67 736.406 5629.22 750.134 5855.52C755.283 5936.82 849.667 6091.48 862.537 6270.6C870.259 6377.85 875.407 6483.82 882.057 6590.22C888.707 6696.61 895.142 6799.58 932.252 6896.53C960.782 6970.97 1006.47 7038.54 1027.71 7115.33C1067.39 7259.7 1015.05 7415.64 1047.23 7562.37C1074.47 7686.35 1160.27 7792.96 1177.86 7918.67C1202.32 8095.21 1088.2 8278.83 1146.55 8447.21C1175.72 8530.87 1244.36 8597.37 1263.88 8684.25C1279.11 8751.17 1262.6 8822.17 1276.32 8889.32C1297.77 8997.86 1504.99 9082.37 1615.46 9075.29" fill="#377DE6"/>
<path d="M849.024 5512.53C848.732 5515.66 848.732 5518.82 849.024 5521.96C849.024 5529.04 851.169 5538.05 852.456 5549.42C856.103 5573.66 860.179 5609.05 868.33 5654.96C876.481 5700.86 900.935 5752.77 919.812 5815.41C938.689 5878.05 959.711 5949.69 977.3 6029.92C994.89 6110.15 1010.33 6199.6 1025.99 6295.48C1041.65 6391.37 1058.81 6495.83 1106.43 6595.79C1127.89 6645.77 1153.2 6695.97 1170.79 6749.59C1188.81 6804.49 1199.91 6861.41 1203.82 6919.06C1212.59 7041.36 1227.99 7163.09 1249.94 7283.72C1297.99 7531.26 1343.68 7767.01 1385.3 7981.73C1426.91 8196.45 1468.74 8388.01 1502.2 8550.18C1535.67 8712.35 1563.12 8841.91 1582.21 8933.29L1603.66 9037.33C1606.24 9048.48 1608.17 9057.28 1609.89 9064.14C1610.47 9067.29 1611.33 9070.37 1612.46 9073.36C1612.84 9070.23 1612.84 9067.06 1612.46 9063.93C1611.17 9056.85 1609.67 9048.05 1607.74 9036.68C1603.02 9011.8 1596.37 8976.62 1588.01 8932C1569.99 8840.41 1545.1 8709.56 1512.71 8548.03C1480.32 8386.51 1441.93 8192.81 1399.24 7978.94C1356.55 7765.08 1313.43 7528.47 1265.17 7281.15C1243.2 7160.51 1227.74 7038.78 1218.84 6916.48C1214.75 6857.65 1203.3 6799.56 1184.73 6743.59C1165.64 6689.1 1140.54 6638.69 1118.45 6588.93C1071.26 6490.47 1054.09 6387.72 1037.79 6292.26C1021.49 6196.81 1005.83 6107.14 987.168 6026.49C968.505 5945.83 948.127 5873.76 927.105 5811.98C906.083 5750.2 882.702 5697.86 873.264 5653.03C863.825 5608.2 859.321 5572.16 854.816 5548.35C852.671 5537.19 850.955 5528.18 849.668 5521.11C849.623 5518.24 849.408 5515.37 849.024 5512.53Z" fill="#263238"/>
<path d="M8413.88 1031.44H8328.07C8328.13 1041.18 8326.24 1050.82 8322.5 1059.81C8318.77 1068.79 8313.27 1076.94 8306.32 1083.76C8299.38 1090.58 8291.14 1095.94 8282.09 1099.52C8273.04 1103.1 8263.37 1104.82 8253.64 1104.59C8239.27 1105.11 8225.1 1101.13 8213.11 1093.21C8201.11 1085.28 8191.88 1073.82 8186.71 1060.4C8182.19 1049.23 8180.38 1037.15 8181.42 1025.15C8182.47 1013.14 8186.34 1001.55 8192.72 991.332C8207.3 967.307 8239.05 945.641 8296.54 955.723V762.666H8212.24V875.497C8177.64 885.681 8147.35 906.934 8126 935.996C8104.65 965.058 8093.42 1000.32 8094.04 1036.38C8094.04 1161.22 8206.02 1190.18 8254.07 1190.18C8290.75 1191.04 8415.59 1182.24 8413.88 1031.44Z" fill="#377DE6"/>
<path d="M8211.59 723.625H8297.18V643.613H8211.59V723.625Z" fill="#377DE6"/>
<path d="M8881.72 917.326C8882.01 913.685 8882.01 910.027 8881.72 906.386C8881.72 898.664 8881.72 888.153 8881.72 874.639C8881.72 867.775 8881.72 859.838 8880.65 851.258C8879.57 842.677 8878.29 833.239 8876.79 823.371C8875.28 813.504 8873.78 801.921 8872.07 790.552L8863.06 754.085C8847.12 691.285 8821.04 631.508 8785.83 577.116C8734.71 496.563 8665.81 428.805 8584.4 379.049C8503 329.294 8411.28 298.865 8316.28 290.104C8287.75 287.584 8259.08 287.011 8230.47 288.388C8216.1 288.388 8201.3 288.387 8187.57 291.176L8143.38 297.826C8082.75 309.095 8024.08 329.11 7969.2 357.245C7911.91 387.561 7859.25 425.917 7812.82 471.149C7765.29 519.324 7725.56 574.616 7695.06 635.033C7662.24 697.32 7640.74 764.938 7631.56 834.74C7628.88 852.425 7627.38 870.269 7627.06 888.153C7625.63 906.063 7625.27 924.042 7625.99 941.994C7630.65 1057.07 7666.62 1168.69 7730.02 1264.83V1258.18C7700.21 1332.61 7670.82 1405.76 7642.08 1476.98L7636.93 1490.06L7650.44 1486.2L7884.26 1421.85L7878.68 1420.56C7957.42 1480.18 8049.16 1520.31 8146.38 1537.68C8191.49 1546.09 8237.45 1548.9 8283.24 1546.05C8305.32 1545.72 8327.34 1543.64 8349.1 1539.83L8381.06 1534.9C8391.57 1532.97 8402.51 1529.75 8411.95 1527.39C8556.03 1490.88 8682.41 1404.26 8768.46 1283.06C8800.55 1238.41 8826.32 1189.54 8845.04 1137.84C8849.11 1126.47 8852.98 1116.39 8856.62 1105.24C8860.27 1094.08 8862.2 1083.78 8864.56 1074.13C8866.92 1064.48 8869.49 1054.61 8871.64 1045.6C8873.78 1036.59 8874.43 1027.8 8875.71 1019.43C8877.64 1002.91 8880.65 988.328 8881.29 976.53C8881.93 964.732 8881.29 953.363 8881.29 944.354C8881.29 935.345 8881.29 929.768 8881.29 924.834C8881.29 919.9 8881.29 918.184 8881.29 918.184C8880.96 920.388 8880.96 922.63 8881.29 924.834C8881.29 929.768 8881.29 936.203 8879.79 944.354C8878.29 952.505 8878.5 963.874 8877.64 976.316C8876.79 988.757 8873.57 1003.34 8870.99 1019.22C8850.53 1137.94 8796.04 1248.17 8714.13 1336.51C8632.22 1424.85 8526.42 1487.51 8409.59 1516.88C8399.5 1519.24 8389.42 1522.24 8379.13 1524.17L8347.59 1528.89C8326.32 1532.44 8304.81 1534.38 8283.24 1534.68C8238.29 1537.05 8193.22 1534.1 8148.96 1525.89C8054 1508.41 7964.46 1468.96 7887.47 1410.7L7884.9 1408.55H7881.68L7647.65 1472.9L7655.8 1482.13L7743.97 1263.54L7745.25 1260.11L7743.32 1256.89C7701.08 1192.99 7671.11 1121.77 7654.95 1046.89C7647.54 1012.15 7643.09 976.843 7641.65 941.351C7640.93 923.827 7641.29 906.276 7642.72 888.796C7642.85 871.339 7644.29 853.915 7647.01 836.671C7655.24 768.505 7675.51 702.341 7706.86 641.254C7736.67 582.209 7775.37 528.094 7821.62 480.801C7867.05 436.397 7918.63 398.759 7974.78 369.043C8028.43 341.136 8085.89 321.26 8145.31 310.053L8188.21 303.403C8202.59 301.258 8216.96 301.472 8231.12 300.4C8259.08 299.07 8287.09 299.571 8314.99 301.901C8408.43 310.081 8498.78 339.446 8579.17 387.765C8659.57 436.084 8727.9 502.087 8778.97 580.762C8814.37 634.206 8840.88 693.027 8857.48 754.943L8867.13 790.981C8869.06 802.35 8870.78 812.431 8872.5 823.157C8874.21 833.882 8875.5 842.463 8877 851.043C8878.5 859.623 8878.07 867.346 8878.72 874.21C8878.72 887.509 8880.43 898.02 8881.08 905.743C8880.67 909.613 8880.88 913.524 8881.72 917.326Z" fill="#263238"/>
<path d="M2484.86 3447.02H3723.65C3723.65 3447.02 3723.65 2406.87 4804.56 2388.42C5365.93 2378.56 5657.01 2746.44 5775.42 3028.09C5912.71 3355.21 5871.09 3728.03 5687.05 4031.56C5477.04 4377.99 5024.43 4726.14 4189.56 4578.98L4181.63 7339.06H5406.68V5702.79C5406.68 5702.79 7124.68 5258.76 7124.68 3364.65C7124.68 1553.13 5659.8 1161.87 4872.34 1136.55C4434.32 1122.61 4275.58 1103.73 3733.73 1180.74C3043.23 1279.42 2470.28 2081.25 2484.86 3447.02Z" fill="#377DE6"/>
<path d="M5421.49 7914.38H4178.2V9075.51H5421.49V7914.38Z" fill="#377DE6"/>
<path opacity="0.1" d="M5421.49 7914.38H4178.2V9075.51H5421.49V7914.38Z" fill="black"/>
<path opacity="0.1" d="M2484.86 3447.02H3723.65C3723.65 3447.02 3723.65 2406.87 4804.56 2388.42C5365.93 2378.56 5657.01 2746.44 5775.42 3028.09C5912.71 3355.21 5871.09 3728.03 5687.05 4031.56C5477.04 4377.99 5024.43 4726.14 4189.56 4578.98L4181.63 7339.06H5406.68V5702.79C5406.68 5702.79 7124.68 5258.76 7124.68 3364.65C7124.68 1553.13 5659.8 1161.87 4872.34 1136.55C4434.32 1122.61 4275.58 1103.73 3733.73 1180.74C3043.23 1279.42 2470.28 2081.25 2484.86 3447.02Z" fill="black"/>
<path d="M1971.55 3447.02H3210.55C3210.55 3447.02 3210.55 2406.87 4291.45 2388.42C4852.82 2378.56 5143.91 2746.44 5262.11 3028.09C5399.61 3355.21 5357.99 3728.03 5173.94 4031.56C4963.94 4377.99 4503.39 4692.89 3668.52 4546.38V7339.06H4893.58V5702.79C4893.58 5702.79 6611.58 5258.76 6611.58 3364.65C6611.58 1553.13 4986.89 1132.48 4291.67 1132.48C3759.9 1133.12 1948.17 1261.61 1971.55 3447.02Z" fill="#377DE6"/>
<path opacity="0.3" d="M1971.55 3447.02H3210.55C3210.55 3447.02 3210.55 2406.87 4291.45 2388.42C4852.82 2378.56 5143.91 2746.44 5262.11 3028.09C5399.61 3355.21 5357.99 3728.03 5173.94 4031.56C4963.94 4377.99 4503.39 4692.89 3668.52 4546.38V7339.06H4893.58V5702.79C4893.58 5702.79 6611.58 5258.76 6611.58 3364.65C6611.58 1553.13 4986.89 1132.48 4291.67 1132.48C3759.9 1133.12 1948.17 1261.61 1971.55 3447.02Z" fill="black"/>
<path d="M4908.38 7914.38H3665.09V9075.51H4908.38V7914.38Z" fill="#377DE6"/>
<path opacity="0.3" d="M4908.38 7914.38H3665.09V9075.51H4908.38V7914.38Z" fill="black"/>
<path d="M4431.31 2394C4425.18 2394.53 4419 2394.53 4412.87 2394C4400.64 2394 4383.05 2389.93 4360.1 2389.71C4295.2 2386.52 4230.15 2389.25 4165.75 2397.86C4070.25 2409.95 3976.29 2432.02 3885.39 2463.72C3831.81 2482.45 3779.62 2504.95 3729.23 2531.07C3674.76 2558.29 3623.46 2591.46 3576.28 2629.96C3529.43 2668.81 3487.44 2713.18 3451.23 2762.1C3416.9 2807.33 3385.59 2854.76 3357.49 2904.1C3310.57 2988.13 3273.37 3077.23 3246.58 3169.66C3228.43 3232.05 3215.93 3295.95 3209.26 3360.58C3206.69 3383.31 3206.04 3401.33 3205.4 3413.35C3205.41 3419.54 3204.84 3425.71 3203.68 3431.79C3203.13 3425.66 3203.13 3419.48 3203.68 3413.35C3203.68 3401.12 3203.68 3383.1 3205.61 3360.15C3210.55 3294.82 3221.97 3230.15 3239.72 3167.09C3265.52 3073.58 3302.24 2983.44 3349.12 2898.53C3377.28 2848.64 3408.74 2800.7 3443.29 2755.02C3479.81 2705.3 3522.31 2660.27 3569.85 2620.95C3617.6 2581.92 3669.54 2548.32 3724.72 2520.78C3775.43 2494.18 3827.98 2471.24 3881.96 2452.13C3973.68 2420.56 4068.54 2398.99 4164.9 2387.78C4229.72 2379.82 4295.18 2378.31 4360.31 2383.28C4378.01 2384.41 4395.63 2386.56 4413.08 2389.71C4419.25 2390.71 4425.35 2392.15 4431.31 2394Z" fill="#263238"/>
<path d="M6297.97 2173.27C6297.97 2173.27 6296.47 2171.77 6293.89 2168.55C6291.32 2165.34 6287.46 2159.76 6283.17 2153.54L6242.19 2095.62C6233.4 2083.18 6223.96 2068.81 6212.81 2054.01L6174.2 2007.03L6130.01 1952.76C6113.92 1933.88 6095.04 1915.65 6076.16 1895.7C6057.29 1875.75 6037.98 1854.51 6016.1 1834.13C5994.22 1813.76 5970.84 1792.95 5946.82 1771.5C5934.8 1760.77 5923.01 1750.05 5910.14 1738.68L5870.24 1707.15C5842.99 1685.7 5815.97 1664.24 5786.58 1642.79C5658.49 1551.15 5522.61 1470.9 5380.51 1402.97L5267.47 1351.92L5155.28 1309.02C5118.6 1293.79 5081.28 1283.06 5045.24 1271.05C5009.2 1259.04 4974.02 1246.81 4937.98 1238.45L4835.45 1211.63C4802.2 1202.84 4769.17 1197.47 4737.63 1190.18C4706.1 1182.89 4675.64 1176.45 4645.82 1172.81L4560.02 1160.36C4505.75 1151.14 4455.98 1149.21 4412.65 1144.92C4391.2 1143.2 4369.75 1140.84 4351.95 1139.99L4300.89 1138.7L4230.11 1136.34H4211.66H4205.44C4207.5 1136.02 4209.6 1136.02 4211.66 1136.34H4230.11H4300.89H4352.16C4370.82 1136.34 4391.2 1138.91 4413.08 1140.41C4455.98 1144.06 4506.61 1145.56 4560.88 1154.36L4646.68 1165.94C4676.5 1169.37 4706.96 1177.1 4738.71 1182.89C4770.45 1188.68 4803.06 1194.69 4837.16 1204.34L4940.13 1230.94C4975.74 1239.09 5010.92 1252.39 5047.38 1263.33C5083.85 1274.27 5120.96 1284.78 5157.64 1301.08L5270.47 1343.98L5384.16 1395.25C5527.01 1463.33 5663.42 1544.17 5791.73 1636.79C5821.33 1658.24 5848.36 1681.19 5875.6 1702.43L5915.5 1731.39C5928.37 1742.11 5940.17 1752.84 5952.18 1764.42L6021.25 1828.77C6042.7 1850.22 6062.01 1871.67 6081.1 1891.19C6100.19 1910.71 6118.42 1929.81 6134.51 1948.9L6177.41 2003.6L6215.6 2051.22C6226.54 2066.23 6235.76 2080.82 6244.34 2094.12C6261.07 2119.22 6274.16 2138.95 6283.38 2153.11L6293.46 2168.77C6295.15 2170.07 6296.67 2171.58 6297.97 2173.27Z" fill="#263238"/>
<path d="M6168.83 4833.18C6166.28 4837.82 6163.19 4842.14 6159.61 4846.05L6130.01 4881.01C6117.78 4896.67 6102.33 4915.33 6083.24 4936.14C6064.15 4956.95 6043.77 4981.4 6018.89 5006.71C5994.01 5032.03 5967.41 5060.34 5937.16 5088.87C5906.92 5117.4 5874.1 5147.43 5839.13 5178.75C5685.77 5312.61 5517.66 5428.54 5338.04 5524.32C5296.43 5545.77 5257.17 5567.22 5219.2 5583.74C5181.24 5600.26 5145.84 5617.21 5113.24 5630.93C5080.63 5644.66 5050.6 5656.03 5024.43 5666.11C4998.26 5676.19 4975.31 5684.35 4956.43 5690.35L4913.53 5704.3C4908.55 5706.27 4903.37 5707.71 4898.08 5708.59C4902.71 5705.94 4907.6 5703.78 4912.67 5702.15L4955.57 5686.28C4974.23 5679.63 4996.76 5671.05 5022.71 5660.32C5048.67 5649.6 5078.7 5638.87 5110.88 5623.64C5143.05 5608.41 5178.66 5594.04 5215.77 5575.38C5252.88 5556.71 5292.57 5536.98 5333.97 5515.31C5415.69 5470.27 5503.86 5417.5 5592.88 5356.58C5681.9 5295.66 5761.91 5231.52 5833.13 5171.03C5868.09 5140.14 5901.55 5111.18 5931.37 5082.01C5961.19 5052.83 5989.07 5026.45 6013.74 5001.14C6038.41 4975.82 6060.08 4952.44 6079.38 4931.85C6098.69 4911.26 6114.56 4893.24 6127.43 4878.22L6157.46 4844.12C6160.95 4840.17 6164.75 4836.51 6168.83 4833.18Z" fill="#263238"/>
<path d="M4871.92 7241.68C4868.7 7241.68 4866.12 6897.18 4866.12 6472.24C4866.12 6047.29 4868.7 5702.58 4871.92 5702.58C4875.13 5702.58 4877.49 6047.08 4877.49 6472.24C4877.49 6897.39 4874.92 7241.68 4871.92 7241.68Z" fill="#263238"/>
<path d="M4919.11 8996.78C4915.89 8996.78 4913.53 8755.03 4913.53 8456.87C4913.53 8158.7 4915.89 7916.73 4919.11 7916.73C4922.32 7916.73 4924.68 8158.49 4924.68 8456.87C4924.68 8755.25 4922.11 8996.78 4919.11 8996.78Z" fill="#263238"/>
<path d="M6138.59 3282.5C6117.14 3325.4 6197.15 3360.58 6243.27 3374.52C6290.32 3386.07 6339.01 3389.41 6387.2 3384.39C6451.55 3380.95 6517.41 3374.95 6572.97 3343.2C6621.62 3313.06 6660.51 3269.48 6684.94 3217.71C6709.03 3166.12 6728.06 3112.31 6741.78 3057.05C6741.78 3057.05 6234.9 3090.08 6138.59 3282.5Z" fill="#377DE6"/>
<g opacity="0.4">
<path d="M6138.59 3282.5C6117.14 3325.4 6197.15 3360.58 6243.27 3374.52C6290.32 3386.07 6339.01 3389.41 6387.2 3384.39C6451.55 3380.95 6517.41 3374.95 6572.97 3343.2C6621.62 3313.06 6660.51 3269.48 6684.94 3217.71C6709.03 3166.12 6728.06 3112.31 6741.78 3057.05C6741.78 3057.05 6234.9 3090.08 6138.59 3282.5Z" fill="black"/>
</g>
<path d="M7570.22 3145.21C7653.78 3204.48 7753.92 3235.86 7856.37 3234.87C7905.48 3237.61 7953.9 3222.36 7992.58 3191.97C8009.1 3176.74 8021.54 3157.44 8038.49 3142.85C8050.07 3132.98 8063.58 3125.48 8074.52 3114.96C8080.3 3109.99 8084.75 3103.67 8087.48 3096.56C8090.22 3089.44 8091.14 3081.77 8090.18 3074.21C8085.95 3055.58 8075.51 3038.94 8060.58 3027.02C8002.45 2993.98 7932.95 2995.27 7866.02 2996.77C7799.04 2999.67 7732.88 3012.61 7669.75 3035.17C7617.84 3052.76 7563.57 3078.07 7537.18 3125.26" fill="#377DE6"/>
<g opacity="0.4">
<path d="M8090.18 3074.21C8082.6 3056.11 8069.25 3041.03 8052.22 3031.31C7994.08 2998.27 7932.95 2995.27 7866.02 2996.77C7799.04 2999.67 7732.88 3012.61 7669.75 3035.17C7617.84 3052.76 7563.57 3078.07 7537.18 3125.26L7570.22 3145.21C7653.78 3204.48 7753.92 3235.86 7856.37 3234.87C7905.48 3237.61 7953.9 3222.36 7992.58 3191.97C8009.1 3176.74 8021.54 3157.44 8038.49 3142.85C8050.07 3132.98 8063.58 3125.48 8074.52 3114.96C8080.3 3109.99 8084.75 3103.67 8087.48 3096.56C8090.22 3089.44 8091.14 3081.77 8090.18 3074.21Z" fill="black"/>
</g>
<path d="M6580.47 3915.08L7649.8 3929.24C7651.98 3929.23 7654.12 3928.72 7656.06 3927.73C7658.01 3926.75 7659.69 3925.33 7660.98 3923.58C7662.28 3921.82 7663.14 3919.79 7663.51 3917.65C7663.88 3915.5 7663.74 3913.3 7663.1 3911.22L7537.61 3519.96C7537.61 3519.96 7556.06 3324.32 7581.59 3089.22C7620.41 2732.07 7672.11 2283.1 7672.75 2284.39C7599.6 2079.32 7168.01 2044.57 7168.01 2044.57L6676.15 2073.74L6658.98 2044.78L6517.41 2110.64C6486.53 2125 6456.84 2141.79 6428.6 2160.83C6335.08 2223.25 6109.84 2366.76 6068.66 2526.57C5973.63 2896.6 6134.51 3309.52 6134.51 3309.52L6237.9 3228.65C6263.95 3208.59 6291.33 3190.31 6319.85 3173.95L6527.06 3729.32C6514.73 3737.09 6504.29 3747.52 6496.5 3759.84C6488.7 3772.16 6483.76 3786.06 6482.02 3800.53C6480.3 3845.58 6503.47 3899.64 6580.47 3915.08Z" fill="#377DE6"/>
<g opacity="0.3">
<path d="M7039.31 3260.4C7073.2 3078.07 7055.4 2890.59 7037.16 2706.11C6977.96 2856.27 6980.1 3027.87 6917.25 3176.74C6909.55 3192.46 6903.92 3209.12 6900.52 3226.29C6898.88 3234.92 6899.31 3243.81 6901.77 3252.24C6904.23 3260.66 6908.66 3268.39 6914.68 3274.77C6931.84 3290.43 6957.58 3281.85 6980.32 3279.28C7000.67 3275.39 7020.48 3269.06 7039.31 3260.4Z" fill="black"/>
</g>
<g opacity="0.4">
<path d="M6644.83 3682.55C6730.63 3712.37 6822.01 3656.81 6912.75 3646.95C6972.81 3640.51 7032.87 3654.24 7092.51 3663.89C7213.09 3683.4 7335.77 3686.43 7457.17 3672.9C7475.8 3671.88 7494.03 3667.14 7510.8 3658.96C7519.46 3653.05 7526.55 3645.12 7531.45 3635.84C7536.34 3626.57 7538.9 3616.25 7538.9 3605.76C7336.83 3584.31 7134.98 3572.73 6932.91 3551.92C6882.61 3543.34 6831.1 3545.01 6781.47 3556.85C6720.55 3575.73 6674.21 3623.56 6631.31 3670.97" fill="black"/>
</g>
<path d="M8059.29 3003.85C7971.99 2807.14 7664.17 2263.15 7664.17 2263.15L7425.85 2561.96L7481.41 3148.64C7481.41 3148.64 7607.33 3008.14 7959.33 3005.35C7984.92 3006.37 8009.94 3013.11 8032.59 3025.06C8055.23 3037.01 8074.91 3053.88 8090.18 3074.42L8059.29 3003.85Z" fill="#377DE6"/>
<path d="M6628.31 2899.81C6611.31 2858.11 6597.82 2815.06 6587.98 2771.11C6574.66 2728.3 6564.9 2684.46 6558.81 2640.04C6575.56 2681.82 6588.97 2724.85 6598.92 2768.75C6612.25 2811.57 6622.08 2855.4 6628.31 2899.81Z" fill="#263238"/>
<path d="M7407.83 2522.28C7415.59 2527.76 7422.78 2534.01 7429.28 2540.94C7448.23 2559.24 7466 2578.73 7482.48 2599.29C7537.95 2667.09 7576.94 2746.83 7596.39 2832.24C7606.48 2879.46 7608.73 2928.02 7603.04 2975.96C7597.67 3019.94 7589.31 3058.55 7583.73 3091.15C7578.15 3123.76 7574.72 3150.36 7573 3168.81C7572.96 3178.39 7571.95 3187.95 7570 3197.34C7568.48 3187.76 7568.05 3178.05 7568.72 3168.38C7569.66 3142.09 7572.09 3115.88 7576.01 3089.87C7580.51 3057.05 7588.02 3018.01 7592.95 2974.89C7597.92 2928.03 7595.38 2880.67 7585.45 2834.6C7566.23 2750.78 7528.97 2672.16 7476.26 2604.22C7437.01 2551.45 7406.12 2523.99 7407.83 2522.28Z" fill="#263238"/>
<path d="M7189.46 3867.89C7182.01 3871.21 7174.15 3873.52 7166.08 3874.75C7156.92 3877.17 7147.6 3878.96 7138.2 3880.12C7127.26 3881.62 7114.82 3883.98 7100.87 3884.62C7068.19 3887.62 7035.31 3887.62 7002.63 3884.62C6962.64 3880.51 6923.14 3872.61 6884.65 3861.02C6846.35 3848.72 6809.29 3832.84 6773.96 3813.62C6745.32 3797.63 6718.11 3779.19 6692.66 3758.49C6681.51 3749.91 6672.5 3740.9 6664.35 3733.39C6657.32 3727.06 6650.66 3720.33 6644.4 3713.23C6638.43 3707.71 6633.3 3701.35 6629.17 3694.35C6630.67 3692.85 6653.62 3718.59 6697.6 3752.27C6723.29 3771.81 6750.47 3789.32 6778.9 3804.61C6813.83 3822.96 6850.29 3838.25 6887.87 3850.3C6925.7 3861.7 6964.46 3869.74 7003.7 3874.32C7035.75 3877.77 7068.02 3878.78 7100.23 3877.33C7155.36 3874.32 7189.04 3866.17 7189.46 3867.89Z" fill="#263238"/>
<path d="M7519.59 3746.05C7524.64 3755.75 7527.5 3766.44 7527.96 3777.37C7531.38 3803.52 7529.41 3830.09 7522.17 3855.45C7514.8 3881.39 7499.86 3904.54 7479.26 3921.95C7463.61 3935.03 7451.59 3939.11 7450.95 3938.03C7450.31 3936.96 7460.39 3929.88 7473.9 3916.58C7491.25 3898.49 7503.85 3876.38 7510.58 3852.23C7527.74 3795.6 7515.52 3746.26 7519.59 3746.05Z" fill="#263238"/>
<path d="M7461.46 3821.56C7466.11 3843.62 7464.25 3866.56 7456.1 3887.58C7447.95 3908.6 7433.86 3926.8 7415.56 3939.96C7413.2 3937.6 7433.14 3916.37 7445.59 3883.55C7458.03 3850.73 7458.24 3821.77 7461.46 3821.56Z" fill="#263238"/>
<path d="M7270.12 3115.82C7258.76 3135.04 7245.99 3153.39 7231.94 3170.74C7220.85 3190.11 7208.3 3208.61 7194.4 3226.08C7198.52 3203.44 7208.25 3182.2 7222.71 3164.3C7234.15 3144.38 7250.46 3127.7 7270.12 3115.82Z" fill="#263238"/>
<path d="M6536.07 2596.28C6519.73 2586.69 6503.9 2576.23 6488.66 2564.96C6412.38 2514.84 6325.8 2482.52 6235.33 2470.37C6216.39 2468.99 6197.55 2466.48 6178.91 2462.86C6197.92 2460.24 6217.19 2460.24 6236.19 2462.86C6329.12 2470.79 6418.12 2503.94 6493.6 2558.74C6509.43 2569.23 6523.72 2581.86 6536.07 2596.28Z" fill="#263238"/>
<path d="M7664.17 2256.07C7625.78 2286.99 7589.92 2320.92 7556.92 2357.54C7526.53 2396.62 7499.35 2438.08 7475.62 2481.52C7478.16 2466.91 7483.16 2452.84 7490.42 2439.91C7505.95 2407.74 7525.4 2377.63 7548.34 2350.24C7571.34 2322.92 7597.72 2298.62 7626.85 2277.95C7637.94 2268.56 7650.56 2261.16 7664.17 2256.07Z" fill="#263238"/>
<path d="M7222.71 2079.32C7224.67 2082.41 7226.25 2085.72 7227.43 2089.19C7231.62 2098.9 7234.99 2108.94 7237.51 2119.22C7246.56 2157.44 7246.56 2197.25 7237.51 2235.48C7224.16 2292.55 7193.61 2344.14 7149.99 2383.28C7094.94 2429.92 7024.79 2454.93 6952.65 2453.64C6880.44 2453.88 6810.09 2430.78 6752.08 2387.78C6705.86 2352.49 6668.36 2307.07 6642.47 2255C6625.02 2220.14 6612.74 2182.93 6606 2144.53C6604.03 2134.18 6602.74 2123.72 6602.14 2113.21C6601.54 2109.52 6601.54 2105.75 6602.14 2102.06C6602.14 2102.06 6604.5 2117.07 6610.51 2143.67C6618.85 2180.98 6632.05 2217.04 6649.76 2250.92C6675.93 2301.42 6713.09 2345.4 6758.52 2379.63C6814.41 2421.02 6882.02 2443.56 6951.57 2443.98C7021.11 2445.26 7088.79 2421.51 7142.27 2377.06C7184.41 2339.35 7214.3 2289.89 7228.08 2235.05C7237.62 2198.03 7238.94 2159.37 7231.94 2121.79C7227.86 2093.48 7221.43 2079.75 7222.71 2079.32Z" fill="#263238"/>
<g opacity="0.3">
<path d="M7297.79 3153.79C7297.79 3143.07 7296.08 3130.41 7286.64 3125.05C7283.64 3123.54 7280.34 3122.75 7276.98 3122.75C7273.63 3122.75 7270.33 3123.54 7267.33 3125.05C7261.33 3128.29 7256.02 3132.66 7251.67 3137.92C7226.45 3164.16 7206.95 3195.35 7194.4 3229.51L7299.51 3220.29C7298.86 3198.62 7298.44 3175.89 7297.79 3153.79Z" fill="black"/>
</g>
<g opacity="0.3">
<path d="M7646.8 2932.63C7636.23 2872.49 7609.88 2816.22 7570.43 2769.61C7615.91 2918.05 7600.68 3001.92 7575.15 3103.6L7580.73 3089.44C7610.12 3030.02 7654.73 2992.69 7646.8 2932.63Z" fill="black"/>
</g>
<path d="M7436.79 7919.09L7372.65 8881.16L6954.36 8876.23L6888.51 7875.98L7436.79 7919.09Z" fill="#FFBE9D"/>
<path d="M7384.45 8754.6V8782.49C7384.45 8782.49 7856.37 8972.12 7860.87 9061.35L6923.69 9056.2L6938.27 8744.52C7077.92 8809.95 7224 8818.1 7384.45 8754.6Z" fill="#377DE6"/>
<path d="M7033.3 8844.48C7024.41 8847.17 7016.8 8853.02 7011.9 8860.91C7007 8868.81 7005.16 8878.22 7006.7 8887.39C7009 8896.54 7014.75 8904.44 7022.75 8909.44C7030.75 8914.44 7040.37 8916.15 7049.6 8914.2C7059.15 8911.35 7067.29 8905.05 7072.45 8896.52C7077.6 8888 7079.4 8877.86 7077.49 8868.08C7074.09 8858.82 7067.22 8851.24 7058.33 8846.95C7049.44 8842.67 7039.23 8842.02 7029.87 8845.13" fill="white"/>
<path d="M6923.69 9056.2L6927.12 8981.34L7824.62 9013.94C7824.62 9013.94 7866.24 9032.39 7861.3 9061.57L6923.69 9056.2Z" fill="#263238"/>
<path d="M7387.88 8785.07C7387.88 8789.57 7364.72 8791.5 7342.19 8806.52C7319.67 8821.53 7307.44 8840.19 7303.37 8838.48C7299.29 8836.76 7306.16 8810.16 7333.83 8793C7361.5 8775.84 7388.96 8780.13 7387.88 8785.07Z" fill="#263238"/>
<path d="M7485.91 8826.25C7486.99 8830.75 7467.04 8838.26 7451.38 8857.57C7435.72 8876.87 7431.22 8897.25 7426.5 8897.04C7421.78 8896.82 7419.2 8870.87 7439.15 8847.49C7459.1 8824.11 7485.7 8823.03 7485.91 8826.25Z" fill="#263238"/>
<path d="M7541.04 8944.23C7536.75 8944.23 7530.53 8922.78 7542.54 8897.25C7554.56 8871.73 7575.79 8862.5 7577.72 8866.15C7579.65 8869.8 7566.35 8883.31 7556.27 8904.12C7546.19 8924.93 7545.76 8943.8 7541.04 8944.23Z" fill="#263238"/>
<path d="M7360.43 883.005C7384.67 822.942 7355.28 750.224 7303.15 711.398C7248.22 675.235 7181.23 662.208 7116.75 675.146C7053.13 688.485 6991.54 710.121 6933.55 739.499C6906.59 712.307 6872.6 693.144 6835.38 684.151C6798.16 675.157 6759.17 676.687 6722.77 688.569C6686.37 700.451 6653.98 722.218 6629.23 751.439C6604.49 780.659 6588.35 816.184 6582.62 854.046C6559.43 848.208 6535.08 848.796 6512.2 855.746C6489.31 862.696 6468.75 875.745 6452.72 893.495C6436.69 911.244 6425.8 933.023 6421.21 956.495C6416.62 979.967 6418.51 1004.25 6426.67 1026.73L6716.69 1128.62L7033.3 1686.34C7080.09 1726.26 7139.81 1747.79 7201.31 1746.92C7262.82 1746.05 7321.9 1722.83 7367.54 1681.6C7413.19 1640.37 7442.27 1583.94 7449.37 1522.85C7456.47 1461.75 7441.09 1400.16 7406.12 1349.56C7423.86 1333.78 7438.92 1315.24 7450.73 1294.65C7476.04 1279.68 7498.11 1259.84 7515.68 1236.28C7533.24 1212.71 7545.95 1185.88 7553.06 1157.36C7581.16 1033.16 7485.06 897.591 7360.43 883.005Z" fill="#263238"/>
<path d="M7168.44 2044.57C7150.42 1953.83 7137.98 1891.62 7138.2 1892.27C7138.41 1892.91 7309.8 1825.77 7297.36 1587.02C7291.36 1468.18 7246.09 1280.92 7204.05 1129.05C7166.3 992.19 7038.66 841.39 6903.74 884.935L6494.67 1084.43C6453.7 1097.73 6446.62 1136.34 6456.27 1178.17V1199.62L6615.22 1857.3L6682.37 2151.18C6696.68 2211.52 6733.06 2264.32 6784.36 2299.18C6835.65 2334.04 6898.14 2348.43 6959.51 2339.52C6993.03 2334.8 7025.23 2323.29 7054.14 2305.68C7083.04 2288.07 7108.05 2264.74 7127.61 2237.12C7147.18 2209.5 7160.89 2178.17 7167.91 2145.06C7174.93 2111.95 7175.11 2077.75 7168.44 2044.57Z" fill="#FFBE9D"/>
<path d="M7202.55 1287.78C7204.27 1295.39 7203 1303.38 7199.01 1310.08C7195.02 1316.79 7188.61 1321.7 7181.1 1323.82C7177.31 1324.88 7173.34 1325.16 7169.44 1324.64C7165.54 1324.13 7161.78 1322.83 7158.4 1320.83C7155.01 1318.82 7152.06 1316.16 7149.73 1312.98C7147.41 1309.81 7145.74 1306.2 7144.85 1302.37C7143.13 1294.79 7144.4 1286.83 7148.4 1280.16C7152.39 1273.49 7158.8 1268.62 7166.3 1266.55C7170.07 1265.45 7174.03 1265.14 7177.93 1265.63C7181.83 1266.11 7185.59 1267.39 7188.98 1269.38C7192.38 1271.36 7195.33 1274.02 7197.66 1277.18C7199.99 1280.35 7201.66 1283.95 7202.55 1287.78Z" fill="#263238"/>
<path d="M7183.89 1242.09C7180.88 1246.81 7154.93 1235.01 7123.18 1242.09C7091.43 1249.17 7071.27 1269.76 7066.98 1266.55C7062.69 1263.33 7066.98 1257.32 7075.77 1247.88C7087.58 1235.41 7102.93 1226.88 7119.75 1223.43C7136.34 1219.85 7153.65 1221.73 7169.09 1228.79C7181.1 1233.73 7185.17 1240.16 7183.89 1242.09Z" fill="#263238"/>
<path d="M6891.08 1358.14C6892.8 1365.72 6891.53 1373.68 6887.53 1380.35C6883.54 1387.02 6877.13 1391.89 6869.63 1393.96C6865.93 1395.04 6862.05 1395.37 6858.21 1394.94C6854.38 1394.51 6850.67 1393.32 6847.3 1391.45C6843.93 1389.57 6840.96 1387.05 6838.57 1384.02C6836.18 1380.99 6834.42 1377.52 6833.38 1373.8C6831.66 1366.19 6832.93 1358.21 6836.92 1351.5C6840.91 1344.8 6847.32 1339.88 6854.83 1337.76C6858.55 1336.69 6862.45 1336.36 6866.29 1336.81C6870.13 1337.26 6873.85 1338.46 6877.23 1340.36C6880.6 1342.25 6883.56 1344.8 6885.94 1347.86C6888.32 1350.91 6890.07 1354.41 6891.08 1358.14Z" fill="#263238"/>
<path d="M6875.42 1317.81C6872.64 1322.53 6846.47 1310.52 6814.72 1317.81C6782.97 1325.11 6762.81 1345.27 6758.52 1342.27C6754.23 1339.26 6758.52 1333.04 6767.31 1323.39C6779.17 1311.03 6794.51 1302.58 6811.29 1299.15C6827.86 1295.63 6845.13 1297.43 6860.62 1304.3C6871.99 1309.45 6876.93 1315.24 6875.42 1317.81Z" fill="#263238"/>
<path d="M7036.95 1519.45C7052.68 1510.77 7069.38 1504.01 7086.71 1499.29C7094.65 1496.71 7102.16 1493.5 7102.37 1487.7C7101.25 1479.17 7097.59 1471.18 7091.86 1464.75L7054.75 1407.69C7002.84 1326.39 6963.37 1259.04 6966.59 1257.54C6969.81 1256.03 7014.64 1319.74 7066.55 1401.04L7102.8 1458.53C7109.92 1467.33 7113.79 1478.32 7113.74 1489.63C7113.1 1492.72 7111.79 1495.63 7109.9 1498.15C7108.01 1500.67 7105.59 1502.74 7102.8 1504.22C7098.61 1506.44 7094.13 1508.1 7089.5 1509.15C7072.54 1514.96 7054.85 1518.43 7036.95 1519.45Z" fill="#263238"/>
<path d="M7138.2 1892.27C7029.7 1916.79 6916.52 1910.7 6811.29 1874.68C6811.29 1874.68 6923.69 2021.4 7150.42 1951.26L7138.2 1892.27Z" fill="#EB996E"/>
<path d="M6880.79 1272.34C6878.64 1281.56 6845.82 1281.35 6808.5 1290.57C6771.17 1299.79 6741.57 1313.74 6735.56 1306.44C6732.99 1303.01 6737.28 1294 6748.65 1284.99C6763.76 1272.27 6781.71 1263.37 6800.99 1259.04C6820.1 1254.5 6840.01 1254.5 6859.12 1259.04C6874.35 1261.83 6882.29 1268.05 6880.79 1272.34Z" fill="#263238"/>
<path d="M7171.66 1140.84C7166.51 1149.42 7139.05 1147.28 7107.31 1153.5C7075.56 1159.72 7050.46 1170.45 7042.95 1164.23C7039.52 1161.01 7042.95 1152.86 7052.18 1142.77C7066.34 1130.86 7083.46 1123.01 7101.73 1120.04C7119.7 1116.42 7138.31 1117.75 7155.57 1123.9C7168.66 1129.9 7173.8 1136.55 7171.66 1140.84Z" fill="#263238"/>
<path d="M6595.7 930.84C6600.45 954.078 6610.26 975.984 6624.43 995.005C6638.59 1014.03 6656.78 1029.69 6677.68 1040.89C6698.59 1052.09 6721.7 1058.55 6745.39 1059.81C6769.07 1061.07 6792.74 1057.1 6814.72 1048.18C6848.61 1034.45 6883.79 1008.71 6918.11 1021.15C6952.43 1033.59 6966.59 1082.5 6999.41 1100.73C7047.67 1127.76 7106.66 1081 7160.51 1085.72C7203.41 1089.36 7235.8 1122.18 7269.05 1150.07C7302.3 1177.95 7348.2 1198.98 7385.74 1178.81C7377.14 1142.99 7364.4 1108.29 7347.77 1075.42C7331 1042.33 7303.24 1016.09 7269.26 1001.2C7250.38 993.691 7230.01 991.117 7211.99 981.893C7173.16 962.158 7155.79 917.541 7127.69 883.863C7109.23 862.64 7085.98 846.121 7059.87 835.676C7033.76 825.231 7005.53 821.16 6977.53 823.8C6931.2 828.52 6887.22 851.901 6840.46 849.97C6805.92 848.469 6772.89 833.024 6738.35 833.668C6671.21 833.668 6620.8 893.73 6583.48 949.717" fill="#263238"/>
<path d="M6821.8 979.963C6790.91 977.603 6727.84 971.168 6707.03 949.288C6685.9 925.645 6658.92 907.97 6628.8 898.031C6598.69 888.093 6566.49 886.24 6535.43 892.658C6504.61 901.846 6477.55 920.685 6458.25 946.404C6438.94 972.123 6428.4 1003.36 6428.17 1035.52C6390.64 1044.68 6356.28 1063.8 6328.72 1090.88C6301.15 1117.95 6281.42 1151.96 6271.58 1189.32C6261.6 1228.43 6261.26 1269.39 6270.6 1308.66C6279.95 1347.93 6298.68 1384.34 6325.21 1414.77C6338.1 1430.88 6349.85 1447.87 6360.39 1465.61C6345.84 1483.65 6333.06 1503.05 6322.21 1523.53C6273.08 1632.07 6406.29 1673.68 6406.29 1673.68C6406.29 1746.62 6473.86 1746.19 6516.98 1745.97C6560.1 1745.76 6583.91 1860.95 6617.59 1856.44L6583.48 1501C6588.47 1502.95 6593.78 1503.96 6599.14 1504.01C6680.44 1505.51 6659.2 1351.49 6633.03 1310.95C6657.25 1280.8 6677.71 1247.8 6693.95 1212.7C6708.68 1159.05 6709.71 1102.55 6696.95 1048.39C6724.2 1044.96 6835.1 980.821 6821.8 979.963Z" fill="#263238"/>
<path d="M6594.2 1519.88C6591.43 1508.59 6585.85 1498.18 6577.97 1489.62C6570.09 1481.07 6560.17 1474.66 6549.14 1470.97C6538.11 1467.29 6526.33 1466.46 6514.89 1468.56C6503.45 1470.66 6492.73 1475.62 6483.73 1482.98C6462.28 1501.43 6450.91 1532.32 6463.78 1584.02C6498.53 1722.16 6630.03 1658.88 6629.17 1655.02C6628.31 1651.16 6609.22 1576.94 6594.2 1519.88Z" fill="#FFBE9D"/>
<path d="M6573.82 1613.19C6573.82 1613.19 6571.89 1615.55 6568.25 1618.34C6563.18 1622.23 6556.79 1624 6550.44 1623.27C6534.57 1621.56 6516.34 1601.82 6509.47 1576.72C6506.2 1565 6505.54 1552.7 6507.54 1540.69C6507.76 1536.02 6509.1 1531.48 6511.45 1527.45C6513.81 1523.41 6517.1 1520.01 6521.06 1517.52C6523.66 1516.12 6526.67 1515.67 6529.57 1516.26C6532.47 1516.85 6535.08 1518.43 6536.93 1520.74C6539.72 1523.96 6539.5 1526.96 6540.36 1527.17C6541.22 1527.39 6542.72 1523.96 6540.36 1518.59C6538.72 1515.41 6536.08 1512.85 6532.85 1511.3C6528.31 1509.46 6523.24 1509.46 6518.7 1511.3C6513.31 1513.86 6508.65 1517.74 6505.17 1522.57C6501.68 1527.41 6499.47 1533.05 6498.75 1538.97C6495.96 1552.48 6496.48 1566.46 6500.25 1579.73C6502.64 1592.18 6508.66 1603.66 6517.55 1612.7C6526.45 1621.75 6537.81 1627.96 6550.23 1630.57C6554.27 1630.73 6558.29 1629.99 6562 1628.39C6565.71 1626.79 6569.02 1624.39 6571.68 1621.34C6574.47 1616.62 6574.47 1613.41 6573.82 1613.19Z" fill="#EB996E"/>
<path d="M7334.9 1327.04C7334.9 1327.04 7347.56 1317.38 7365.15 1295.93C7389.42 1265.03 7404.31 1227.8 7408.05 1188.68C7410.89 1161.97 7408.26 1134.97 7400.33 1109.31C7391.16 1079.88 7374.19 1053.49 7351.2 1032.95C7324.67 1009.77 7292.54 993.938 7257.99 987.015C7223.45 980.091 7187.7 982.319 7154.28 993.477C7147.85 995.622 7141.84 998.839 7135.84 1001.41C7129.83 1003.99 7124.47 1007.85 7118.89 1011.07L7110.31 1015.79V1006.35C7110.13 989.73 7103.96 973.737 7092.94 961.3C7081.65 949.231 7067.79 939.848 7052.39 933.843C7023.26 921.702 6990.98 919.295 6960.37 926.979C6901.16 940.493 6850.97 967.521 6803.56 973.098C6766.39 979.559 6728.14 971.91 6696.31 951.648C6687.91 945.868 6680.64 938.598 6674.86 930.197C6671.43 924.405 6669.71 921.187 6670.14 920.973C6677.91 931.566 6687.41 940.775 6698.24 948.215C6729.56 966.293 6766.35 972.463 6801.85 965.59C6826.55 960.943 6850.7 953.755 6873.92 944.14C6901.18 933.242 6929.13 924.141 6957.58 916.897C6973.44 913.06 6989.75 911.4 7006.06 911.963C7023.27 912.872 7040.19 916.793 7056.04 923.547C7072.44 930.555 7087.09 941.103 7098.94 954.436C7111.63 968.958 7118.77 987.497 7119.1 1006.78L7110.52 1002.06L7128.33 991.76C7134.98 989.186 7141.2 985.754 7148.06 983.395C7183.28 971.334 7221.06 968.811 7257.57 976.082C7294.08 983.354 7328.01 1000.16 7355.92 1024.79C7380.05 1046.64 7397.71 1074.68 7406.98 1105.88C7416.6 1138.94 7417.9 1173.87 7410.75 1207.56C7403.6 1241.24 7388.23 1272.63 7366 1298.94C7358.94 1307 7350.95 1314.2 7342.19 1320.39C7340.04 1322.89 7337.59 1325.12 7334.9 1327.04Z" fill="#455A64"/>
<path d="M7307.02 842.034C7292.93 834.884 7277.91 829.757 7262.4 826.804C7244.66 824.379 7226.61 826.067 7209.63 831.737C7187.64 838.464 7168.53 852.359 7155.36 871.207L7149.99 878.715L7146.78 870.134C7135.58 843.765 7117.55 820.86 7094.55 803.779C7071.55 786.699 7044.41 776.061 7015.93 772.962C6971.19 771.279 6927.11 784.068 6890.23 809.428C6858.8 829.914 6825.38 847.162 6790.48 860.91C6766.42 870.012 6740.5 873.105 6714.97 869.92C6708.17 868.663 6701.49 866.797 6695.02 864.343C6690.73 862.412 6688.37 861.339 6688.59 860.91C6688.8 860.481 6698.24 863.699 6715.62 865.415C6740.29 866.957 6765 862.925 6787.91 853.617C6821.82 838.827 6854.34 821.023 6885.08 800.419C6904.06 788.631 6924.18 778.785 6945.14 771.031C6968.18 762.631 6992.8 759.479 7017.21 761.807C7047.64 765.129 7076.59 776.638 7100.99 795.109C7125.39 813.581 7144.33 838.323 7155.79 866.702H7147.42C7162.17 846.543 7183.24 831.896 7207.27 825.087C7225.53 819.793 7244.77 818.838 7263.47 822.299C7275.31 824.546 7286.64 828.906 7296.93 835.169C7300.6 836.966 7304 839.277 7307.02 842.034Z" fill="#455A64"/>
<path d="M7024.51 1582.95C7019.5 1578.76 7013.66 1575.67 7007.37 1573.9C7001.09 1572.12 6994.5 1571.7 6988.04 1572.65C6980.49 1574.26 6973.36 1577.44 6967.11 1581.99C6960.87 1586.53 6955.65 1592.34 6951.79 1599.03C6951.79 1599.03 6950.72 1600.11 6950.5 1600.75C6947.55 1605.65 6946.2 1611.35 6946.64 1617.05C6947.57 1623.27 6950.02 1629.16 6953.76 1634.2C6957.5 1639.25 6962.42 1643.31 6968.09 1646.01C6977.16 1650.61 6987.42 1652.29 6997.48 1650.83C7007.54 1649.37 7016.91 1644.84 7024.29 1637.86C7031.3 1630.45 7035.23 1620.65 7035.27 1610.45C7035.31 1600.24 7031.46 1590.41 7024.51 1582.95Z" fill="#377DE6"/>
<path d="M7035.23 1649.66C7033.52 1649.66 7031.59 1643.22 7025.79 1634.43C7018.82 1622.64 7008.39 1613.27 6995.93 1607.59C6983.46 1601.92 6969.55 1600.2 6956.08 1602.68C6945.57 1604.18 6939.13 1607.19 6938.49 1605.68C6937.85 1604.18 6942.78 1599.03 6954.36 1594.96C6969.52 1590.08 6985.96 1591 7000.48 1597.53C7015.14 1604.06 7026.73 1615.96 7032.87 1630.78C7037.38 1641.94 7036.73 1649.44 7035.23 1649.66Z" fill="#263238"/>
<path d="M6597.42 1676.26C6597.42 1676.26 6603.64 1686.98 6595.49 1703.28C6590.88 1713.04 6582.76 1720.7 6572.75 1724.74C6566.51 1726.97 6559.83 1727.73 6553.24 1726.95C6546.65 1726.17 6540.33 1723.87 6534.78 1720.23C6529.14 1716.8 6524.36 1712.11 6520.83 1706.53C6517.29 1700.95 6515.1 1694.62 6514.41 1688.05C6513.76 1677.46 6516.87 1666.98 6523.2 1658.45C6534.35 1644.29 6546.8 1643.87 6546.8 1645.15C6546.8 1646.44 6537.36 1650.09 6529.85 1662.96C6525.5 1670.17 6523.69 1678.62 6524.7 1686.98C6525.5 1691.88 6527.36 1696.54 6530.13 1700.65C6532.91 1704.76 6536.55 1708.22 6540.79 1710.79C6544.98 1713.47 6549.68 1715.24 6554.6 1715.98C6559.51 1716.72 6564.53 1716.41 6569.32 1715.08C6577.24 1712.25 6584.07 1707 6588.84 1700.07C6597.21 1686.77 6595.7 1676.26 6597.42 1676.26Z" fill="#377DE6"/>
<path d="M6525.13 1667.89C6526.2 1667.89 6525.13 1675.18 6515.05 1679.9C6510.1 1681.96 6504.66 1682.56 6499.37 1681.63C6494.09 1680.69 6489.19 1678.27 6485.24 1674.63C6481.29 1671 6478.47 1666.32 6477.1 1661.13C6475.73 1655.94 6475.87 1650.47 6477.51 1645.37C6479.61 1639.57 6483.62 1634.65 6488.88 1631.42C6497.67 1626.06 6504.32 1628.21 6504.11 1629.49C6503.89 1630.78 6498.96 1632.28 6493.6 1637.65C6490.96 1640.94 6489.35 1644.94 6488.98 1649.15C6488.6 1653.36 6489.48 1657.58 6491.49 1661.29C6493.51 1665 6496.58 1668.03 6500.31 1670.01C6504.04 1671.98 6508.27 1672.82 6512.47 1672.4C6519.77 1670.89 6523.63 1667.03 6525.13 1667.89Z" fill="#377DE6"/>
<path d="M6760.88 3572.94C6760.88 3572.94 7292 3603.83 7606.04 3606.62C7849.08 3608.98 7957.62 3544.41 8006.1 3388.03C8046.85 3256.97 7959.34 3005.35 7959.34 3005.35C7794.81 3005.35 7693.34 3028.95 7587.59 3078.5L7615.69 3193.47L6759.38 3267.27L6760.88 3572.94Z" fill="#FFBE9D"/>
<path d="M7794.16 3316.17C7771.13 3286.23 7744.22 3259.46 7714.15 3236.59C7681.89 3216.85 7647.11 3201.55 7610.76 3191.12C7622.21 3189.47 7633.88 3190.5 7644.86 3194.12C7671.85 3200.49 7697.45 3211.76 7720.37 3227.37C7743.34 3243.02 7763.2 3262.8 7778.93 3285.71C7790.94 3303.3 7795.45 3315.53 7794.16 3316.17Z" fill="#EB996E"/>
<path d="M6566.53 3077.64C6566.53 3077.64 6402.22 3117.11 6281.45 3197.76L6410.15 3546.56C6453.06 3661.1 6584.12 3718.16 6689.02 3658.1C6850.54 3565.65 6907.6 3296.22 6907.6 3296.22L7085 2526.57L6790.91 2342.31L6567.6 3077.64" fill="#FFBE9D"/>
<path d="M6789.84 2342.31L6801.85 2089.19L6735.99 1831.78C6732.35 1817.62 6730.63 1799.81 6742.22 1791.23C6747.96 1786.83 6755.05 1784.55 6762.29 1784.78C6769.52 1785.02 6776.45 1787.75 6781.9 1792.52C6799.7 1810.97 6885.51 2035.99 6885.51 2035.99C6885.51 2035.99 7015.71 1957.91 7038.88 1954.05C7062.05 1950.18 7091.01 2020.33 7092.94 2025.69C7093.79 2041.41 7093.79 2057.16 7092.94 2072.88C7092.94 2072.88 7173.38 2075.24 7180.67 2086.18C7186.52 2108.53 7189.62 2131.51 7189.89 2154.61C7189.89 2154.61 7224 2165.55 7229.36 2191.29C7234.73 2217.03 7245.88 2259.51 7229.36 2268.94C7212.85 2278.38 7179.38 2296.83 7179.38 2296.83C7179.38 2296.83 7165.87 2428.11 7162.22 2440.12C7158.58 2452.13 7083.28 2525.92 7083.28 2525.92L6789.84 2342.31Z" fill="#FFBE9D"/>
<path d="M6516.12 3663.25C6516.12 3663.25 6524.06 3667.97 6540.79 3673.33C6565.26 3681.01 6591.14 3683.06 6616.51 3679.34C6657.27 3673.52 6695.45 3655.93 6726.34 3628.71C6767.17 3591.67 6801.66 3548.19 6828.45 3500.01C6844.22 3471.68 6857.5 3442.04 6868.13 3411.42C6879.29 3377.72 6888.53 3343.41 6895.8 3308.67C6912.53 3236.38 6930.77 3158.51 6950.07 3075.71C6988.69 2910.32 7032.02 2725.42 7078.78 2526.14V2524.64H7079.85C7094.65 2510.05 7109.45 2495.25 7124.25 2479.8C7131.55 2472.08 7138.84 2464.36 7145.71 2456.42C7149.14 2452.35 7152.78 2448.27 7155.57 2444.2C7157.74 2440.16 7158.99 2435.69 7159.22 2431.11C7165.01 2388.21 7169.52 2343.81 7174.23 2298.97V2296.19L7176.81 2294.9L7217.78 2271.95C7220.78 2270.02 7225.5 2267.87 7227.43 2266.15C7229.48 2264.3 7230.84 2261.8 7231.29 2259.08C7232.29 2251.96 7232.29 2244.74 7231.29 2237.63C7229.22 2221.89 7225.99 2206.34 7221.64 2191.08C7214.35 2177.73 7202.1 2167.79 7187.53 2163.41L7183.89 2162.12V2158.47C7183.89 2146.03 7182.6 2133.16 7181.1 2120.5C7180.52 2114.16 7179.58 2107.86 7178.31 2101.63C7177.81 2098.88 7176.94 2096.21 7175.74 2093.69C7175.74 2092.19 7175.74 2093.69 7174.45 2092.4C7173.28 2091.79 7172.06 2091.29 7170.8 2090.9C7145 2085.28 7118.7 2082.33 7092.29 2082.11H7086.72V2076.53C7086.72 2063.23 7086.72 2048.43 7086.72 2033.63C7085.83 2028.58 7084.09 2023.72 7081.57 2019.26C7079.42 2014.11 7076.85 2009.17 7074.27 2004.03C7069.25 1994.09 7063.37 1984.61 7056.68 1975.71C7053.65 1971.56 7049.95 1967.94 7045.74 1964.98C7044.19 1963.67 7042.28 1962.85 7040.26 1962.62C7038.23 1962.39 7036.19 1962.76 7034.38 1963.7C7024 1967.67 7013.89 1972.33 7004.13 1977.64C6964.23 1999.09 6925.19 2020.54 6887.01 2043.71L6881.43 2047.14L6879.07 2041.14C6858.91 1990.3 6838.74 1940.1 6819.01 1890.98C6809.14 1866.31 6799.49 1841.64 6789.62 1817.4C6788.1 1811.97 6785.08 1807.08 6780.91 1803.29C6776.73 1799.49 6771.58 1796.95 6766.03 1795.95C6760.9 1794.25 6755.35 1794.34 6750.28 1796.21C6745.21 1798.09 6740.93 1801.62 6738.14 1806.25C6735.47 1810.85 6734.34 1816.19 6734.92 1821.48C6734.92 1826.2 6737.92 1833.49 6739.21 1839.28C6742.64 1851.72 6745.86 1863.95 6749.08 1876.18C6755.51 1900.85 6761.74 1925.09 6768.17 1949.11C6780.75 1997.45 6793.13 2044.64 6805.28 2090.69V2092.19C6800.99 2180.28 6796.91 2264.65 6793.05 2345.31V2344.88L6597.64 2980.68L6542.51 3157.65C6536.07 3177.6 6531.14 3193.26 6527.71 3204.2C6524.27 3215.14 6522.13 3219.86 6522.13 3219.86C6522.13 3219.86 6523.2 3214.28 6526.2 3203.77L6539.72 3156.79C6552.16 3115.39 6569.96 3055.55 6592.49 2979.18C6638.82 2825.59 6704.68 2606.37 6784.26 2342.09V2343.16C6787.98 2262.79 6791.77 2178.42 6795.63 2090.04V2091.55C6783.4 2045.43 6770.74 1998.23 6758.09 1950.18L6738.78 1877.25C6735.57 1865.02 6732.35 1852.58 6728.92 1840.36C6727.07 1833.93 6725.57 1827.42 6724.41 1820.84C6723.62 1813.39 6725.2 1805.88 6728.92 1799.38C6732.89 1792.69 6739.01 1787.55 6746.29 1784.8C6753.49 1782.69 6761.11 1782.45 6768.43 1784.1C6775.75 1785.75 6782.52 1789.24 6788.12 1794.24C6793.5 1799.29 6797.49 1805.64 6799.7 1812.68L6829.09 1886.26C6849.04 1935.6 6868.99 1985.79 6889.37 2036.42L6881.43 2033.63C6919.83 2010.89 6958.44 1988.15 6999.2 1966.92C7009.5 1961.53 7020.1 1956.73 7030.94 1952.54C7034.33 1951.13 7038.02 1950.62 7041.67 1951.04C7045.34 1951.57 7048.85 1952.89 7051.97 1954.9C7057.13 1958.61 7061.69 1963.1 7065.48 1968.2C7072.65 1977.59 7078.9 1987.65 7084.14 1998.23C7086.93 2003.6 7089.5 2008.74 7091.86 2014.11C7094.92 2019.79 7096.95 2025.96 7097.87 2032.34C7097.87 2047.57 7097.87 2061.73 7097.87 2075.24L7092.51 2069.45C7120.08 2069.64 7147.56 2072.8 7174.45 2078.89C7176.3 2079.53 7178.09 2080.32 7179.81 2081.25C7182.17 2082.53 7184.11 2084.47 7185.39 2086.83C7187.05 2090.31 7188.28 2093.98 7189.04 2097.77C7190.32 2104.63 7191.18 2111.07 7192.04 2117.72C7193.33 2130.8 7194.18 2143.67 7194.83 2156.54L7190.97 2151.39C7199.74 2153.97 7207.89 2158.3 7214.94 2164.12C7221.98 2169.95 7227.77 2177.15 7231.94 2185.29C7236.64 2201.59 7240.08 2218.22 7242.23 2235.05C7243.72 2243.64 7243.72 2252.42 7242.23 2261.01C7241.3 2266.21 7238.57 2270.92 7234.51 2274.31C7230.99 2276.66 7227.34 2278.81 7223.57 2280.74L7182.81 2301.98L7185.6 2297.9C7180.67 2342.73 7176.17 2386.71 7170.16 2430.25L7168.87 2438.62C7168.37 2442.01 7166.97 2445.2 7164.8 2447.84C7161.64 2452.54 7158.12 2456.99 7154.29 2461.14C7146.99 2469.29 7139.7 2477.23 7132.83 2484.95C7118.03 2500.4 7103.23 2515.2 7088.22 2529.79L7089.72 2527.21C7042.53 2726.28 6998.77 2911.18 6959.51 3076.57C6939.99 3159.15 6921.33 3237.02 6904.17 3309.09C6896.83 3344.1 6887.37 3378.63 6875.85 3412.49C6864.82 3443.4 6851.18 3473.32 6835.1 3501.94C6807.69 3550.74 6772.39 3594.67 6730.63 3631.93C6698.81 3659.32 6659.66 3676.77 6618.01 3682.12C6592.09 3685.6 6565.72 3682.96 6541.01 3674.4C6534.72 3672.09 6528.62 3669.3 6522.77 3666.04L6516.12 3663.25Z" fill="#EB996E"/>
<path d="M7093.15 2073.53C7093.15 2075.03 7085.86 2075.89 7074.49 2076.31C7060.05 2076.59 7045.68 2078.31 7031.59 2081.46C7017.98 2084.81 7005.44 2091.52 6995.12 2100.98C6987.4 2108.28 6983.97 2114.5 6982.25 2113.85C6980.53 2113.21 6982.25 2105.49 6989.33 2095.62C6999.32 2083.13 7013.22 2074.36 7028.8 2070.74C7043.81 2067.04 7059.41 2066.31 7074.7 2068.59C7086.29 2070.09 7093.15 2072.02 7093.15 2073.53Z" fill="#EB996E"/>
<path d="M7030.94 2075.89C7028.15 2074.81 7027.94 2068.16 7030.94 2061.08C7033.95 2054.01 7038.24 2049.07 7041.02 2050.14C7043.81 2051.22 7044.24 2057.87 7041.02 2064.95C7037.81 2072.02 7033.09 2076.96 7030.94 2075.89Z" fill="#EB996E"/>
<path d="M7193.54 2153.75C7172.72 2160.19 7150.97 2163.17 7129.19 2162.55C7122.33 2162.32 7115.52 2163.74 7109.32 2166.69C7103.12 2169.64 7097.73 2174.03 7093.58 2179.49C7088 2188.29 7089.93 2195.58 7088.22 2196.01C7086.5 2196.44 7081.35 2188.93 7086.71 2176.06C7089.67 2168.81 7095.05 2162.82 7101.94 2159.12C7109.89 2154.76 7118.66 2152.13 7127.69 2151.39C7149.59 2148.04 7171.93 2148.84 7193.54 2153.75Z" fill="#EB996E"/>
<path d="M7179.38 2230.98C7182.38 2230.98 7184.1 2246.85 7183.24 2266.37C7182.38 2285.89 7179.17 2301.33 7176.16 2301.33C7173.16 2301.33 7171.23 2285.25 7172.09 2265.73C7172.95 2246.21 7176.16 2230.76 7179.38 2230.98Z" fill="#EB996E"/>
<path d="M7268.4 2808.65L7287.49 2743.01C7288.37 2740 7290.01 2737.28 7292.26 2735.1C7294.5 2732.92 7297.28 2731.37 7300.31 2730.59C7303.34 2729.81 7306.52 2729.83 7309.54 2730.65C7312.56 2731.48 7315.31 2733.07 7317.52 2735.28L7342.62 2760.81L7358.07 2698.82C7358.98 2695.24 7360.96 2692.02 7363.76 2689.61C7366.56 2687.19 7370.03 2685.7 7373.71 2685.32C7377.38 2684.95 7381.08 2685.71 7384.31 2687.51C7387.54 2689.31 7390.13 2692.06 7391.74 2695.39L7426.71 2768.75L7268.4 2808.65Z" fill="white"/>
<path d="M7427.14 2796.85C7403.14 2808.45 7377.66 2816.67 7351.42 2821.3C7326.04 2829.59 7299.6 2834.22 7272.91 2835.03C7322.29 2815.19 7374.2 2802.34 7427.14 2796.85Z" fill="white"/>
<path d="M6151.46 2430.68C6151.46 2430.68 6143.52 2438.83 6132.37 2456.21C6117.39 2480.95 6107.54 2508.45 6103.41 2537.08C6097.29 2579.7 6096 2622.87 6099.55 2665.78C6101.91 2714.48 6105.77 2767.68 6111.77 2823.45C6121.93 2918.7 6137.04 3013.35 6157.03 3107.03C6164.54 3143.07 6171.41 3171.38 6176.13 3192.83C6178.27 3201.84 6180.2 3209.35 6181.7 3215.78C6183.2 3222.22 6183.42 3223.93 6183.42 3223.93C6183.42 3223.93 6182.35 3221.36 6180.84 3216.21C6179.34 3211.06 6176.98 3202.06 6174.62 3193.26C6169.26 3173.31 6161.97 3144.57 6153.17 3108.53C6132.32 3014.88 6116.78 2920.13 6106.62 2824.73C6100.62 2768.96 6096.97 2715.55 6094.83 2666.86C6091.58 2623.91 6093.16 2580.74 6099.55 2538.15C6104.15 2509.15 6114.67 2481.41 6130.43 2456.64C6136.24 2447.08 6143.31 2438.35 6151.46 2430.68Z" fill="white"/>
<path d="M6603 2138.52L6598.06 2141.1L6583.91 2147.96C6571.68 2153.75 6553.87 2162.33 6532.64 2174.13C6477.28 2205.01 6423.51 2238.66 6371.54 2274.95C6310.19 2317.85 6255.92 2356.89 6216.24 2385.21L6169.26 2418.46L6156.18 2427.25C6154.71 2428.42 6153.13 2429.42 6151.46 2430.25C6152.68 2428.81 6154.13 2427.58 6155.75 2426.61L6168.19 2417.17L6214.31 2382.63C6253.56 2353.67 6307.62 2313.35 6368.97 2271.3C6421.03 2234.85 6475.18 2201.48 6531.14 2171.34C6552.59 2159.97 6570.61 2151.82 6583.26 2146.46L6597.63 2140.45C6601.92 2138.95 6601.92 2138.31 6603 2138.52Z" fill="white"/>
<path d="M7625.99 2278.17C7624.64 2277.42 7623.41 2276.48 7622.34 2275.38L7612.69 2267.01C7600.74 2256.92 7588.2 2247.54 7575.15 2238.91C7531.61 2211.15 7485.4 2187.79 7437.22 2169.2C7389.19 2150.17 7340.14 2133.84 7290.28 2120.29C7270.98 2114.93 7255.53 2111.07 7244.59 2108.49L7232.37 2105.27C7230.88 2104.97 7229.43 2104.46 7228.08 2103.77H7232.58L7245.02 2106.13C7255.96 2108.28 7271.62 2111.71 7290.93 2116.64C7341.25 2129.35 7390.7 2145.33 7438.94 2164.48C7487.39 2183.07 7533.65 2206.95 7576.87 2235.69C7594.85 2247.87 7611.34 2262.13 7625.99 2278.17Z" fill="white"/>
<path d="M6609 3915.51C6606.09 3914.99 6603.28 3914.05 6600.64 3912.72C6593.19 3909.45 6586.01 3905.57 6579.19 3901.14C6567.63 3894.21 6557.55 3885.08 6549.53 3874.26C6541.51 3863.44 6535.69 3851.14 6532.42 3838.07C6526.54 3811.69 6529.47 3784.11 6540.79 3759.56C6544.06 3751.94 6548.24 3744.73 6553.23 3738.11C6556.66 3733.61 6559.02 3731.46 6559.24 3731.68C6553.39 3740.82 6548.15 3750.36 6543.58 3760.21C6533.61 3784.31 6531.29 3810.89 6536.93 3836.36C6543.07 3861.5 6558.37 3883.45 6579.83 3897.92C6597.63 3910.79 6609.43 3914.65 6609 3915.51Z" fill="white"/>
<path d="M6540.79 3683.2C6545.35 3691.71 6548.74 3700.8 6550.87 3710.22C6554.23 3719.25 6556.25 3728.72 6556.88 3738.33C6552 3730.01 6548.53 3720.95 6546.58 3711.51C6543.07 3702.47 6541.11 3692.89 6540.79 3683.2Z" fill="white"/>
<path d="M6830.81 8492.69L7485.06 8489.47L7473.26 6227.48L7467.04 3926.45L6580.47 3915.08L6421.09 4215.39C6355.89 4336.13 6314.31 4468.19 6298.61 4604.51C6287.88 4708.76 6365.97 5047.68 6392.99 5133.49L6636.89 5907.01L6830.81 8492.69Z" fill="#263238"/>
<path d="M7659.02 3929.24L8378.05 5889.2C8420.65 6015.48 8434.8 6149.62 8419.49 6282.02C8404.17 6414.41 8359.77 6541.78 8289.46 6655L7454.6 8285.26L6985.25 7697.94L7683.69 6239.28L7068.05 5240.74L7171.66 3932.24L7461.67 3927.52L7659.02 3929.24Z" fill="#263238"/>
<path d="M7407.4 4585.85C7407.4 4585.85 7407.4 4589.28 7407.4 4595.93C7407.4 4602.58 7408.48 4612.88 7409.34 4625.53C7410.84 4651.92 7412.77 4689.88 7415.34 4739.01C7420.28 4838.32 7427.14 4980.97 7436.79 5157.08C7446.45 5333.2 7454.6 5543.2 7465.32 5777.01C7470.47 5893.71 7476.05 6016.19 7481.62 6143.18C7485.7 6207.53 7483.98 6271.88 7484.63 6336.24C7485.27 6400.59 7484.63 6468.37 7484.63 6535.73C7484.63 7074.79 7486.34 7562.8 7486.99 7916.52C7486.99 8092.85 7486.99 8235.71 7486.99 8335.03C7486.99 8384.15 7486.99 8422.33 7486.99 8448.93C7486.99 8461.37 7486.99 8470.38 7486.99 8478.53C7486.99 8486.68 7486.99 8488.61 7486.99 8488.61C7486.99 8488.61 7486.99 8485.18 7486.99 8478.53V8448.93C7486.99 8422.33 7486.99 8384.58 7485.7 8335.03C7485.7 8235.71 7483.98 8093.06 7482.7 7916.73C7481.2 7563.01 7479.26 7075 7477.12 6535.94C7477.12 6468.59 7477.12 6402.09 7477.12 6336.45C7477.12 6270.81 7478.41 6206.03 7474.33 6143.39C7468.97 6016.62 7463.61 5894.13 7458.67 5777.44C7448.8 5544.06 7439.8 5334.05 7432.5 5157.3C7425.21 4980.54 7419.85 4838.54 7415.77 4739.22C7414.05 4690.31 7412.77 4652.13 7411.91 4625.53C7411.91 4612.88 7411.91 4604.08 7411.91 4595.93C7411.91 4587.78 7407.4 4585.85 7407.4 4585.85Z" fill="#455A64"/>
<path d="M7390.89 3967.85C7393.4 3974.75 7394.91 3981.97 7395.39 3989.3C7397.75 4003.03 7400.33 4022.98 7403.33 4047.86C7408.91 4097.41 7414.91 4166.27 7418.35 4242.42C7421.78 4318.57 7421.99 4387.64 7420.92 4437.62C7420.92 4462.51 7419.42 4482.88 7418.35 4496.83C7418.56 4504.07 7417.7 4511.3 7415.77 4518.28C7413.07 4491.48 7412.14 4464.54 7412.98 4437.62C7412.98 4387.64 7410.62 4319 7407.19 4242.85C7403.76 4166.7 7399.04 4098.27 7395.39 4049.79C7392.34 4022.59 7390.84 3995.23 7390.89 3967.85Z" fill="#455A64"/>
<path d="M7246.74 4012.04C7247.81 4013.54 7235.58 4019.12 7232.15 4036.49C7231.19 4041.21 7231.45 4046.09 7232.92 4050.67C7234.38 4055.25 7237 4059.38 7240.52 4062.66C7244.76 4066.61 7250.05 4069.25 7255.75 4070.28C7261.46 4071.31 7267.34 4070.67 7272.69 4068.45C7277.83 4065.81 7282.13 4061.77 7285.08 4056.8C7288.04 4051.83 7289.54 4046.13 7289.42 4040.35C7289.23 4035.55 7287.8 4030.88 7285.29 4026.79C7282.77 4022.7 7279.25 4019.32 7275.05 4016.97C7266.33 4012.75 7256.6 4011.04 7246.95 4012.04C7246.95 4012.04 7249.1 4009.25 7254.67 4007.53C7262.72 4005.57 7271.19 4006.4 7278.7 4009.89C7284.69 4012.38 7289.87 4016.49 7293.66 4021.76C7297.44 4027.02 7299.69 4033.24 7300.15 4039.71C7301 4047.7 7299.33 4055.75 7295.36 4062.73C7291.39 4069.72 7285.34 4075.28 7278.05 4078.65C7270.75 4082.01 7262.59 4083 7254.7 4081.48C7246.81 4079.96 7239.6 4076 7234.08 4070.17C7229.52 4065.64 7226.29 4059.94 7224.74 4053.7C7223.19 4047.46 7223.38 4040.92 7225.29 4034.78C7227.44 4026.75 7232.29 4019.71 7239.02 4014.83C7243.31 4011.82 7246.52 4011.4 7246.74 4012.04Z" fill="#455A64"/>
<path d="M6903.53 3973.21C6906.68 3979.97 6908.64 3987.23 6909.32 3994.66C6912.77 4013.92 6913.42 4033.57 6911.25 4053.01C6908.16 4081.96 6899.8 4110.09 6886.58 4136.02C6870.6 4168.28 6846.96 4196.12 6817.71 4217.11C6788.46 4238.09 6754.51 4251.57 6718.83 4256.36C6690.28 4260.63 6661.18 4259.54 6633.03 4253.15C6613.98 4249.01 6595.63 4242.15 6578.54 4232.77C6572.09 4229.71 6566.15 4225.66 6560.96 4220.76C6584.67 4231.42 6609.39 4239.69 6634.75 4245.42C6665.26 4251.77 6696.75 4251.72 6727.24 4245.28C6757.73 4238.84 6786.55 4226.14 6811.88 4208C6837.22 4189.86 6858.52 4166.67 6874.44 4139.88C6890.36 4113.09 6900.56 4083.29 6904.38 4052.37C6906.9 4026.03 6906.62 3999.49 6903.53 3973.21Z" fill="#455A64"/>
<path d="M7745.25 4161.12C7731.26 4162.74 7717.08 4161.05 7703.85 4156.19C7671.45 4145.98 7642.35 4127.32 7619.55 4102.13C7596.55 4077.05 7580.76 4046.22 7573.86 4012.9C7570.48 3999.3 7570.48 3985.09 7573.86 3971.5C7575.79 3971.5 7576.01 3987.16 7582.44 4011.18C7591.14 4042.22 7606.95 4070.81 7628.62 4094.68C7650.29 4118.55 7677.22 4137.04 7707.29 4148.68C7729.6 4157.47 7745.47 4158.98 7745.25 4161.12Z" fill="#455A64"/>
<path d="M8000.73 6274.03C7989.98 6286.29 7977.12 6296.54 7962.77 6304.28C7947.71 6313.83 7931.29 6321.06 7914.07 6325.73C7892.41 6331.47 7869.55 6330.87 7848.22 6324.01C7810.75 6309.88 7778.65 6284.38 7756.41 6251.08C7746.2 6238.56 7737.75 6224.7 7731.31 6209.89C7742.89 6220.94 7753.38 6233.08 7762.63 6246.14C7785.41 6276.35 7816.17 6299.6 7851.44 6313.28C7869.44 6318.09 7888.24 6319.18 7906.68 6316.49C7925.11 6313.8 7942.81 6307.38 7958.69 6297.63C7972.24 6288.96 7986.28 6281.08 8000.73 6274.03Z" fill="#455A64"/>
<path d="M7836.85 6399.09C7811.5 6372.83 7788.86 6344.08 7769.28 6313.28C7746.73 6284.61 7727.04 6253.78 7710.5 6221.26C7736.03 6247.42 7758.75 6276.18 7778.29 6307.06C7801.03 6335.57 7820.66 6366.42 7836.85 6399.09Z" fill="#455A64"/>
<path d="M6737.71 4661.57C6734.71 4662.64 6727.2 4650.41 6720.55 4633.9C6713.9 4617.38 6711.11 4603.44 6713.9 4602.15C6716.69 4600.86 6724.41 4613.3 6730.84 4629.82C6737.28 4646.34 6740.5 4661.57 6737.71 4661.57Z" fill="#FAFAFA"/>
<path d="M7153 4721.2C7149.78 4721.2 7147.42 4710.69 7147.42 4697.61C7147.42 4684.52 7149.78 4673.8 7153 4673.8C7156.21 4673.8 7158.57 4684.52 7158.57 4697.61C7158.57 4710.69 7156 4721.2 7153 4721.2Z" fill="#FAFAFA"/>
<path d="M6982.25 4946.87C6979.25 4946.87 6975.81 4934 6974.74 4917.48C6973.67 4900.96 6974.74 4887.66 6978.17 4887.45C6981.61 4887.23 6984.82 4900.32 6985.89 4916.83C6986.97 4933.35 6985.25 4946.65 6982.25 4946.87Z" fill="#FAFAFA"/>
<path d="M6670.35 5112.04C6667.78 5113.97 6658.99 5106.03 6647.4 5097.88C6635.82 5089.73 6625.95 5083.51 6625.95 5080.51C6625.95 5077.5 6640.11 5079.22 6653.19 5088.66C6666.28 5098.09 6672.93 5112.04 6670.35 5112.04Z" fill="#FAFAFA"/>
<path d="M7220.14 5322.47C7217.56 5320.75 7220.14 5311.53 7227.43 5301.02C7234.72 5290.51 7241.37 5284.5 7243.95 5286.22C7246.52 5287.93 7243.95 5297.37 7236.66 5307.67C7229.36 5317.97 7222.71 5324.19 7220.14 5322.47Z" fill="#FAFAFA"/>
<path d="M6880.79 5381.89C6877.78 5381.89 6875.21 5364.08 6875.21 5342.42C6875.21 5320.75 6877.78 5302.74 6880.79 5302.74C6883.79 5302.74 6886.36 5320.54 6886.36 5342.42C6886.36 5364.3 6883.15 5381.89 6880.79 5381.89Z" fill="#FAFAFA"/>
<path d="M6769.67 5622.57C6767.95 5624.93 6756.8 5619.99 6744.79 5611.2C6732.77 5602.4 6723.34 5593.39 6726.13 5590.82C6728.91 5588.25 6739.21 5593.39 6751.22 5602.19C6763.23 5610.98 6771.6 5619.99 6769.67 5622.57Z" fill="#FAFAFA"/>
<path d="M7113.31 5706.23C7114.6 5709.01 7107.74 5714.81 7097.87 5719.31C7088 5723.82 7078.99 5724.89 7077.71 5722.1C7076.42 5719.31 7083.5 5713.52 7093.37 5709.01C7103.23 5704.51 7112.24 5703.44 7113.31 5706.23Z" fill="#FAFAFA"/>
<path d="M6880.79 6098.78C6878.21 6100.06 6867.06 6083.55 6856.12 6061.67C6845.18 6039.79 6838.53 6020.91 6841.32 6018.76C6844.11 6016.62 6855.26 6033.99 6865.99 6055.87C6876.71 6077.75 6882.72 6096.42 6880.79 6098.78Z" fill="#FAFAFA"/>
<path d="M7259.82 6062.31C7257.04 6060.81 7261.97 6046.44 7270.55 6029.92C7279.13 6013.4 7288.78 6001.39 7292 6002.89C7295.22 6004.39 7289.86 6018.76 7281.06 6035.28C7272.27 6051.8 7262.4 6063.81 7259.82 6062.31Z" fill="#FAFAFA"/>
<path d="M7093.58 6394.58C7090.36 6394.58 7090.79 6377.21 7087.36 6357.04C7083.93 6336.88 7078.78 6320.79 7081.78 6319.29C7084.78 6317.79 7095.08 6333.02 7098.51 6355.33C7101.94 6377.64 7096.58 6395.23 7093.58 6394.58Z" fill="#FAFAFA"/>
<path d="M6915.54 6584.42C6913.39 6586.57 6902.67 6578.42 6891.73 6566.4C6880.79 6554.39 6873.71 6543.02 6876.07 6540.88C6878.43 6538.73 6888.94 6546.88 6899.88 6558.9C6910.82 6570.91 6917.9 6582.28 6915.54 6584.42Z" fill="#FAFAFA"/>
<path d="M7347.56 6656.5C7345.41 6654.35 7353.35 6642.77 7365.36 6630.54C7377.37 6618.32 7388.53 6610.38 7390.89 6612.52C7393.25 6614.67 7385.1 6626.47 7373.3 6638.48C7361.5 6650.49 7349.92 6658.64 7347.56 6656.5Z" fill="#FAFAFA"/>
<path d="M7099.15 6940.72C7096.15 6940.72 7096.15 6923.78 7099.15 6904.04C7102.16 6884.31 7106.88 6868.86 7110.09 6869.29C7113.31 6869.72 7113.1 6886.02 7110.09 6905.76C7107.09 6925.49 7102.16 6941.15 7099.15 6940.72Z" fill="#FAFAFA"/>
<path d="M6932.06 7078.65C6929.27 7080.15 6919.83 7069 6910.6 7053.77C6901.38 7038.54 6896.66 7025.02 6899.23 7023.52C6901.81 7022.02 6911.25 7032.96 6920.69 7048.19C6930.12 7063.42 6934.63 7076.93 6932.06 7078.65Z" fill="#FAFAFA"/>
<path d="M7334.69 7252.62C7336.62 7255.19 7325.68 7266.13 7310.23 7277.07C7294.79 7288.01 7281.27 7294.88 7279.34 7292.3C7277.41 7289.73 7288.57 7278.79 7303.8 7267.85C7319.03 7256.91 7332.97 7250.26 7334.69 7252.62Z" fill="#FAFAFA"/>
<path d="M6999.19 7478.49C6996.19 7477.42 6999.19 7460.26 7001.98 7438.81C7004.77 7417.36 7003.06 7399.77 7006.27 7399.34C7009.49 7398.91 7015.07 7416.93 7012.92 7439.88C7010.78 7462.84 7001.98 7479.78 6999.19 7478.49Z" fill="#FAFAFA"/>
<path d="M7133.26 7802.83C7130.69 7804.76 7121.68 7797.47 7112.88 7786.53C7104.09 7775.59 7099.16 7765.08 7101.52 7763.15C7103.88 7761.22 7112.88 7768.51 7121.68 7779.45C7130.47 7790.39 7135.62 7800.9 7133.26 7802.83Z" fill="#FAFAFA"/>
<path d="M6986.75 8020.34C6984.18 8022.06 6972.38 8009.4 6960.37 7991.81C6948.36 7974.22 6940.85 7958.78 6943.21 7957.06C6945.57 7955.35 6957.58 7968 6969.59 7985.59C6981.61 8003.18 6989.33 8018.63 6986.75 8020.34Z" fill="#FAFAFA"/>
<path d="M7390.24 7747.27C7387.46 7746.2 7387.67 7738.26 7390.24 7729.68C7392.82 7721.1 7398.61 7714.67 7401.61 7715.74C7404.62 7716.81 7404.19 7724.75 7401.61 7733.54C7399.04 7742.34 7393.25 7748.56 7390.24 7747.27Z" fill="#FAFAFA"/>
<path d="M7212.2 8265.31C7209.41 8263.81 7214.78 8248.58 7219.07 8229.49C7223.36 8210.4 7224.86 8194.31 7228.08 8194.09C7231.29 8193.88 7234.51 8211.26 7230.01 8231.85C7225.5 8252.44 7214.78 8267.03 7212.2 8265.31Z" fill="#FAFAFA"/>
<path d="M7328.04 4950.3C7325.25 4951.59 7318.38 4943 7312.81 4930.99C7307.23 4918.98 7304.87 4908.25 7307.66 4906.97C7310.45 4905.68 7317.31 4914.26 7322.89 4926.27C7328.47 4938.29 7331.25 4949.01 7328.04 4950.3Z" fill="#FAFAFA"/>
<path d="M7030.94 4282.32C7032.66 4284.89 7017.64 4296.91 7001.55 4314.07C6985.47 4331.23 6974.53 4347.1 6971.74 4345.6C6968.95 4344.1 6976.24 4324.15 6993.19 4306.56C7010.13 4288.97 7028.8 4279.53 7030.94 4282.32Z" fill="#FAFAFA"/>
<path d="M7295.43 4275.45C7292.21 4275.45 7287.28 4263.23 7279.77 4248.64C7272.26 4234.05 7265.4 4222.04 7267.76 4219.9C7270.12 4217.75 7281.7 4227.19 7289.21 4243.49C7296.72 4259.8 7298.22 4273.74 7295.43 4275.45Z" fill="#FAFAFA"/>
<path d="M6469.57 4492.32C6466.79 4491.04 6469.57 4476.88 6476.22 4460.58C6482.87 4444.27 6490.17 4431.62 6493.17 4432.9C6496.17 4434.19 6493.17 4448.13 6486.52 4464.65C6479.87 4481.17 6473.22 4493.4 6469.57 4492.32Z" fill="#FAFAFA"/>
<path d="M6496.39 4816.23C6494.24 4818.59 6482.02 4811.73 6468.93 4800.79C6455.85 4789.85 6447.48 4779.33 6448.77 4776.76C6450.05 4774.19 6463.14 4781.27 6476.22 4792.21C6489.31 4803.15 6498.32 4813.87 6496.39 4816.23Z" fill="#FAFAFA"/>
<path d="M7038.24 4025.12C7035.45 4025.12 7029.44 4018.26 7025.15 4007.32C7020.86 3996.38 7019.57 3985.87 7022.36 3985.87C7025.15 3985.87 7031.16 3992.73 7035.45 4003.67C7039.74 4014.61 7041.02 4024.05 7038.24 4025.12Z" fill="#FAFAFA"/>
<path d="M7557.13 4183.43C7554.13 4183.43 7554.34 4169.92 7557.13 4154.69C7559.92 4139.46 7565.5 4127.44 7568.5 4128.09C7571.5 4128.73 7571.29 4141.82 7568.5 4157.05C7565.71 4172.28 7560.13 4184.07 7557.13 4183.43Z" fill="#FAFAFA"/>
<path d="M7678.97 4428.61C7676.18 4427.33 7680.04 4411.45 7687.77 4392.79C7695.49 4374.13 7703.85 4360.19 7706.64 4361.26C7709.43 4362.33 7706.64 4378.42 7698.06 4397.08C7689.48 4415.74 7681.97 4429.69 7678.97 4428.61Z" fill="#FAFAFA"/>
<path d="M7592.1 4626.39C7589.31 4627.68 7579.01 4612.88 7569.14 4593.36C7559.28 4573.84 7553.7 4556.46 7556.49 4555.17C7559.28 4553.89 7569.36 4568.69 7579.22 4588.21C7589.09 4607.73 7594.88 4624.89 7592.1 4626.39Z" fill="#FAFAFA"/>
<path d="M7777.86 4824.17C7775.07 4823.09 7777.86 4810.65 7782.58 4796.5C7787.3 4782.34 7794.81 4771.61 7797.81 4772.69C7800.81 4773.76 7797.81 4786.2 7793.09 4800.36C7788.37 4814.51 7781.72 4825.24 7777.86 4824.17Z" fill="#FAFAFA"/>
<path d="M7611.83 5017.87C7609.26 5019.58 7602.61 5013.79 7597.24 5005.21C7591.88 4996.63 7589.31 4988.05 7592.1 4986.34C7594.89 4984.62 7601.11 4990.41 7606.68 4999.21C7612.26 5008 7614.41 5016.37 7611.83 5017.87Z" fill="#FAFAFA"/>
<path d="M7647.22 5417.71C7645.08 5419.64 7631.57 5409.13 7617.41 5393.69C7603.25 5378.24 7593.6 5364.3 7595.96 5362.15C7598.32 5360.01 7611.62 5370.73 7625.77 5386.18C7639.93 5401.62 7649.58 5415.57 7647.22 5417.71Z" fill="#FAFAFA"/>
<path d="M7864.95 5187.97C7862.59 5189.9 7850.79 5179.18 7838.78 5163.73C7826.77 5148.29 7819.05 5134.56 7821.41 5132.63C7823.77 5130.7 7835.56 5141.64 7847.58 5156.87C7859.59 5172.1 7867.53 5186.26 7864.95 5187.97Z" fill="#FAFAFA"/>
<path d="M7984.43 5504.8C7981.64 5503.52 7986.58 5487.43 7995.37 5468.98C8004.17 5450.53 8013.39 5436.37 8016.82 5437.66C8020.25 5438.95 8014.89 5455.25 8006.1 5473.7C7997.3 5492.15 7987.22 5506.3 7984.43 5504.8Z" fill="#FAFAFA"/>
<path d="M7730.45 5765.64C7727.66 5767.15 7717.8 5755.35 7704.07 5742.69C7690.34 5730.04 7677.68 5721.24 7678.97 5718.02C7680.26 5714.81 7696.56 5720.6 7711.58 5734.54C7726.59 5748.48 7733.03 5764.14 7730.45 5765.64Z" fill="#FAFAFA"/>
<path d="M7746.33 6034.42C7746.33 6037.43 7735.6 6040 7722.52 6040C7709.43 6040 7698.92 6037.43 7698.92 6034.42C7698.92 6031.42 7709.43 6028.85 7722.52 6028.85C7735.6 6028.85 7746.33 6031.42 7746.33 6034.42Z" fill="#FAFAFA"/>
<path d="M8007.38 5959.35C8004.6 5957.84 8010.17 5944.33 8014.25 5927.6C8018.32 5910.87 8020.04 5896.28 8023.26 5896.07C8026.48 5895.85 8029.91 5911.51 8025.19 5930.17C8020.47 5948.84 8009.74 5961.06 8007.38 5959.35Z" fill="#FAFAFA"/>
<path d="M8266.73 6049.65C8263.94 6050.73 8256 6035.5 8249.14 6015.98C8242.27 5996.46 8239.05 5979.72 8241.84 5978.87C8244.63 5978.01 8252.78 5992.81 8259.65 6012.33C8266.51 6031.85 8269.73 6048.58 8266.73 6049.65Z" fill="#FAFAFA"/>
<path d="M8225.33 6418.61C8222.75 6417.11 8229.4 6399.09 8240.13 6378.28C8250.85 6357.47 8261.58 6341.81 8264.79 6343.32C8268.01 6344.82 8260.93 6362.84 8249.99 6383.43C8239.05 6404.02 8228.11 6420.54 8225.33 6418.61Z" fill="#FAFAFA"/>
<path d="M7988.72 6635.05C7985.93 6636.12 7977.14 6621.32 7968.99 6601.8C7960.84 6582.28 7956.76 6565.55 7959.76 6564.26C7962.77 6562.97 7971.35 6577.99 7979.28 6597.51C7987.22 6617.03 7991.51 6635.05 7988.72 6635.05Z" fill="#FAFAFA"/>
<path d="M7726.59 6718.92C7726.59 6721.92 7717.58 6724.5 7706.64 6724.5C7695.7 6724.5 7686.91 6721.92 7686.91 6718.92C7686.91 6715.92 7695.92 6713.34 7706.64 6713.34C7717.37 6713.34 7726.59 6715.92 7726.59 6718.92Z" fill="#FAFAFA"/>
<path d="M7876.75 7064.06C7873.96 7064.06 7867.95 7052.27 7863.45 7035.96C7858.94 7019.66 7858.09 7005.5 7861.09 7004.86C7864.09 7004.22 7869.88 7016.66 7874.39 7032.96C7878.89 7049.26 7879.75 7062.35 7876.75 7064.06Z" fill="#FAFAFA"/>
<path d="M7686.91 6948.23C7684.34 6946.73 7686.91 6936.65 7693.99 6925.71C7701.07 6914.77 7708.15 6907.26 7710.72 6908.76C7713.29 6910.26 7710.72 6920.56 7703.64 6931.5C7696.56 6942.44 7689.7 6949.95 7686.91 6948.23Z" fill="#FAFAFA"/>
<path d="M7683.05 7328.12C7680.04 7328.12 7675.75 7313.75 7673.61 7295.09C7671.46 7276.43 7672.11 7261.2 7675.11 7260.77C7678.11 7260.34 7682.4 7275.14 7684.55 7293.8C7686.69 7312.46 7686.05 7327.69 7683.05 7328.12Z" fill="#FAFAFA"/>
</svg>
